{
	"asset":{
		"generator":"Khronos glTF Blender I/O v4.3.47",
		"version":"2.0"
	},
	"scene":0,
	"scenes":[
		{
			"name":"Scene",
			"nodes":[
				0
			]
		}
	],
	"nodes":[
		{
			"mesh":0,
			"name":"Cube"
		}
	],
	"materials":[
		{
			"doubleSided":true,
			"name":"Material",
			"pbrMetallicRoughness":{
				"baseColorTexture":{
					"index":0
				},
				"metallicFactor":0,
				"roughnessFactor":0.5
			}
		},
		{
			"doubleSided":true,
			"name":"Material.002",
			"pbrMetallicRoughness":{
				"baseColorFactor":[
					0.8005756139755249,
					0,
					0.20021384954452515,
					1
				],
				"roughnessFactor":0.5
			}
		}
	],
	"meshes":[
		{
			"name":"Cube",
			"primitives":[
				{
					"attributes":{
						"POSITION":0,
						"NORMAL":1,
						"TEXCOORD_0":2
					},
					"indices":3,
					"material":0
				},
				{
					"attributes":{
						"POSITION":4,
						"NORMAL":5,
						"TEXCOORD_0":6
					},
					"indices":7,
					"material":1
				}
			]
		}
	],
	"textures":[
		{
			"sampler":0,
			"source":0
		}
	],
	"images":[
		{
			"mimeType":"image/jpeg",
			"name":"concrete wall alt",
			"uri":"concrete%20wall%20alt.jpg"
		}
	],
	"accessors":[
		{
			"bufferView":0,
			"componentType":5126,
			"count":5420,
			"max":[
				0.9125185012817383,
				0.8352965116500854,
				0.8324642777442932
			],
			"min":[
				-0.8898394703865051,
				-0.8552691340446472,
				-0.9111636281013489
			],
			"type":"VEC3"
		},
		{
			"bufferView":1,
			"componentType":5126,
			"count":5420,
			"type":"VEC3"
		},
		{
			"bufferView":2,
			"componentType":5126,
			"count":5420,
			"type":"VEC2"
		},
		{
			"bufferView":3,
			"componentType":5123,
			"count":8130,
			"type":"SCALAR"
		},
		{
			"bufferView":4,
			"componentType":5126,
			"count":108,
			"max":[
				0.24466168880462646,
				0.5324110984802246,
				0.5506120324134827
			],
			"min":[
				-0.271014541387558,
				0.2192891389131546,
				0.20861084759235382
			],
			"type":"VEC3"
		},
		{
			"bufferView":5,
			"componentType":5126,
			"count":108,
			"type":"VEC3"
		},
		{
			"bufferView":6,
			"componentType":5126,
			"count":108,
			"type":"VEC2"
		},
		{
			"bufferView":7,
			"componentType":5123,
			"count":162,
			"type":"SCALAR"
		}
	],
	"bufferViews":[
		{
			"buffer":0,
			"byteLength":65040,
			"byteOffset":0,
			"target":34962
		},
		{
			"buffer":0,
			"byteLength":65040,
			"byteOffset":65040,
			"target":34962
		},
		{
			"buffer":0,
			"byteLength":43360,
			"byteOffset":130080,
			"target":34962
		},
		{
			"buffer":0,
			"byteLength":16260,
			"byteOffset":173440,
			"target":34963
		},
		{
			"buffer":0,
			"byteLength":1296,
			"byteOffset":189700,
			"target":34962
		},
		{
			"buffer":0,
			"byteLength":1296,
			"byteOffset":190996,
			"target":34962
		},
		{
			"buffer":0,
			"byteLength":864,
			"byteOffset":192292,
			"target":34962
		},
		{
			"buffer":0,
			"byteLength":324,
			"byteOffset":193156,
			"target":34963
		}
	],
	"samplers":[
		{
			"magFilter":9729,
			"minFilter":9987
		}
	],
	"buffers":[
		{
			"byteLength":193480,
			"uri":"geode.bin"
		}
	]
}
