{
	"asset":{
		"generator":"Khronos glTF Blender I/O v4.3.47",
		"version":"2.0"
	},
	"extensionsUsed":[
		"EXT_texture_webp"
	],
	"extensionsRequired":[
		"EXT_texture_webp"
	],
	"scene":0,
	"scenes":[
		{
			"name":"Scene",
			"nodes":[
				0
			]
		}
	],
	"nodes":[
		{
			"mesh":0,
			"name":"Circle.001",
			"translation":[
				2.745205879211426,
				0,
				0
			]
		}
	],
	"materials":[
		{
			"doubleSided":true,
			"name":"Material.003",
			"pbrMetallicRoughness":{
				"baseColorTexture":{
					"index":0
				},
				"metallicFactor":0
			}
		},
		{
			"doubleSided":true,
			"name":"Material.002",
			"pbrMetallicRoughness":{
				"baseColorTexture":{
					"index":1
				},
				"metallicFactor":0,
				"roughnessFactor":0.5
			}
		},
		{
			"doubleSided":true,
			"name":"Material.004",
			"pbrMetallicRoughness":{
				"baseColorTexture":{
					"index":2
				},
				"metallicFactor":0
			}
		},
		{
			"doubleSided":true,
			"name":"Material.005",
			"pbrMetallicRoughness":{
				"baseColorTexture":{
					"index":3
				},
				"metallicFactor":0,
				"roughnessFactor":0.5
			}
		},
		{
			"doubleSided":true,
			"name":"Material.001",
			"pbrMetallicRoughness":{
				"baseColorTexture":{
					"index":4
				},
				"metallicFactor":0,
				"roughnessFactor":0.5
			}
		}
	],
	"meshes":[
		{
			"name":"Circle.001",
			"primitives":[
				{
					"attributes":{
						"POSITION":0,
						"NORMAL":1,
						"TEXCOORD_0":2
					},
					"indices":3,
					"material":0
				},
				{
					"attributes":{
						"POSITION":4,
						"NORMAL":5,
						"TEXCOORD_0":6
					},
					"indices":3,
					"material":1
				},
				{
					"attributes":{
						"POSITION":7,
						"NORMAL":8,
						"TEXCOORD_0":9
					},
					"indices":3,
					"material":2
				},
				{
					"attributes":{
						"POSITION":10,
						"NORMAL":11,
						"TEXCOORD_0":12
					},
					"indices":3,
					"material":3
				},
				{
					"attributes":{
						"POSITION":13,
						"NORMAL":14,
						"TEXCOORD_0":15
					},
					"indices":16,
					"material":4
				}
			]
		}
	],
	"textures":[
		{
			"sampler":0,
			"source":0
		},
		{
			"sampler":0,
			"source":0
		},
		{
			"sampler":0,
			"source":0
		},
		{
			"sampler":0,
			"source":0
		},
		{
			"extensions":{
				"EXT_texture_webp":{
					"source":1
				}
			},
			"sampler":0
		}
	],
	"images":[
		{
			"mimeType":"image/png",
			"name":"uploads_files_3523647_shapespark-low-poly-plants-kit_0",
			"uri":"uploads_files_3523647_shapespark-low-poly-plants-kit_0.png"
		},
		{
			"mimeType":"image/webp",
			"name":"mannequin",
			"uri":"mannequin.webp"
		}
	],
	"accessors":[
		{
			"bufferView":0,
			"componentType":5126,
			"count":29,
			"max":[
				-1.3359959125518799,
				2.015873908996582,
				0.0872524231672287
			],
			"min":[
				-1.4822216033935547,
				-0.1076345443725586,
				-0.05181633681058884
			],
			"type":"VEC3"
		},
		{
			"bufferView":1,
			"componentType":5126,
			"count":29,
			"type":"VEC3"
		},
		{
			"bufferView":2,
			"componentType":5126,
			"count":29,
			"type":"VEC2"
		},
		{
			"bufferView":3,
			"componentType":5123,
			"count":54,
			"type":"SCALAR"
		},
		{
			"bufferView":4,
			"componentType":5126,
			"count":29,
			"max":[
				-4.081201553344727,
				2.015873908996582,
				0.0872524231672287
			],
			"min":[
				-4.2274274826049805,
				-0.1076345443725586,
				-0.05181633681058884
			],
			"type":"VEC3"
		},
		{
			"bufferView":5,
			"componentType":5126,
			"count":29,
			"type":"VEC3"
		},
		{
			"bufferView":6,
			"componentType":5126,
			"count":29,
			"type":"VEC2"
		},
		{
			"bufferView":7,
			"componentType":5126,
			"count":29,
			"max":[
				-1.308562994003296,
				1.809530258178711,
				0.46241825819015503
			],
			"min":[
				-1.5096547603607178,
				1.6173701286315918,
				-0.5029920339584351
			],
			"type":"VEC3"
		},
		{
			"bufferView":8,
			"componentType":5126,
			"count":29,
			"type":"VEC3"
		},
		{
			"bufferView":9,
			"componentType":5126,
			"count":29,
			"type":"VEC2"
		},
		{
			"bufferView":10,
			"componentType":5126,
			"count":29,
			"max":[
				-4.050816059112549,
				1.809530258178711,
				0.46241825819015503
			],
			"min":[
				-4.2578125,
				1.6173701286315918,
				-0.5029920339584351
			],
			"type":"VEC3"
		},
		{
			"bufferView":11,
			"componentType":5126,
			"count":29,
			"type":"VEC3"
		},
		{
			"bufferView":12,
			"componentType":5126,
			"count":29,
			"type":"VEC2"
		},
		{
			"bufferView":13,
			"componentType":5126,
			"count":160,
			"max":[
				-1.003093957901001,
				0.07458848506212234,
				0.27623051404953003
			],
			"min":[
				-4.503269195556641,
				0,
				-0.2500683069229126
			],
			"type":"VEC3"
		},
		{
			"bufferView":14,
			"componentType":5126,
			"count":160,
			"type":"VEC3"
		},
		{
			"bufferView":15,
			"componentType":5126,
			"count":160,
			"type":"VEC2"
		},
		{
			"bufferView":16,
			"componentType":5123,
			"count":420,
			"type":"SCALAR"
		}
	],
	"bufferViews":[
		{
			"buffer":0,
			"byteLength":348,
			"byteOffset":0,
			"target":34962
		},
		{
			"buffer":0,
			"byteLength":348,
			"byteOffset":348,
			"target":34962
		},
		{
			"buffer":0,
			"byteLength":232,
			"byteOffset":696,
			"target":34962
		},
		{
			"buffer":0,
			"byteLength":108,
			"byteOffset":928,
			"target":34963
		},
		{
			"buffer":0,
			"byteLength":348,
			"byteOffset":1036,
			"target":34962
		},
		{
			"buffer":0,
			"byteLength":348,
			"byteOffset":1384,
			"target":34962
		},
		{
			"buffer":0,
			"byteLength":232,
			"byteOffset":1732,
			"target":34962
		},
		{
			"buffer":0,
			"byteLength":348,
			"byteOffset":1964,
			"target":34962
		},
		{
			"buffer":0,
			"byteLength":348,
			"byteOffset":2312,
			"target":34962
		},
		{
			"buffer":0,
			"byteLength":232,
			"byteOffset":2660,
			"target":34962
		},
		{
			"buffer":0,
			"byteLength":348,
			"byteOffset":2892,
			"target":34962
		},
		{
			"buffer":0,
			"byteLength":348,
			"byteOffset":3240,
			"target":34962
		},
		{
			"buffer":0,
			"byteLength":232,
			"byteOffset":3588,
			"target":34962
		},
		{
			"buffer":0,
			"byteLength":1920,
			"byteOffset":3820,
			"target":34962
		},
		{
			"buffer":0,
			"byteLength":1920,
			"byteOffset":5740,
			"target":34962
		},
		{
			"buffer":0,
			"byteLength":1280,
			"byteOffset":7660,
			"target":34962
		},
		{
			"buffer":0,
			"byteLength":840,
			"byteOffset":8940,
			"target":34963
		}
	],
	"samplers":[
		{
			"magFilter":9729,
			"minFilter":9987
		}
	],
	"buffers":[
		{
			"byteLength":9780,
			"uri":"bridge%20segment.bin"
		}
	]
}
