{
	"asset":{
		"generator":"Khronos glTF Blender I/O v4.3.47",
		"version":"2.0"
	},
	"extensionsUsed":[
		"EXT_texture_webp"
	],
	"extensionsRequired":[
		"EXT_texture_webp"
	],
	"scene":0,
	"scenes":[
		{
			"name":"Scene",
			"nodes":[
				0,
				1,
				2
			]
		}
	],
	"nodes":[
		{
			"mesh":0,
			"name":"Cube",
			"rotation":[
				-0.39191991090774536,
				-0.5889437198638916,
				-0.39098599553108215,
				0.5887902975082397
			],
			"scale":[
				0.2651788890361786,
				0.02326274663209915,
				0.024061361327767372
			],
			"translation":[
				0.21591533720493317,
				0.6149393916130066,
				-0.003617987036705017
			]
		},
		{
			"mesh":1,
			"name":"Plane",
			"scale":[
				0.3436133861541748,
				0.3436133861541748,
				0.3436133861541748
			]
		},
		{
			"name":"Empty",
			"scale":[
				0.6514915227890015,
				0.6514915227890015,
				0.6514915227890015
			],
			"translation":[
				-1.3274675607681274,
				0.6575993895530701,
				0.642566442489624
			]
		}
	],
	"materials":[
		{
			"doubleSided":true,
			"name":"Material.001",
			"normalTexture":{
				"index":0
			},
			"pbrMetallicRoughness":{
				"baseColorTexture":{
					"index":1
				},
				"metallicFactor":0.23188406229019165
			}
		},
		{
			"doubleSided":true,
			"name":"Material.002",
			"normalTexture":{
				"index":2
			},
			"pbrMetallicRoughness":{
				"baseColorTexture":{
					"index":3
				},
				"metallicFactor":0.19565215706825256,
				"roughnessFactor":0.49275365471839905
			}
		},
		{
			"doubleSided":true,
			"name":"Material.003",
			"normalTexture":{
				"index":4
			},
			"pbrMetallicRoughness":{
				"baseColorTexture":{
					"index":5
				},
				"metallicFactor":0.1304347813129425,
				"roughnessFactor":0.8405799865722656
			}
		}
	],
	"meshes":[
		{
			"name":"Cube.003",
			"primitives":[
				{
					"attributes":{
						"POSITION":0,
						"NORMAL":1,
						"TEXCOORD_0":2
					},
					"indices":3,
					"material":0
				}
			]
		},
		{
			"name":"Plane",
			"primitives":[
				{
					"attributes":{
						"POSITION":4,
						"NORMAL":5,
						"TEXCOORD_0":6
					},
					"indices":7,
					"material":1
				},
				{
					"attributes":{
						"POSITION":8,
						"NORMAL":9,
						"TEXCOORD_0":10
					},
					"indices":11,
					"material":0
				},
				{
					"attributes":{
						"POSITION":12,
						"NORMAL":13,
						"TEXCOORD_0":14
					},
					"indices":15,
					"material":2
				}
			]
		}
	],
	"textures":[
		{
			"extensions":{
				"EXT_texture_webp":{
					"source":0
				}
			},
			"sampler":0
		},
		{
			"extensions":{
				"EXT_texture_webp":{
					"source":1
				}
			},
			"sampler":0
		},
		{
			"sampler":0,
			"source":2
		},
		{
			"sampler":0,
			"source":3
		},
		{
			"sampler":0,
			"source":2
		},
		{
			"sampler":0,
			"source":4
		}
	],
	"images":[
		{
			"mimeType":"image/webp",
			"name":"mannequinnormal",
			"uri":"mannequinnormal.webp"
		},
		{
			"mimeType":"image/webp",
			"name":"mannequin",
			"uri":"mannequin.webp"
		},
		{
			"mimeType":"image/png",
			"name":"canvasnormal",
			"uri":"canvasnormal.png"
		},
		{
			"mimeType":"image/png",
			"name":"canvas",
			"uri":"canvas.png"
		},
		{
			"mimeType":"image/png",
			"name":"painting_lit",
			"uri":"painting_lit.png"
		}
	],
	"accessors":[
		{
			"bufferView":0,
			"componentType":5126,
			"count":96,
			"max":[
				1,
				2.379654884338379,
				27.00242042541504
			],
			"min":[
				-1,
				-27.336177825927734,
				-25.370464324951172
			],
			"type":"VEC3"
		},
		{
			"bufferView":1,
			"componentType":5126,
			"count":96,
			"type":"VEC3"
		},
		{
			"bufferView":2,
			"componentType":5126,
			"count":96,
			"type":"VEC2"
		},
		{
			"bufferView":3,
			"componentType":5123,
			"count":144,
			"type":"SCALAR"
		},
		{
			"bufferView":4,
			"componentType":5126,
			"count":36,
			"max":[
				0.6731199622154236,
				3.6409099102020264,
				0.9127541184425354
			],
			"min":[
				0.04747980087995529,
				1.8513610363006592,
				-0.9127541184425354
			],
			"type":"VEC3"
		},
		{
			"bufferView":5,
			"componentType":5126,
			"count":36,
			"type":"VEC3"
		},
		{
			"bufferView":6,
			"componentType":5126,
			"count":36,
			"type":"VEC2"
		},
		{
			"bufferView":7,
			"componentType":5123,
			"count":72,
			"type":"SCALAR"
		},
		{
			"bufferView":8,
			"componentType":5126,
			"count":20,
			"max":[
				0.5643789172172546,
				3.515092134475708,
				0.8054952025413513
			],
			"min":[
				0.07708647102117538,
				1.9544527530670166,
				-0.8054952025413513
			],
			"type":"VEC3"
		},
		{
			"bufferView":9,
			"componentType":5126,
			"count":20,
			"type":"VEC3"
		},
		{
			"bufferView":10,
			"componentType":5126,
			"count":20,
			"type":"VEC2"
		},
		{
			"bufferView":11,
			"componentType":5123,
			"count":30,
			"type":"SCALAR"
		},
		{
			"bufferView":12,
			"componentType":5126,
			"count":4,
			"max":[
				0.6731199622154236,
				3.6409099102020264,
				0.9127541184425354
			],
			"min":[
				0.1692250669002533,
				1.8863246440887451,
				-0.9127541184425354
			],
			"type":"VEC3"
		},
		{
			"bufferView":13,
			"componentType":5126,
			"count":4,
			"type":"VEC3"
		},
		{
			"bufferView":14,
			"componentType":5126,
			"count":4,
			"type":"VEC2"
		},
		{
			"bufferView":15,
			"componentType":5123,
			"count":6,
			"type":"SCALAR"
		}
	],
	"bufferViews":[
		{
			"buffer":0,
			"byteLength":1152,
			"byteOffset":0,
			"target":34962
		},
		{
			"buffer":0,
			"byteLength":1152,
			"byteOffset":1152,
			"target":34962
		},
		{
			"buffer":0,
			"byteLength":768,
			"byteOffset":2304,
			"target":34962
		},
		{
			"buffer":0,
			"byteLength":288,
			"byteOffset":3072,
			"target":34963
		},
		{
			"buffer":0,
			"byteLength":432,
			"byteOffset":3360,
			"target":34962
		},
		{
			"buffer":0,
			"byteLength":432,
			"byteOffset":3792,
			"target":34962
		},
		{
			"buffer":0,
			"byteLength":288,
			"byteOffset":4224,
			"target":34962
		},
		{
			"buffer":0,
			"byteLength":144,
			"byteOffset":4512,
			"target":34963
		},
		{
			"buffer":0,
			"byteLength":240,
			"byteOffset":4656,
			"target":34962
		},
		{
			"buffer":0,
			"byteLength":240,
			"byteOffset":4896,
			"target":34962
		},
		{
			"buffer":0,
			"byteLength":160,
			"byteOffset":5136,
			"target":34962
		},
		{
			"buffer":0,
			"byteLength":60,
			"byteOffset":5296,
			"target":34963
		},
		{
			"buffer":0,
			"byteLength":48,
			"byteOffset":5356,
			"target":34962
		},
		{
			"buffer":0,
			"byteLength":48,
			"byteOffset":5404,
			"target":34962
		},
		{
			"buffer":0,
			"byteLength":32,
			"byteOffset":5452,
			"target":34962
		},
		{
			"buffer":0,
			"byteLength":12,
			"byteOffset":5484,
			"target":34963
		}
	],
	"samplers":[
		{
			"magFilter":9729,
			"minFilter":9987
		}
	],
	"buffers":[
		{
			"byteLength":5496,
			"uri":"painting.bin"
		}
	]
}
