{
	"asset":{
		"generator":"Khronos glTF Blender I/O v4.3.47",
		"version":"2.0"
	},
	"scene":0,
	"scenes":[
		{
			"name":"Scene",
			"nodes":[
				0,
				1
			]
		}
	],
	"nodes":[
		{
			"mesh":0,
			"name":"Circle"
		},
		{
			"mesh":1,
			"name":"Cube.001",
			"scale":[
				0.5037943124771118,
				0.5037943124771118,
				0.5037943124771118
			],
			"translation":[
				0,
				8.79635238647461,
				-2.2563652992248535
			]
		}
	],
	"materials":[
		{
			"doubleSided":true,
			"name":"Material",
			"pbrMetallicRoughness":{
				"baseColorTexture":{
					"index":0
				},
				"metallicFactor":0.11235955357551575,
				"roughnessFactor":0.9101123809814453
			}
		},
		{
			"doubleSided":true,
			"name":"Material.001",
			"pbrMetallicRoughness":{
				"baseColorTexture":{
					"index":1
				},
				"metallicFactor":0.12359550595283508,
				"roughnessFactor":0.814606785774231
			}
		}
	],
	"meshes":[
		{
			"name":"Circle.001",
			"primitives":[
				{
					"attributes":{
						"POSITION":0,
						"NORMAL":1,
						"TEXCOORD_0":2
					},
					"indices":3,
					"material":0
				}
			]
		},
		{
			"name":"Cube.003",
			"primitives":[
				{
					"attributes":{
						"POSITION":4,
						"NORMAL":5,
						"TEXCOORD_0":6
					},
					"indices":7,
					"material":1
				}
			]
		}
	],
	"textures":[
		{
			"sampler":0,
			"source":0
		},
		{
			"sampler":0,
			"source":1
		}
	],
	"images":[
		{
			"mimeType":"image/jpeg",
			"name":"stone wall best",
			"uri":"stone%20wall%20best.jpg"
		},
		{
			"mimeType":"image/jpeg",
			"name":"stone",
			"uri":"stone.jpg"
		}
	],
	"accessors":[
		{
			"bufferView":0,
			"componentType":5126,
			"count":1781,
			"max":[
				2.440000057220459,
				11.335482597351074,
				2.440000057220459
			],
			"min":[
				-2.440000057220459,
				-1.3414956923085697e-09,
				-2.440000057220459
			],
			"type":"VEC3"
		},
		{
			"bufferView":1,
			"componentType":5126,
			"count":1781,
			"type":"VEC3"
		},
		{
			"bufferView":2,
			"componentType":5126,
			"count":1781,
			"type":"VEC2"
		},
		{
			"bufferView":3,
			"componentType":5123,
			"count":5676,
			"type":"SCALAR"
		},
		{
			"bufferView":4,
			"componentType":5126,
			"count":596,
			"max":[
				2.263762950897217,
				1.0963541269302368,
				1.4286624193191528
			],
			"min":[
				-2.263762950897217,
				-18.02268409729004,
				-0.5231935977935791
			],
			"type":"VEC3"
		},
		{
			"bufferView":5,
			"componentType":5126,
			"count":596,
			"type":"VEC3"
		},
		{
			"bufferView":6,
			"componentType":5126,
			"count":596,
			"type":"VEC2"
		},
		{
			"bufferView":7,
			"componentType":5123,
			"count":960,
			"type":"SCALAR"
		}
	],
	"bufferViews":[
		{
			"buffer":0,
			"byteLength":21372,
			"byteOffset":0,
			"target":34962
		},
		{
			"buffer":0,
			"byteLength":21372,
			"byteOffset":21372,
			"target":34962
		},
		{
			"buffer":0,
			"byteLength":14248,
			"byteOffset":42744,
			"target":34962
		},
		{
			"buffer":0,
			"byteLength":11352,
			"byteOffset":56992,
			"target":34963
		},
		{
			"buffer":0,
			"byteLength":7152,
			"byteOffset":68344,
			"target":34962
		},
		{
			"buffer":0,
			"byteLength":7152,
			"byteOffset":75496,
			"target":34962
		},
		{
			"buffer":0,
			"byteLength":4768,
			"byteOffset":82648,
			"target":34962
		},
		{
			"buffer":0,
			"byteLength":1920,
			"byteOffset":87416,
			"target":34963
		}
	],
	"samplers":[
		{
			"magFilter":9729,
			"minFilter":9987
		}
	],
	"buffers":[
		{
			"byteLength":89336,
			"uri":"real%20tower.bin"
		}
	]
}
