{"buffers":[{"uri":"floor plan v1 v2.gltf.bin","byteLength":57912}],"asset":{"version":"2.0","generator":"gltfpack 0.16"},"bufferViews":[{"buffer":0,"byteOffset":0,"byteLength":24156,"byteStride":12,"target":34962},{"buffer":0,"byteOffset":24156,"byteLength":24156,"byteStride":12,"target":34962},{"buffer":0,"byteOffset":48312,"byteLength":9600,"target":34963}],"accessors":[{"bufferView":0,"byteOffset":0,"componentType":5126,"count":2013,"type":"VEC3","min":[-0.00079374999,-0.00079374999,-0.00079374999],"max":[0.0420687497,0.0896937475,0.0239888877]},{"bufferView":1,"byteOffset":0,"componentType":5126,"count":2013,"type":"VEC3"},{"bufferView":2,"byteOffset":0,"componentType":5123,"count":4800,"type":"SCALAR"}],"materials":[{"pbrMetallicRoughness":{"baseColorFactor":[0.627451003,0.627451003,0.627451003,1],"metallicFactor":0,"roughnessFactor":0},"doubleSided":true}],"meshes":[{"primitives":[{"attributes":{"POSITION":0,"NORMAL":1},"mode":4,"indices":2,"material":0}]}],"nodes":[{"mesh":0},{"children":[0]}],"scenes":[{"nodes":[1]}]}