{
	"asset":{
		"generator":"Khronos glTF Blender I/O v4.3.47",
		"version":"2.0"
	},
	"scene":0,
	"scenes":[
		{
			"name":"Scene",
			"nodes":[
				0,
				1,
				2
			]
		}
	],
	"nodes":[
		{
			"mesh":0,
			"name":"Cube"
		},
		{
			"mesh":1,
			"name":"Cube.001",
			"scale":[
				0.8491851687431335,
				0.6637596487998962,
				0.8233931660652161
			],
			"translation":[
				0,
				0.47450578212738037,
				0
			]
		},
		{
			"mesh":2,
			"name":"Cube.002"
		}
	],
	"materials":[
		{
			"doubleSided":true,
			"name":"Material.001",
			"pbrMetallicRoughness":{
				"baseColorFactor":[
					1,
					0.9719964265823364,
					0.5127365589141846,
					1
				],
				"metallicFactor":0
			}
		},
		{
			"doubleSided":true,
			"name":"Material.002",
			"pbrMetallicRoughness":{
				"baseColorFactor":[
					0.018601292744278908,
					0.011835789307951927,
					0.007684066891670227,
					1
				],
				"metallicFactor":0.1666666716337204,
				"roughnessFactor":0.8492063283920288
			}
		}
	],
	"meshes":[
		{
			"name":"Cube",
			"primitives":[
				{
					"attributes":{
						"POSITION":0,
						"NORMAL":1,
						"TEXCOORD_0":2
					},
					"indices":3,
					"material":0
				}
			]
		},
		{
			"name":"Cube.001",
			"primitives":[
				{
					"attributes":{
						"POSITION":4,
						"NORMAL":5
					},
					"indices":6,
					"material":1
				}
			]
		},
		{
			"name":"Cube.002",
			"primitives":[
				{
					"attributes":{
						"POSITION":7,
						"NORMAL":8,
						"TEXCOORD_0":9
					},
					"indices":10,
					"material":1
				}
			]
		}
	],
	"accessors":[
		{
			"bufferView":0,
			"componentType":5126,
			"count":848,
			"max":[
				0.8395062685012817,
				0.5063717365264893,
				0.8395062685012817
			],
			"min":[
				-0.8395062685012817,
				-8.404451534715918e-08,
				-0.8395062685012817
			],
			"type":"VEC3"
		},
		{
			"bufferView":1,
			"componentType":5126,
			"count":848,
			"type":"VEC3"
		},
		{
			"bufferView":2,
			"componentType":5126,
			"count":848,
			"type":"VEC2"
		},
		{
			"bufferView":3,
			"componentType":5123,
			"count":1272,
			"type":"SCALAR"
		},
		{
			"bufferView":4,
			"componentType":5126,
			"count":1208,
			"max":[
				0.23510660231113434,
				0.15564313530921936,
				0.2415452003479004
			],
			"min":[
				-0.2371598333120346,
				-0.1520058810710907,
				-0.24415144324302673
			],
			"type":"VEC3"
		},
		{
			"bufferView":5,
			"componentType":5126,
			"count":1208,
			"type":"VEC3"
		},
		{
			"bufferView":6,
			"componentType":5123,
			"count":1812,
			"type":"SCALAR"
		},
		{
			"bufferView":7,
			"componentType":5126,
			"count":250,
			"max":[
				0.9707096219062805,
				0.08482259511947632,
				0.9702513217926025
			],
			"min":[
				-0.9707096219062805,
				-9.443632364991572e-08,
				-0.9702514410018921
			],
			"type":"VEC3"
		},
		{
			"bufferView":8,
			"componentType":5126,
			"count":250,
			"type":"VEC3"
		},
		{
			"bufferView":9,
			"componentType":5126,
			"count":250,
			"type":"VEC2"
		},
		{
			"bufferView":10,
			"componentType":5123,
			"count":396,
			"type":"SCALAR"
		}
	],
	"bufferViews":[
		{
			"buffer":0,
			"byteLength":10176,
			"byteOffset":0,
			"target":34962
		},
		{
			"buffer":0,
			"byteLength":10176,
			"byteOffset":10176,
			"target":34962
		},
		{
			"buffer":0,
			"byteLength":6784,
			"byteOffset":20352,
			"target":34962
		},
		{
			"buffer":0,
			"byteLength":2544,
			"byteOffset":27136,
			"target":34963
		},
		{
			"buffer":0,
			"byteLength":14496,
			"byteOffset":29680,
			"target":34962
		},
		{
			"buffer":0,
			"byteLength":14496,
			"byteOffset":44176,
			"target":34962
		},
		{
			"buffer":0,
			"byteLength":3624,
			"byteOffset":58672,
			"target":34963
		},
		{
			"buffer":0,
			"byteLength":3000,
			"byteOffset":62296,
			"target":34962
		},
		{
			"buffer":0,
			"byteLength":3000,
			"byteOffset":65296,
			"target":34962
		},
		{
			"buffer":0,
			"byteLength":2000,
			"byteOffset":68296,
			"target":34962
		},
		{
			"buffer":0,
			"byteLength":792,
			"byteOffset":70296,
			"target":34963
		}
	],
	"buffers":[
		{
			"byteLength":71088,
			"uri":"light.bin"
		}
	]
}
