{
	"asset":{
		"generator":"Khronos glTF Blender I/O v4.3.47",
		"version":"2.0"
	},
	"scene":0,
	"scenes":[
		{
			"name":"Scene",
			"nodes":[
				0
			]
		}
	],
	"nodes":[
		{
			"mesh":0,
			"name":"chair",
			"rotation":[
				0,
				0,
				-0.9999808669090271,
				0.0061920927837491035
			],
			"scale":[
				0.009999998845160007,
				0.009999998845160007,
				0.009999999776482582
			],
			"translation":[
				0,
				0.3599589467048645,
				0
			]
		}
	],
	"materials":[
		{
			"doubleSided":true,
			"name":"Material.001",
			"pbrMetallicRoughness":{
				"baseColorFactor":[
					0.800000011920929,
					0.800000011920929,
					0.800000011920929,
					1
				],
				"metallicFactor":0,
				"roughnessFactor":0.5
			}
		},
		{
			"doubleSided":true,
			"name":"Material.002",
			"pbrMetallicRoughness":{
				"baseColorTexture":{
					"index":0
				},
				"metallicFactor":0,
				"roughnessFactor":0.5
			}
		}
	],
	"meshes":[
		{
			"name":"chair",
			"primitives":[
				{
					"attributes":{
						"POSITION":0,
						"NORMAL":1,
						"TEXCOORD_0":2
					},
					"indices":3,
					"material":0
				},
				{
					"attributes":{
						"POSITION":4,
						"NORMAL":5,
						"TEXCOORD_0":6
					},
					"indices":7,
					"material":1
				}
			]
		}
	],
	"textures":[
		{
			"sampler":0,
			"source":0
		}
	],
	"images":[
		{
			"mimeType":"image/jpeg",
			"name":"wooden floor",
			"uri":"wooden%20floor.jpg"
		}
	],
	"accessors":[
		{
			"bufferView":0,
			"componentType":5126,
			"count":3,
			"max":[
				11.308700561523438,
				15.470760345458984,
				-26.01441764831543
			],
			"min":[
				7.781243801116943,
				14.729470252990723,
				-26.01441764831543
			],
			"type":"VEC3"
		},
		{
			"bufferView":1,
			"componentType":5126,
			"count":3,
			"type":"VEC3"
		},
		{
			"bufferView":2,
			"componentType":5126,
			"count":3,
			"type":"VEC2"
		},
		{
			"bufferView":3,
			"componentType":5123,
			"count":3,
			"type":"SCALAR"
		},
		{
			"bufferView":4,
			"componentType":5126,
			"count":751,
			"max":[
				30.405048370361328,
				35.98655319213867,
				-6.103396415710449
			],
			"min":[
				6.521380424499512,
				-14.978955268859863,
				-34.20038986206055
			],
			"type":"VEC3"
		},
		{
			"bufferView":5,
			"componentType":5126,
			"count":751,
			"type":"VEC3"
		},
		{
			"bufferView":6,
			"componentType":5126,
			"count":751,
			"type":"VEC2"
		},
		{
			"bufferView":7,
			"componentType":5123,
			"count":1485,
			"type":"SCALAR"
		}
	],
	"bufferViews":[
		{
			"buffer":0,
			"byteLength":36,
			"byteOffset":0,
			"target":34962
		},
		{
			"buffer":0,
			"byteLength":36,
			"byteOffset":36,
			"target":34962
		},
		{
			"buffer":0,
			"byteLength":24,
			"byteOffset":72,
			"target":34962
		},
		{
			"buffer":0,
			"byteLength":6,
			"byteOffset":96,
			"target":34963
		},
		{
			"buffer":0,
			"byteLength":9012,
			"byteOffset":104,
			"target":34962
		},
		{
			"buffer":0,
			"byteLength":9012,
			"byteOffset":9116,
			"target":34962
		},
		{
			"buffer":0,
			"byteLength":6008,
			"byteOffset":18128,
			"target":34962
		},
		{
			"buffer":0,
			"byteLength":2970,
			"byteOffset":24136,
			"target":34963
		}
	],
	"samplers":[
		{
			"magFilter":9729,
			"minFilter":9987
		}
	],
	"buffers":[
		{
			"byteLength":27108,
			"uri":"chair.bin"
		}
	]
}
