{
	"asset":{
		"generator":"Khronos glTF Blender I/O v4.3.47",
		"version":"2.0"
	},
	"scene":0,
	"scenes":[
		{
			"name":"Scene",
			"nodes":[
				0,
				1,
				2,
				3,
				4,
				5
			]
		}
	],
	"nodes":[
		{
			"mesh":0,
			"name":"Icosphere"
		},
		{
			"mesh":1,
			"name":"Cylinder"
		},
		{
			"mesh":2,
			"name":"Cylinder.001"
		},
		{
			"mesh":3,
			"name":"Circle"
		},
		{
			"mesh":4,
			"name":"Cube"
		},
		{
			"mesh":5,
			"name":"Cube.001"
		}
	],
	"materials":[
		{
			"doubleSided":true,
			"name":"Material.001",
			"normalTexture":{
				"index":0
			},
			"pbrMetallicRoughness":{
				"baseColorTexture":{
					"index":1
				},
				"metallicFactor":0
			}
		},
		{
			"doubleSided":true,
			"name":"Material",
			"pbrMetallicRoughness":{
				"baseColorTexture":{
					"index":2
				},
				"metallicFactor":0.5981308221817017,
				"roughnessFactor":0.5
			}
		},
		{
			"alphaMode":"BLEND",
			"doubleSided":true,
			"name":"Material.002",
			"pbrMetallicRoughness":{
				"baseColorFactor":[
					0.18562376499176025,
					0.7152961492538452,
					0.8002041578292847,
					0.2698412537574768
				],
				"metallicFactor":0.6507936716079712,
				"roughnessFactor":0.0634920597076416
			}
		},
		{
			"alphaMode":"BLEND",
			"name":"Material.003",
			"pbrMetallicRoughness":{
				"baseColorTexture":{
					"index":3
				},
				"metallicFactor":0,
				"roughnessFactor":0.5
			}
		},
		{
			"doubleSided":true,
			"name":"Material.005",
			"pbrMetallicRoughness":{
				"baseColorFactor":[
					0.06019771844148636,
					0.06019771844148636,
					0.06019771844148636,
					1
				],
				"metallicFactor":0.6141732335090637,
				"roughnessFactor":0.5
			}
		},
		{
			"doubleSided":true,
			"emissiveFactor":[
				0.29999998211860657,
				0,
				0.0004155976100841084
			],
			"name":"Material.006",
			"pbrMetallicRoughness":{
				"baseColorFactor":[
					0.8006537556648254,
					0,
					0.005210643168538809,
					1
				],
				"metallicFactor":0.3700787425041199,
				"roughnessFactor":0.5590550899505615
			}
		}
	],
	"meshes":[
		{
			"name":"Icosphere",
			"primitives":[
				{
					"attributes":{
						"POSITION":0,
						"NORMAL":1,
						"TEXCOORD_0":2
					},
					"indices":3,
					"material":0
				}
			]
		},
		{
			"name":"Cylinder",
			"primitives":[
				{
					"attributes":{
						"POSITION":4,
						"NORMAL":5,
						"TEXCOORD_0":6
					},
					"indices":7,
					"material":1
				}
			]
		},
		{
			"name":"Cylinder.001",
			"primitives":[
				{
					"attributes":{
						"POSITION":8,
						"NORMAL":9,
						"TEXCOORD_0":10
					},
					"indices":11,
					"material":1
				},
				{
					"attributes":{
						"POSITION":12,
						"NORMAL":13,
						"TEXCOORD_0":14
					},
					"indices":15,
					"material":2
				}
			]
		},
		{
			"name":"Circle",
			"primitives":[
				{
					"attributes":{
						"POSITION":16,
						"NORMAL":17,
						"TEXCOORD_0":18
					},
					"indices":19,
					"material":3
				},
				{
					"attributes":{
						"POSITION":20,
						"NORMAL":21,
						"TEXCOORD_0":22
					},
					"indices":23,
					"material":1
				}
			]
		},
		{
			"name":"Cube",
			"primitives":[
				{
					"attributes":{
						"POSITION":24,
						"NORMAL":25,
						"TEXCOORD_0":26
					},
					"indices":27,
					"material":1
				},
				{
					"attributes":{
						"POSITION":28,
						"NORMAL":29,
						"TEXCOORD_0":30
					},
					"indices":31,
					"material":4
				}
			]
		},
		{
			"name":"Cube.001",
			"primitives":[
				{
					"attributes":{
						"POSITION":32,
						"NORMAL":33,
						"TEXCOORD_0":34
					},
					"indices":35,
					"material":5
				}
			]
		}
	],
	"textures":[
		{
			"sampler":0,
			"source":0
		},
		{
			"sampler":0,
			"source":1
		},
		{
			"sampler":0,
			"source":2
		},
		{
			"sampler":0,
			"source":3
		}
	],
	"images":[
		{
			"mimeType":"image/jpeg",
			"name":"real moon displacement",
			"uri":"real%20moon%20displacement.jpg"
		},
		{
			"mimeType":"image/jpeg",
			"name":"real moon",
			"uri":"real%20moon.jpg"
		},
		{
			"mimeType":"image/jpeg",
			"name":"diamond plate",
			"uri":"diamond%20plate.jpg"
		},
		{
			"mimeType":"image/png",
			"name":"grate",
			"uri":"grate.png"
		}
	],
	"accessors":[
		{
			"bufferView":0,
			"componentType":5126,
			"count":7613,
			"max":[
				22.11754035949707,
				24.166603088378906,
				24.20939064025879
			],
			"min":[
				-22.893733978271484,
				-20.314308166503906,
				-23.31146812438965
			],
			"type":"VEC3"
		},
		{
			"bufferView":1,
			"componentType":5126,
			"count":7613,
			"type":"VEC3"
		},
		{
			"bufferView":2,
			"componentType":5126,
			"count":7613,
			"type":"VEC2"
		},
		{
			"bufferView":3,
			"componentType":5123,
			"count":26928,
			"type":"SCALAR"
		},
		{
			"bufferView":4,
			"componentType":5126,
			"count":384,
			"max":[
				4.095706462860107,
				-11.41052532196045,
				3.6404807567596436
			],
			"min":[
				-3.733705520629883,
				-13.980250358581543,
				-4.188930988311768
			],
			"type":"VEC3"
		},
		{
			"bufferView":5,
			"componentType":5126,
			"count":384,
			"type":"VEC3"
		},
		{
			"bufferView":6,
			"componentType":5126,
			"count":384,
			"type":"VEC2"
		},
		{
			"bufferView":7,
			"componentType":5123,
			"count":768,
			"type":"SCALAR"
		},
		{
			"bufferView":8,
			"componentType":5126,
			"count":378,
			"max":[
				2.1531355381011963,
				-11.17253589630127,
				2.5147948265075684
			],
			"min":[
				-2.6080195903778076,
				-11.41052532196045,
				-2.2463603019714355
			],
			"type":"VEC3"
		},
		{
			"bufferView":9,
			"componentType":5126,
			"count":378,
			"type":"VEC3"
		},
		{
			"bufferView":10,
			"componentType":5126,
			"count":378,
			"type":"VEC2"
		},
		{
			"bufferView":11,
			"componentType":5123,
			"count":726,
			"type":"SCALAR"
		},
		{
			"bufferView":12,
			"componentType":5126,
			"count":34,
			"max":[
				1.9379324913024902,
				-11.302032470703125,
				2.335563898086548
			],
			"min":[
				-2.428788900375366,
				-11.41052532196045,
				-2.0311572551727295
			],
			"type":"VEC3"
		},
		{
			"bufferView":13,
			"componentType":5126,
			"count":34,
			"type":"VEC3"
		},
		{
			"bufferView":14,
			"componentType":5126,
			"count":34,
			"type":"VEC2"
		},
		{
			"bufferView":15,
			"componentType":5123,
			"count":90,
			"type":"SCALAR"
		},
		{
			"bufferView":16,
			"componentType":5126,
			"count":64,
			"max":[
				1.3693898916244507,
				0.14224086701869965,
				1.751624345779419
			],
			"min":[
				-1.3693898916244507,
				0,
				-13.445039749145508
			],
			"type":"VEC3"
		},
		{
			"bufferView":17,
			"componentType":5126,
			"count":64,
			"type":"VEC3"
		},
		{
			"bufferView":18,
			"componentType":5126,
			"count":64,
			"type":"VEC2"
		},
		{
			"bufferView":19,
			"componentType":5123,
			"count":180,
			"type":"SCALAR"
		},
		{
			"bufferView":20,
			"componentType":5126,
			"count":896,
			"max":[
				1.4429807662963867,
				0.21046952903270721,
				1.7844932079315186
			],
			"min":[
				-1.4429807662963867,
				-0.06514519453048706,
				-13.690031051635742
			],
			"type":"VEC3"
		},
		{
			"bufferView":21,
			"componentType":5126,
			"count":896,
			"type":"VEC3"
		},
		{
			"bufferView":22,
			"componentType":5126,
			"count":896,
			"type":"VEC2"
		},
		{
			"bufferView":23,
			"componentType":5123,
			"count":1344,
			"type":"SCALAR"
		},
		{
			"bufferView":24,
			"componentType":5126,
			"count":28,
			"max":[
				0.31771188974380493,
				1.020113468170166,
				1.4205549955368042
			],
			"min":[
				-0.3177119493484497,
				0.11494509875774384,
				1.0527478456497192
			],
			"type":"VEC3"
		},
		{
			"bufferView":25,
			"componentType":5126,
			"count":28,
			"type":"VEC3"
		},
		{
			"bufferView":26,
			"componentType":5126,
			"count":28,
			"type":"VEC2"
		},
		{
			"bufferView":27,
			"componentType":5123,
			"count":54,
			"type":"SCALAR"
		},
		{
			"bufferView":28,
			"componentType":5126,
			"count":20,
			"max":[
				0.13485418260097504,
				0.9967103004455566,
				1.3516101837158203
			],
			"min":[
				-0.1348542422056198,
				0.8009320497512817,
				1.1017738580703735
			],
			"type":"VEC3"
		},
		{
			"bufferView":29,
			"componentType":5126,
			"count":20,
			"type":"VEC3"
		},
		{
			"bufferView":30,
			"componentType":5126,
			"count":20,
			"type":"VEC2"
		},
		{
			"bufferView":31,
			"componentType":5123,
			"count":30,
			"type":"SCALAR"
		},
		{
			"bufferView":32,
			"componentType":5126,
			"count":51,
			"max":[
				0.11261405050754547,
				1.0514835119247437,
				1.3082059621810913
			],
			"min":[
				-0.11261411011219025,
				0.8481683731079102,
				1.0703657865524292
			],
			"type":"VEC3"
		},
		{
			"bufferView":33,
			"componentType":5126,
			"count":51,
			"type":"VEC3"
		},
		{
			"bufferView":34,
			"componentType":5126,
			"count":51,
			"type":"VEC2"
		},
		{
			"bufferView":35,
			"componentType":5123,
			"count":228,
			"type":"SCALAR"
		}
	],
	"bufferViews":[
		{
			"buffer":0,
			"byteLength":91356,
			"byteOffset":0,
			"target":34962
		},
		{
			"buffer":0,
			"byteLength":91356,
			"byteOffset":91356,
			"target":34962
		},
		{
			"buffer":0,
			"byteLength":60904,
			"byteOffset":182712,
			"target":34962
		},
		{
			"buffer":0,
			"byteLength":53856,
			"byteOffset":243616,
			"target":34963
		},
		{
			"buffer":0,
			"byteLength":4608,
			"byteOffset":297472,
			"target":34962
		},
		{
			"buffer":0,
			"byteLength":4608,
			"byteOffset":302080,
			"target":34962
		},
		{
			"buffer":0,
			"byteLength":3072,
			"byteOffset":306688,
			"target":34962
		},
		{
			"buffer":0,
			"byteLength":1536,
			"byteOffset":309760,
			"target":34963
		},
		{
			"buffer":0,
			"byteLength":4536,
			"byteOffset":311296,
			"target":34962
		},
		{
			"buffer":0,
			"byteLength":4536,
			"byteOffset":315832,
			"target":34962
		},
		{
			"buffer":0,
			"byteLength":3024,
			"byteOffset":320368,
			"target":34962
		},
		{
			"buffer":0,
			"byteLength":1452,
			"byteOffset":323392,
			"target":34963
		},
		{
			"buffer":0,
			"byteLength":408,
			"byteOffset":324844,
			"target":34962
		},
		{
			"buffer":0,
			"byteLength":408,
			"byteOffset":325252,
			"target":34962
		},
		{
			"buffer":0,
			"byteLength":272,
			"byteOffset":325660,
			"target":34962
		},
		{
			"buffer":0,
			"byteLength":180,
			"byteOffset":325932,
			"target":34963
		},
		{
			"buffer":0,
			"byteLength":768,
			"byteOffset":326112,
			"target":34962
		},
		{
			"buffer":0,
			"byteLength":768,
			"byteOffset":326880,
			"target":34962
		},
		{
			"buffer":0,
			"byteLength":512,
			"byteOffset":327648,
			"target":34962
		},
		{
			"buffer":0,
			"byteLength":360,
			"byteOffset":328160,
			"target":34963
		},
		{
			"buffer":0,
			"byteLength":10752,
			"byteOffset":328520,
			"target":34962
		},
		{
			"buffer":0,
			"byteLength":10752,
			"byteOffset":339272,
			"target":34962
		},
		{
			"buffer":0,
			"byteLength":7168,
			"byteOffset":350024,
			"target":34962
		},
		{
			"buffer":0,
			"byteLength":2688,
			"byteOffset":357192,
			"target":34963
		},
		{
			"buffer":0,
			"byteLength":336,
			"byteOffset":359880,
			"target":34962
		},
		{
			"buffer":0,
			"byteLength":336,
			"byteOffset":360216,
			"target":34962
		},
		{
			"buffer":0,
			"byteLength":224,
			"byteOffset":360552,
			"target":34962
		},
		{
			"buffer":0,
			"byteLength":108,
			"byteOffset":360776,
			"target":34963
		},
		{
			"buffer":0,
			"byteLength":240,
			"byteOffset":360884,
			"target":34962
		},
		{
			"buffer":0,
			"byteLength":240,
			"byteOffset":361124,
			"target":34962
		},
		{
			"buffer":0,
			"byteLength":160,
			"byteOffset":361364,
			"target":34962
		},
		{
			"buffer":0,
			"byteLength":60,
			"byteOffset":361524,
			"target":34963
		},
		{
			"buffer":0,
			"byteLength":612,
			"byteOffset":361584,
			"target":34962
		},
		{
			"buffer":0,
			"byteLength":612,
			"byteOffset":362196,
			"target":34962
		},
		{
			"buffer":0,
			"byteLength":408,
			"byteOffset":362808,
			"target":34962
		},
		{
			"buffer":0,
			"byteLength":456,
			"byteOffset":363216,
			"target":34963
		}
	],
	"samplers":[
		{
			"magFilter":9729,
			"minFilter":9987
		}
	],
	"buffers":[
		{
			"byteLength":363672,
			"uri":"moon%20ferbishings.bin"
		}
	]
}
