{
	"asset":{
		"generator":"Khronos glTF Blender I/O v4.3.47",
		"version":"2.0"
	},
	"extensionsUsed":[
		"KHR_materials_emissive_strength"
	],
	"scene":0,
	"scenes":[
		{
			"name":"Scene",
			"nodes":[
				0,
				1
			]
		}
	],
	"nodes":[
		{
			"mesh":0,
			"name":"Circle",
			"scale":[
				0.11253786087036133,
				0.11253786087036133,
				0.11253786087036133
			]
		},
		{
			"mesh":1,
			"name":"Circle.001"
		}
	],
	"materials":[
		{
			"doubleSided":true,
			"name":"Material.001",
			"pbrMetallicRoughness":{
				"baseColorFactor":[
					0.35831713676452637,
					0.10036294162273407,
					0.00014145355089567602,
					1
				],
				"metallicFactor":0.60317462682724,
				"roughnessFactor":0.380952388048172
			}
		},
		{
			"doubleSided":true,
			"name":"Material.002",
			"pbrMetallicRoughness":{
				"baseColorFactor":[
					0,
					0,
					0,
					1
				],
				"metallicFactor":0,
				"roughnessFactor":0.5
			}
		},
		{
			"doubleSided":true,
			"emissiveFactor":[
				1,
				0.6634941101074219,
				0
			],
			"extensions":{
				"KHR_materials_emissive_strength":{
					"emissiveStrength":1.100000023841858
				}
			},
			"name":"Material.003",
			"pbrMetallicRoughness":{
				"baseColorFactor":[
					1,
					0.4797176122665405,
					0.004808604717254639,
					1
				],
				"metallicFactor":0,
				"roughnessFactor":0.5
			}
		}
	],
	"meshes":[
		{
			"name":"Circle",
			"primitives":[
				{
					"attributes":{
						"POSITION":0,
						"NORMAL":1,
						"TEXCOORD_0":2
					},
					"indices":3,
					"material":0
				},
				{
					"attributes":{
						"POSITION":4,
						"NORMAL":5,
						"TEXCOORD_0":6
					},
					"indices":7,
					"material":1
				}
			]
		},
		{
			"name":"Circle.001",
			"primitives":[
				{
					"attributes":{
						"POSITION":8,
						"NORMAL":9,
						"TEXCOORD_0":10
					},
					"indices":11,
					"material":2
				},
				{
					"attributes":{
						"POSITION":12,
						"NORMAL":13,
						"TEXCOORD_0":14
					},
					"indices":15,
					"material":1
				}
			]
		}
	],
	"accessors":[
		{
			"bufferView":0,
			"componentType":5126,
			"count":96,
			"max":[
				1,
				0.5116877555847168,
				1
			],
			"min":[
				-1,
				0.12493151426315308,
				-1
			],
			"type":"VEC3"
		},
		{
			"bufferView":1,
			"componentType":5126,
			"count":96,
			"type":"VEC3"
		},
		{
			"bufferView":2,
			"componentType":5126,
			"count":96,
			"type":"VEC2"
		},
		{
			"bufferView":3,
			"componentType":5123,
			"count":492,
			"type":"SCALAR"
		},
		{
			"bufferView":4,
			"componentType":5126,
			"count":48,
			"max":[
				0.6977573037147522,
				0.5116877555847168,
				0.6977573037147522
			],
			"min":[
				-0.6977573037147522,
				0.43886038661003113,
				-0.6977573037147522
			],
			"type":"VEC3"
		},
		{
			"bufferView":5,
			"componentType":5126,
			"count":48,
			"type":"VEC3"
		},
		{
			"bufferView":6,
			"componentType":5126,
			"count":48,
			"type":"VEC2"
		},
		{
			"bufferView":7,
			"componentType":5123,
			"count":216,
			"type":"SCALAR"
		},
		{
			"bufferView":8,
			"componentType":5126,
			"count":24,
			"max":[
				-0.05069298297166824,
				0.0670413002371788,
				0.020894262939691544
			],
			"min":[
				-0.09248147904872894,
				0.06395317614078522,
				-0.020894262939691544
			],
			"type":"VEC3"
		},
		{
			"bufferView":9,
			"componentType":5126,
			"count":24,
			"type":"VEC3"
		},
		{
			"bufferView":10,
			"componentType":5126,
			"count":24,
			"type":"VEC2"
		},
		{
			"bufferView":11,
			"componentType":5123,
			"count":114,
			"type":"SCALAR"
		},
		{
			"bufferView":12,
			"componentType":5126,
			"count":24,
			"max":[
				-0.0472332164645195,
				0.06395317614078522,
				0.024354031309485435
			],
			"min":[
				-0.09594124555587769,
				0.05815675109624863,
				-0.024354031309485435
			],
			"type":"VEC3"
		},
		{
			"bufferView":13,
			"componentType":5126,
			"count":24,
			"type":"VEC3"
		},
		{
			"bufferView":14,
			"componentType":5126,
			"count":24,
			"type":"VEC2"
		},
		{
			"bufferView":15,
			"componentType":5123,
			"count":114,
			"type":"SCALAR"
		}
	],
	"bufferViews":[
		{
			"buffer":0,
			"byteLength":1152,
			"byteOffset":0,
			"target":34962
		},
		{
			"buffer":0,
			"byteLength":1152,
			"byteOffset":1152,
			"target":34962
		},
		{
			"buffer":0,
			"byteLength":768,
			"byteOffset":2304,
			"target":34962
		},
		{
			"buffer":0,
			"byteLength":984,
			"byteOffset":3072,
			"target":34963
		},
		{
			"buffer":0,
			"byteLength":576,
			"byteOffset":4056,
			"target":34962
		},
		{
			"buffer":0,
			"byteLength":576,
			"byteOffset":4632,
			"target":34962
		},
		{
			"buffer":0,
			"byteLength":384,
			"byteOffset":5208,
			"target":34962
		},
		{
			"buffer":0,
			"byteLength":432,
			"byteOffset":5592,
			"target":34963
		},
		{
			"buffer":0,
			"byteLength":288,
			"byteOffset":6024,
			"target":34962
		},
		{
			"buffer":0,
			"byteLength":288,
			"byteOffset":6312,
			"target":34962
		},
		{
			"buffer":0,
			"byteLength":192,
			"byteOffset":6600,
			"target":34962
		},
		{
			"buffer":0,
			"byteLength":228,
			"byteOffset":6792,
			"target":34963
		},
		{
			"buffer":0,
			"byteLength":288,
			"byteOffset":7020,
			"target":34962
		},
		{
			"buffer":0,
			"byteLength":288,
			"byteOffset":7308,
			"target":34962
		},
		{
			"buffer":0,
			"byteLength":192,
			"byteOffset":7596,
			"target":34962
		},
		{
			"buffer":0,
			"byteLength":228,
			"byteOffset":7788,
			"target":34963
		}
	],
	"buffers":[
		{
			"byteLength":8016,
			"uri":"watch.bin"
		}
	]
}
