{
	"asset":{
		"generator":"Khronos glTF Blender I/O v4.3.47",
		"version":"2.0"
	},
	"scene":0,
	"scenes":[
		{
			"name":"Scene",
			"nodes":[
				0,
				1
			]
		}
	],
	"nodes":[
		{
			"mesh":0,
			"name":"head"
		},
		{
			"mesh":1,
			"name":"handle",
			"rotation":[
				0,
				0,
				-0.7071068286895752,
				0.7071068286895752
			],
			"translation":[
				-0.09484944492578506,
				0.9399998784065247,
				0
			]
		}
	],
	"materials":[
		{
			"doubleSided":true,
			"name":"Material.001",
			"pbrMetallicRoughness":{
				"baseColorFactor":[
					0.06303089112043381,
					0.06303089112043381,
					0.06303089112043381,
					1
				],
				"metallicFactor":0.874015748500824,
				"roughnessFactor":0.4448818862438202
			}
		},
		{
			"doubleSided":true,
			"name":"Material.002",
			"pbrMetallicRoughness":{
				"baseColorTexture":{
					"index":0
				},
				"metallicFactor":0
			}
		}
	],
	"meshes":[
		{
			"name":"Plane",
			"primitives":[
				{
					"attributes":{
						"POSITION":0,
						"NORMAL":1,
						"TEXCOORD_0":2
					},
					"indices":3,
					"material":0
				}
			]
		},
		{
			"name":"Circle.001",
			"primitives":[
				{
					"attributes":{
						"POSITION":4,
						"NORMAL":5,
						"TEXCOORD_0":6
					},
					"indices":7,
					"material":1
				}
			]
		}
	],
	"textures":[
		{
			"sampler":0,
			"source":0
		}
	],
	"images":[
		{
			"mimeType":"image/jpeg",
			"name":"better wooden floor",
			"uri":"better%20wooden%20floor.jpg"
		}
	],
	"accessors":[
		{
			"bufferView":0,
			"componentType":5126,
			"count":87,
			"max":[
				2.878500461578369,
				4.3897705078125,
				0.43710529804229736
			],
			"min":[
				-2.878500461578369,
				-0.20557793974876404,
				-0.43710529804229736
			],
			"type":"VEC3"
		},
		{
			"bufferView":1,
			"componentType":5126,
			"count":87,
			"type":"VEC3"
		},
		{
			"bufferView":2,
			"componentType":5126,
			"count":87,
			"type":"VEC2"
		},
		{
			"bufferView":3,
			"componentType":5123,
			"count":456,
			"type":"SCALAR"
		},
		{
			"bufferView":4,
			"componentType":5126,
			"count":152,
			"max":[
				0.9895246624946594,
				19.223222732543945,
				0.6899999976158142
			],
			"min":[
				-0.9895264506340027,
				-1.9444193840026855,
				-0.6899999976158142
			],
			"type":"VEC3"
		},
		{
			"bufferView":5,
			"componentType":5126,
			"count":152,
			"type":"VEC3"
		},
		{
			"bufferView":6,
			"componentType":5126,
			"count":152,
			"type":"VEC2"
		},
		{
			"bufferView":7,
			"componentType":5123,
			"count":564,
			"type":"SCALAR"
		}
	],
	"bufferViews":[
		{
			"buffer":0,
			"byteLength":1044,
			"byteOffset":0,
			"target":34962
		},
		{
			"buffer":0,
			"byteLength":1044,
			"byteOffset":1044,
			"target":34962
		},
		{
			"buffer":0,
			"byteLength":696,
			"byteOffset":2088,
			"target":34962
		},
		{
			"buffer":0,
			"byteLength":912,
			"byteOffset":2784,
			"target":34963
		},
		{
			"buffer":0,
			"byteLength":1824,
			"byteOffset":3696,
			"target":34962
		},
		{
			"buffer":0,
			"byteLength":1824,
			"byteOffset":5520,
			"target":34962
		},
		{
			"buffer":0,
			"byteLength":1216,
			"byteOffset":7344,
			"target":34962
		},
		{
			"buffer":0,
			"byteLength":1128,
			"byteOffset":8560,
			"target":34963
		}
	],
	"samplers":[
		{
			"magFilter":9729,
			"minFilter":9987
		}
	],
	"buffers":[
		{
			"byteLength":9688,
			"uri":"axe.bin"
		}
	]
}
