{
	"asset":{
		"generator":"Khronos glTF Blender I/O v4.3.47",
		"version":"2.0"
	},
	"scene":0,
	"scenes":[
		{
			"name":"Scene",
			"nodes":[
				0
			]
		}
	],
	"nodes":[
		{
			"mesh":0,
			"name":"Cube",
			"rotation":[
				0.3173046410083771,
				0,
				0,
				0.948323667049408
			],
			"scale":[
				4.639999866485596,
				1.5466219186782837,
				2.109999656677246
			]
		}
	],
	"materials":[
		{
			"doubleSided":true,
			"name":"Material",
			"pbrMetallicRoughness":{
				"baseColorTexture":{
					"index":0
				},
				"metallicFactor":0
			}
		}
	],
	"meshes":[
		{
			"name":"Cube",
			"primitives":[
				{
					"attributes":{
						"POSITION":0,
						"NORMAL":1,
						"TEXCOORD_0":2
					},
					"indices":3,
					"material":0
				}
			]
		}
	],
	"textures":[
		{
			"sampler":0,
			"source":0
		}
	],
	"images":[
		{
			"mimeType":"image/jpeg",
			"name":"stone",
			"uri":"stone.jpg"
		}
	],
	"accessors":[
		{
			"bufferView":0,
			"componentType":5126,
			"count":6369,
			"max":[
				0.8423697352409363,
				0.9283583164215088,
				0.8370756506919861
			],
			"min":[
				-0.8427080512046814,
				-1.0573426485061646,
				-0.8206484913825989
			],
			"type":"VEC3"
		},
		{
			"bufferView":1,
			"componentType":5126,
			"count":6369,
			"type":"VEC3"
		},
		{
			"bufferView":2,
			"componentType":5126,
			"count":6369,
			"type":"VEC2"
		},
		{
			"bufferView":3,
			"componentType":5123,
			"count":36864,
			"type":"SCALAR"
		}
	],
	"bufferViews":[
		{
			"buffer":0,
			"byteLength":76428,
			"byteOffset":0,
			"target":34962
		},
		{
			"buffer":0,
			"byteLength":76428,
			"byteOffset":76428,
			"target":34962
		},
		{
			"buffer":0,
			"byteLength":50952,
			"byteOffset":152856,
			"target":34962
		},
		{
			"buffer":0,
			"byteLength":73728,
			"byteOffset":203808,
			"target":34963
		}
	],
	"samplers":[
		{
			"magFilter":9729,
			"minFilter":9987
		}
	],
	"buffers":[
		{
			"byteLength":277536,
			"uri":"boulder2.bin"
		}
	]
}
