{
	"asset":{
		"generator":"Khronos glTF Blender I/O v4.3.47",
		"version":"2.0"
	},
	"scene":0,
	"scenes":[
		{
			"name":"Scene",
			"nodes":[
				0,
				1
			]
		}
	],
	"nodes":[
		{
			"mesh":0,
			"name":"Cube",
			"rotation":[
				0,
				-0.03689190372824669,
				0,
				0.9993192553520203
			],
			"scale":[
				3.4845476150512695,
				3.4845476150512695,
				3.4845476150512695
			],
			"translation":[
				1.4706649780273438,
				1.1835839748382568,
				0.4416450262069702
			]
		},
		{
			"mesh":1,
			"name":"Cylinder.001",
			"rotation":[
				0,
				-0.03689208999276161,
				0,
				0.9993192553520203
			],
			"scale":[
				3.4845480918884277,
				4.280874252319336,
				3.4845480918884277
			],
			"translation":[
				-7.430109977722168,
				5.236457824707031,
				-2.7317557334899902
			]
		}
	],
	"materials":[
		{
			"doubleSided":true,
			"name":"Material.003",
			"pbrMetallicRoughness":{
				"baseColorTexture":{
					"index":0
				},
				"metallicFactor":0,
				"roughnessFactor":0.5
			}
		},
		{
			"doubleSided":true,
			"name":"Material.001",
			"pbrMetallicRoughness":{
				"baseColorTexture":{
					"index":1
				},
				"metallicFactor":0
			}
		},
		{
			"doubleSided":true,
			"name":"Material.002",
			"pbrMetallicRoughness":{
				"baseColorTexture":{
					"index":2
				},
				"metallicFactor":0,
				"roughnessFactor":0.5
			}
		}
	],
	"meshes":[
		{
			"name":"Cube.002",
			"primitives":[
				{
					"attributes":{
						"POSITION":0,
						"NORMAL":1,
						"TEXCOORD_0":2
					},
					"indices":3,
					"material":0
				}
			]
		},
		{
			"name":"Cylinder.001",
			"primitives":[
				{
					"attributes":{
						"POSITION":4,
						"NORMAL":5,
						"TEXCOORD_0":6
					},
					"indices":7,
					"material":1
				},
				{
					"attributes":{
						"POSITION":8,
						"NORMAL":9,
						"TEXCOORD_0":10
					},
					"indices":11,
					"material":2
				}
			]
		}
	],
	"textures":[
		{
			"sampler":0,
			"source":0
		},
		{
			"sampler":0,
			"source":0
		},
		{
			"sampler":0,
			"source":1
		}
	],
	"images":[
		{
			"mimeType":"image/jpeg",
			"name":"concrete floor",
			"uri":"concrete%20floor.jpg"
		},
		{
			"mimeType":"image/jpeg",
			"name":"drywall",
			"uri":"drywall.jpg"
		}
	],
	"accessors":[
		{
			"bufferView":0,
			"componentType":5126,
			"count":10690,
			"max":[
				2.3318941593170166,
				1.1677803993225098,
				2.4958460330963135
			],
			"min":[
				-3.378345489501953,
				-1.1620477437973022,
				-1.877017855644226
			],
			"type":"VEC3"
		},
		{
			"bufferView":1,
			"componentType":5126,
			"count":10690,
			"type":"VEC3"
		},
		{
			"bufferView":2,
			"componentType":5126,
			"count":10690,
			"type":"VEC2"
		},
		{
			"bufferView":3,
			"componentType":5123,
			"count":15996,
			"type":"SCALAR"
		},
		{
			"bufferView":4,
			"componentType":5126,
			"count":13024,
			"max":[
				0.2650452256202698,
				0.20103535056114197,
				0.26467791199684143
			],
			"min":[
				-0.2639593482017517,
				-0.15478822588920593,
				-0.2609243094921112
			],
			"type":"VEC3"
		},
		{
			"bufferView":5,
			"componentType":5126,
			"count":13024,
			"type":"VEC3"
		},
		{
			"bufferView":6,
			"componentType":5126,
			"count":13024,
			"type":"VEC2"
		},
		{
			"bufferView":7,
			"componentType":5123,
			"count":14646,
			"type":"SCALAR"
		},
		{
			"bufferView":8,
			"componentType":5126,
			"count":5256,
			"max":[
				0.26373419165611267,
				0.19570909440517426,
				0.2600090503692627
			],
			"min":[
				-0.25979065895080566,
				-0.14968085289001465,
				-0.2557903528213501
			],
			"type":"VEC3"
		},
		{
			"bufferView":9,
			"componentType":5126,
			"count":5256,
			"type":"VEC3"
		},
		{
			"bufferView":10,
			"componentType":5126,
			"count":5256,
			"type":"VEC2"
		},
		{
			"bufferView":11,
			"componentType":5123,
			"count":5382,
			"type":"SCALAR"
		}
	],
	"bufferViews":[
		{
			"buffer":0,
			"byteLength":128280,
			"byteOffset":0,
			"target":34962
		},
		{
			"buffer":0,
			"byteLength":128280,
			"byteOffset":128280,
			"target":34962
		},
		{
			"buffer":0,
			"byteLength":85520,
			"byteOffset":256560,
			"target":34962
		},
		{
			"buffer":0,
			"byteLength":31992,
			"byteOffset":342080,
			"target":34963
		},
		{
			"buffer":0,
			"byteLength":156288,
			"byteOffset":374072,
			"target":34962
		},
		{
			"buffer":0,
			"byteLength":156288,
			"byteOffset":530360,
			"target":34962
		},
		{
			"buffer":0,
			"byteLength":104192,
			"byteOffset":686648,
			"target":34962
		},
		{
			"buffer":0,
			"byteLength":29292,
			"byteOffset":790840,
			"target":34963
		},
		{
			"buffer":0,
			"byteLength":63072,
			"byteOffset":820132,
			"target":34962
		},
		{
			"buffer":0,
			"byteLength":63072,
			"byteOffset":883204,
			"target":34962
		},
		{
			"buffer":0,
			"byteLength":42048,
			"byteOffset":946276,
			"target":34962
		},
		{
			"buffer":0,
			"byteLength":10764,
			"byteOffset":988324,
			"target":34963
		}
	],
	"samplers":[
		{
			"magFilter":9729,
			"minFilter":9987
		}
	],
	"buffers":[
		{
			"byteLength":999088,
			"uri":"cave.bin"
		}
	]
}
