{
	"asset":{
		"generator":"Khronos glTF Blender I/O v4.3.47",
		"version":"2.0"
	},
	"scene":0,
	"scenes":[
		{
			"name":"Scene",
			"nodes":[
				0,
				1
			]
		}
	],
	"nodes":[
		{
			"mesh":0,
			"name":"Cylinder",
			"scale":[
				1,
				0.13258910179138184,
				1
			]
		},
		{
			"mesh":1,
			"name":"Circle",
			"rotation":[
				0.7071068286895752,
				0,
				0,
				0.7071067690849304
			],
			"scale":[
				0.1541667878627777,
				0.1541667878627777,
				0.1541667878627777
			],
			"translation":[
				0.5,
				-1.799070119857788,
				-1.1399999856948853
			]
		}
	],
	"materials":[
		{
			"doubleSided":true,
			"name":"Material.001",
			"pbrMetallicRoughness":{
				"baseColorFactor":[
					0.38319066166877747,
					0.8672590255737305,
					1,
					1
				],
				"roughnessFactor":0.5
			}
		},
		{
			"doubleSided":true,
			"name":"Material.003",
			"pbrMetallicRoughness":{
				"baseColorFactor":[
					0,
					0,
					0,
					1
				],
				"metallicFactor":0
			}
		},
		{
			"doubleSided":true,
			"name":"Material.004",
			"pbrMetallicRoughness":{
				"baseColorTexture":{
					"index":0
				},
				"metallicFactor":0
			}
		},
		{
			"doubleSided":true,
			"name":"Material.005",
			"pbrMetallicRoughness":{
				"baseColorFactor":[
					0.04715516418218613,
					0.022749194875359535,
					0.022749194875359535,
					1
				],
				"metallicFactor":0.4047619104385376,
				"roughnessFactor":0.5
			}
		},
		{
			"doubleSided":true,
			"name":"Material.006",
			"pbrMetallicRoughness":{
				"baseColorFactor":[
					0.800000011920929,
					0.800000011920929,
					0.800000011920929,
					1
				],
				"metallicFactor":0,
				"roughnessFactor":0.8888888955116272
			}
		}
	],
	"meshes":[
		{
			"name":"Cylinder",
			"primitives":[
				{
					"attributes":{
						"POSITION":0,
						"NORMAL":1,
						"TEXCOORD_0":2
					},
					"indices":3,
					"material":0
				},
				{
					"attributes":{
						"POSITION":4,
						"NORMAL":5,
						"TEXCOORD_0":6
					},
					"indices":7,
					"material":1
				},
				{
					"attributes":{
						"POSITION":8,
						"NORMAL":9,
						"TEXCOORD_0":10
					},
					"indices":11,
					"material":2
				},
				{
					"attributes":{
						"POSITION":12,
						"NORMAL":13,
						"TEXCOORD_0":14
					},
					"indices":15,
					"material":3
				},
				{
					"attributes":{
						"POSITION":16,
						"NORMAL":17,
						"TEXCOORD_0":18
					},
					"indices":19,
					"material":4
				}
			]
		},
		{
			"name":"Circle",
			"primitives":[
				{
					"attributes":{
						"POSITION":20,
						"NORMAL":21,
						"TEXCOORD_0":22
					},
					"indices":23,
					"material":0
				}
			]
		}
	],
	"textures":[
		{
			"sampler":0,
			"source":0
		}
	],
	"images":[
		{
			"mimeType":"image/png",
			"name":"simply skibidi",
			"uri":"simply%20skibidi.png"
		}
	],
	"accessors":[
		{
			"bufferView":0,
			"componentType":5126,
			"count":488,
			"max":[
				1.074345350265503,
				15.88208293914795,
				1.073737621307373
			],
			"min":[
				-1.0735527276992798,
				2.0318570137023926,
				-3.7281739711761475
			],
			"type":"VEC3"
		},
		{
			"bufferView":1,
			"componentType":5126,
			"count":488,
			"type":"VEC3"
		},
		{
			"bufferView":2,
			"componentType":5126,
			"count":488,
			"type":"VEC2"
		},
		{
			"bufferView":3,
			"componentType":5123,
			"count":780,
			"type":"SCALAR"
		},
		{
			"bufferView":4,
			"componentType":5126,
			"count":256,
			"max":[
				0.5465524196624756,
				14.975303649902344,
				0.6553024053573608
			],
			"min":[
				-0.5638730525970459,
				12.532964706420898,
				-0.8480195999145508
			],
			"type":"VEC3"
		},
		{
			"bufferView":5,
			"componentType":5126,
			"count":256,
			"type":"VEC3"
		},
		{
			"bufferView":6,
			"componentType":5126,
			"count":256,
			"type":"VEC2"
		},
		{
			"bufferView":7,
			"componentType":5123,
			"count":438,
			"type":"SCALAR"
		},
		{
			"bufferView":8,
			"componentType":5126,
			"count":104,
			"max":[
				1.042000412940979,
				9.352602005004883,
				-1.2313601970672607
			],
			"min":[
				-1.0414410829544067,
				2.667707920074463,
				-2.657810688018799
			],
			"type":"VEC3"
		},
		{
			"bufferView":9,
			"componentType":5126,
			"count":104,
			"type":"VEC3"
		},
		{
			"bufferView":10,
			"componentType":5126,
			"count":104,
			"type":"VEC2"
		},
		{
			"bufferView":11,
			"componentType":5123,
			"count":156,
			"type":"SCALAR"
		},
		{
			"bufferView":12,
			"componentType":5126,
			"count":862,
			"max":[
				1.042000412940979,
				13.508511543273926,
				0.9999998807907104
			],
			"min":[
				-1.0414410829544067,
				2.667707920074463,
				-3.657810688018799
			],
			"type":"VEC3"
		},
		{
			"bufferView":13,
			"componentType":5126,
			"count":862,
			"type":"VEC3"
		},
		{
			"bufferView":14,
			"componentType":5126,
			"count":862,
			"type":"VEC2"
		},
		{
			"bufferView":15,
			"componentType":5123,
			"count":1338,
			"type":"SCALAR"
		},
		{
			"bufferView":16,
			"componentType":5126,
			"count":522,
			"max":[
				1.074345350265503,
				2.0318570137023926,
				1.073737621307373
			],
			"min":[
				-1.0735527276992798,
				-1,
				-3.7281739711761475
			],
			"type":"VEC3"
		},
		{
			"bufferView":17,
			"componentType":5126,
			"count":522,
			"type":"VEC3"
		},
		{
			"bufferView":18,
			"componentType":5126,
			"count":522,
			"type":"VEC2"
		},
		{
			"bufferView":19,
			"componentType":5123,
			"count":876,
			"type":"SCALAR"
		},
		{
			"bufferView":20,
			"componentType":5126,
			"count":2464,
			"max":[
				1,
				4.5,
				1
			],
			"min":[
				-8,
				-4.500000476837158,
				-14.999999046325684
			],
			"type":"VEC3"
		},
		{
			"bufferView":21,
			"componentType":5126,
			"count":2464,
			"type":"VEC3"
		},
		{
			"bufferView":22,
			"componentType":5126,
			"count":2464,
			"type":"VEC2"
		},
		{
			"bufferView":23,
			"componentType":5123,
			"count":14772,
			"type":"SCALAR"
		}
	],
	"bufferViews":[
		{
			"buffer":0,
			"byteLength":5856,
			"byteOffset":0,
			"target":34962
		},
		{
			"buffer":0,
			"byteLength":5856,
			"byteOffset":5856,
			"target":34962
		},
		{
			"buffer":0,
			"byteLength":3904,
			"byteOffset":11712,
			"target":34962
		},
		{
			"buffer":0,
			"byteLength":1560,
			"byteOffset":15616,
			"target":34963
		},
		{
			"buffer":0,
			"byteLength":3072,
			"byteOffset":17176,
			"target":34962
		},
		{
			"buffer":0,
			"byteLength":3072,
			"byteOffset":20248,
			"target":34962
		},
		{
			"buffer":0,
			"byteLength":2048,
			"byteOffset":23320,
			"target":34962
		},
		{
			"buffer":0,
			"byteLength":876,
			"byteOffset":25368,
			"target":34963
		},
		{
			"buffer":0,
			"byteLength":1248,
			"byteOffset":26244,
			"target":34962
		},
		{
			"buffer":0,
			"byteLength":1248,
			"byteOffset":27492,
			"target":34962
		},
		{
			"buffer":0,
			"byteLength":832,
			"byteOffset":28740,
			"target":34962
		},
		{
			"buffer":0,
			"byteLength":312,
			"byteOffset":29572,
			"target":34963
		},
		{
			"buffer":0,
			"byteLength":10344,
			"byteOffset":29884,
			"target":34962
		},
		{
			"buffer":0,
			"byteLength":10344,
			"byteOffset":40228,
			"target":34962
		},
		{
			"buffer":0,
			"byteLength":6896,
			"byteOffset":50572,
			"target":34962
		},
		{
			"buffer":0,
			"byteLength":2676,
			"byteOffset":57468,
			"target":34963
		},
		{
			"buffer":0,
			"byteLength":6264,
			"byteOffset":60144,
			"target":34962
		},
		{
			"buffer":0,
			"byteLength":6264,
			"byteOffset":66408,
			"target":34962
		},
		{
			"buffer":0,
			"byteLength":4176,
			"byteOffset":72672,
			"target":34962
		},
		{
			"buffer":0,
			"byteLength":1752,
			"byteOffset":76848,
			"target":34963
		},
		{
			"buffer":0,
			"byteLength":29568,
			"byteOffset":78600,
			"target":34962
		},
		{
			"buffer":0,
			"byteLength":29568,
			"byteOffset":108168,
			"target":34962
		},
		{
			"buffer":0,
			"byteLength":19712,
			"byteOffset":137736,
			"target":34962
		},
		{
			"buffer":0,
			"byteLength":29544,
			"byteOffset":157448,
			"target":34963
		}
	],
	"samplers":[
		{
			"magFilter":9729,
			"minFilter":9987
		}
	],
	"buffers":[
		{
			"byteLength":186992,
			"uri":"coke%20shoe.bin"
		}
	]
}
