{
	"asset":{
		"generator":"Khronos glTF Blender I/O v4.3.47",
		"version":"2.0"
	},
	"scene":0,
	"scenes":[
		{
			"name":"Scene",
			"nodes":[
				0,
				1,
				2,
				3
			]
		}
	],
	"nodes":[
		{
			"mesh":0,
			"name":"Grid"
		},
		{
			"mesh":1,
			"name":"Cube.001",
			"rotation":[
				0,
				-0.7312473058700562,
				0,
				0.682112455368042
			],
			"scale":[
				3.484548330307007,
				3.4845476150512695,
				3.484548330307007
			],
			"translation":[
				-4.900237083435059,
				-4.049482345581055,
				-32.951725006103516
			]
		},
		{
			"mesh":2,
			"name":"Cylinder.001",
			"rotation":[
				0,
				-0.7312473654747009,
				0,
				0.6821123957633972
			],
			"scale":[
				3.484548568725586,
				3.4909260272979736,
				3.484548568725586
			],
			"translation":[
				-1.7651360034942627,
				3.11450457572937,
				-41.86606216430664
			]
		},
		{
			"mesh":3,
			"name":"Grid.001"
		}
	],
	"materials":[
		{
			"doubleSided":true,
			"name":"Material.001",
			"pbrMetallicRoughness":{
				"baseColorTexture":{
					"index":0
				},
				"metallicFactor":0
			}
		},
		{
			"doubleSided":true,
			"name":"Material.016",
			"pbrMetallicRoughness":{
				"baseColorTexture":{
					"index":1
				},
				"metallicFactor":0
			}
		},
		{
			"doubleSided":true,
			"name":"Material.024",
			"pbrMetallicRoughness":{
				"baseColorTexture":{
					"index":2
				},
				"metallicFactor":0,
				"roughnessFactor":0.5
			}
		},
		{
			"doubleSided":true,
			"name":"Material.025",
			"pbrMetallicRoughness":{
				"baseColorTexture":{
					"index":3
				},
				"metallicFactor":0
			}
		},
		{
			"doubleSided":true,
			"name":"Material.026",
			"pbrMetallicRoughness":{
				"baseColorTexture":{
					"index":4
				},
				"metallicFactor":0,
				"roughnessFactor":0.5
			}
		},
		{
			"doubleSided":true,
			"name":"Material.027",
			"pbrMetallicRoughness":{
				"baseColorTexture":{
					"index":5
				},
				"metallicFactor":0
			}
		},
		{
			"doubleSided":true,
			"name":"Material.028",
			"pbrMetallicRoughness":{
				"baseColorTexture":{
					"index":6
				},
				"metallicFactor":0,
				"roughnessFactor":0.5
			}
		},
		{
			"doubleSided":true,
			"name":"Material.029",
			"pbrMetallicRoughness":{
				"baseColorTexture":{
					"index":7
				},
				"metallicFactor":0
			}
		},
		{
			"doubleSided":true,
			"name":"Material.030",
			"pbrMetallicRoughness":{
				"baseColorTexture":{
					"index":8
				},
				"metallicFactor":0,
				"roughnessFactor":0.5
			}
		},
		{
			"doubleSided":true,
			"name":"Material.031",
			"pbrMetallicRoughness":{
				"baseColorTexture":{
					"index":9
				},
				"metallicFactor":0
			}
		},
		{
			"doubleSided":true,
			"name":"Material.032",
			"pbrMetallicRoughness":{
				"baseColorTexture":{
					"index":10
				},
				"metallicFactor":0,
				"roughnessFactor":0.5
			}
		}
	],
	"meshes":[
		{
			"name":"Grid",
			"primitives":[
				{
					"attributes":{
						"POSITION":0,
						"NORMAL":1,
						"TEXCOORD_0":2
					},
					"indices":3,
					"material":0
				},
				{
					"attributes":{
						"POSITION":4,
						"NORMAL":5,
						"TEXCOORD_0":6
					},
					"indices":7,
					"material":1
				}
			]
		},
		{
			"name":"Cube.002",
			"primitives":[
				{
					"attributes":{
						"POSITION":8,
						"NORMAL":9,
						"TEXCOORD_0":10
					},
					"indices":11,
					"material":2
				}
			]
		},
		{
			"name":"Cylinder.001",
			"primitives":[
				{
					"attributes":{
						"POSITION":12,
						"NORMAL":13,
						"TEXCOORD_0":14
					},
					"indices":15,
					"material":3
				},
				{
					"attributes":{
						"POSITION":16,
						"NORMAL":17,
						"TEXCOORD_0":18
					},
					"indices":19,
					"material":4
				},
				{
					"attributes":{
						"POSITION":20,
						"NORMAL":21,
						"TEXCOORD_0":22
					},
					"indices":23,
					"material":5
				},
				{
					"attributes":{
						"POSITION":24,
						"NORMAL":25,
						"TEXCOORD_0":26
					},
					"indices":19,
					"material":6
				},
				{
					"attributes":{
						"POSITION":27,
						"NORMAL":28,
						"TEXCOORD_0":29
					},
					"indices":30,
					"material":7
				},
				{
					"attributes":{
						"POSITION":31,
						"NORMAL":32,
						"TEXCOORD_0":33
					},
					"indices":19,
					"material":8
				},
				{
					"attributes":{
						"POSITION":34,
						"NORMAL":35,
						"TEXCOORD_0":36
					},
					"indices":37,
					"material":9
				},
				{
					"attributes":{
						"POSITION":38,
						"NORMAL":39,
						"TEXCOORD_0":40
					},
					"indices":41,
					"material":10
				}
			]
		},
		{
			"name":"Grid.001",
			"primitives":[
				{
					"attributes":{
						"POSITION":42,
						"NORMAL":43,
						"TEXCOORD_0":44
					},
					"indices":45,
					"material":0
				},
				{
					"attributes":{
						"POSITION":46,
						"NORMAL":47,
						"TEXCOORD_0":48
					},
					"indices":49,
					"material":3
				}
			]
		}
	],
	"textures":[
		{
			"sampler":0,
			"source":0
		},
		{
			"sampler":0,
			"source":1
		},
		{
			"sampler":0,
			"source":2
		},
		{
			"sampler":0,
			"source":2
		},
		{
			"sampler":0,
			"source":3
		},
		{
			"sampler":0,
			"source":2
		},
		{
			"sampler":0,
			"source":3
		},
		{
			"sampler":0,
			"source":2
		},
		{
			"sampler":0,
			"source":3
		},
		{
			"sampler":0,
			"source":2
		},
		{
			"sampler":0,
			"source":3
		}
	],
	"images":[
		{
			"mimeType":"image/jpeg",
			"name":"Untitled",
			"uri":"Untitled.jpg"
		},
		{
			"mimeType":"image/jpeg",
			"name":"grass",
			"uri":"grass.jpg"
		},
		{
			"mimeType":"image/jpeg",
			"name":"concrete floor",
			"uri":"concrete%20floor.jpg"
		},
		{
			"mimeType":"image/jpeg",
			"name":"drywall",
			"uri":"drywall.jpg"
		}
	],
	"accessors":[
		{
			"bufferView":0,
			"componentType":5126,
			"count":10284,
			"max":[
				52.21475601196289,
				10.015297889709473,
				53.00558090209961
			],
			"min":[
				-51.69789123535156,
				0,
				-51.766357421875
			],
			"type":"VEC3"
		},
		{
			"bufferView":1,
			"componentType":5126,
			"count":10284,
			"type":"VEC3"
		},
		{
			"bufferView":2,
			"componentType":5126,
			"count":10284,
			"type":"VEC2"
		},
		{
			"bufferView":3,
			"componentType":5123,
			"count":60183,
			"type":"SCALAR"
		},
		{
			"bufferView":4,
			"componentType":5126,
			"count":2862,
			"max":[
				52.21475601196289,
				9.400250434875488,
				53.00558090209961
			],
			"min":[
				-51.69789123535156,
				-10.897254943847656,
				-51.766357421875
			],
			"type":"VEC3"
		},
		{
			"bufferView":5,
			"componentType":5126,
			"count":2862,
			"type":"VEC3"
		},
		{
			"bufferView":6,
			"componentType":5126,
			"count":2862,
			"type":"VEC2"
		},
		{
			"bufferView":7,
			"componentType":5123,
			"count":13050,
			"type":"SCALAR"
		},
		{
			"bufferView":8,
			"componentType":5126,
			"count":3755,
			"max":[
				2.3318941593170166,
				1.1677803993225098,
				2.4958460330963135
			],
			"min":[
				-3.378345489501953,
				-1.1620477437973022,
				-1.877017855644226
			],
			"type":"VEC3"
		},
		{
			"bufferView":9,
			"componentType":5126,
			"count":3755,
			"type":"VEC3"
		},
		{
			"bufferView":10,
			"componentType":5126,
			"count":3755,
			"type":"VEC2"
		},
		{
			"bufferView":11,
			"componentType":5123,
			"count":15996,
			"type":"SCALAR"
		},
		{
			"bufferView":12,
			"componentType":5126,
			"count":9297,
			"max":[
				0.2650452256202698,
				0.20103535056114197,
				0.26467791199684143
			],
			"min":[
				-0.2639593482017517,
				-0.15478822588920593,
				-0.2609243094921112
			],
			"type":"VEC3"
		},
		{
			"bufferView":13,
			"componentType":5126,
			"count":9297,
			"type":"VEC3"
		},
		{
			"bufferView":14,
			"componentType":5126,
			"count":9297,
			"type":"VEC2"
		},
		{
			"bufferView":15,
			"componentType":5123,
			"count":14646,
			"type":"SCALAR"
		},
		{
			"bufferView":16,
			"componentType":5126,
			"count":2861,
			"max":[
				0.26373419165611267,
				0.19570909440517426,
				0.2600090503692627
			],
			"min":[
				-0.25979065895080566,
				-0.14968085289001465,
				-0.2557903528213501
			],
			"type":"VEC3"
		},
		{
			"bufferView":17,
			"componentType":5126,
			"count":2861,
			"type":"VEC3"
		},
		{
			"bufferView":18,
			"componentType":5126,
			"count":2861,
			"type":"VEC2"
		},
		{
			"bufferView":19,
			"componentType":5123,
			"count":5382,
			"type":"SCALAR"
		},
		{
			"bufferView":20,
			"componentType":5126,
			"count":9354,
			"max":[
				0.26504427194595337,
				-0.09951487183570862,
				0.264678031206131
			],
			"min":[
				-0.2639603018760681,
				-0.4553384482860565,
				-0.26092419028282166
			],
			"type":"VEC3"
		},
		{
			"bufferView":21,
			"componentType":5126,
			"count":9354,
			"type":"VEC3"
		},
		{
			"bufferView":22,
			"componentType":5126,
			"count":9354,
			"type":"VEC2"
		},
		{
			"bufferView":23,
			"componentType":5123,
			"count":14646,
			"type":"SCALAR"
		},
		{
			"bufferView":24,
			"componentType":5126,
			"count":2861,
			"max":[
				0.26373323798179626,
				-0.10484112799167633,
				0.26000916957855225
			],
			"min":[
				-0.25979161262512207,
				-0.45023107528686523,
				-0.25579023361206055
			],
			"type":"VEC3"
		},
		{
			"bufferView":25,
			"componentType":5126,
			"count":2861,
			"type":"VEC3"
		},
		{
			"bufferView":26,
			"componentType":5126,
			"count":2861,
			"type":"VEC2"
		},
		{
			"bufferView":27,
			"componentType":5126,
			"count":9428,
			"max":[
				0.26504427194595337,
				-0.4034331142902374,
				0.264678031206131
			],
			"min":[
				-0.2639603018760681,
				-0.7592567205429077,
				-0.26092419028282166
			],
			"type":"VEC3"
		},
		{
			"bufferView":28,
			"componentType":5126,
			"count":9428,
			"type":"VEC3"
		},
		{
			"bufferView":29,
			"componentType":5126,
			"count":9428,
			"type":"VEC2"
		},
		{
			"bufferView":30,
			"componentType":5123,
			"count":14646,
			"type":"SCALAR"
		},
		{
			"bufferView":31,
			"componentType":5126,
			"count":2861,
			"max":[
				0.26373323798179626,
				-0.40875935554504395,
				0.26000916957855225
			],
			"min":[
				-0.25979161262512207,
				-0.754149317741394,
				-0.25579023361206055
			],
			"type":"VEC3"
		},
		{
			"bufferView":32,
			"componentType":5126,
			"count":2861,
			"type":"VEC3"
		},
		{
			"bufferView":33,
			"componentType":5126,
			"count":2861,
			"type":"VEC2"
		},
		{
			"bufferView":34,
			"componentType":5126,
			"count":9508,
			"max":[
				0.26504427194595337,
				-0.7073750495910645,
				0.264678031206131
			],
			"min":[
				-0.2639603018760681,
				-1.0631985664367676,
				-0.26092419028282166
			],
			"type":"VEC3"
		},
		{
			"bufferView":35,
			"componentType":5126,
			"count":9508,
			"type":"VEC3"
		},
		{
			"bufferView":36,
			"componentType":5126,
			"count":9508,
			"type":"VEC2"
		},
		{
			"bufferView":37,
			"componentType":5123,
			"count":14646,
			"type":"SCALAR"
		},
		{
			"bufferView":38,
			"componentType":5126,
			"count":2862,
			"max":[
				0.26373323798179626,
				-0.7127012610435486,
				0.26000916957855225
			],
			"min":[
				-0.25979161262512207,
				-1.058091163635254,
				-0.25579023361206055
			],
			"type":"VEC3"
		},
		{
			"bufferView":39,
			"componentType":5126,
			"count":2862,
			"type":"VEC3"
		},
		{
			"bufferView":40,
			"componentType":5126,
			"count":2862,
			"type":"VEC2"
		},
		{
			"bufferView":41,
			"componentType":5123,
			"count":5382,
			"type":"SCALAR"
		},
		{
			"bufferView":42,
			"componentType":5126,
			"count":44,
			"max":[
				-0.9057325720787048,
				3.076977252960205,
				-41.052520751953125
			],
			"min":[
				-2.5781702995300293,
				2.8298206329345703,
				-42.72496032714844
			],
			"type":"VEC3"
		},
		{
			"bufferView":43,
			"componentType":5126,
			"count":44,
			"type":"VEC3"
		},
		{
			"bufferView":44,
			"componentType":5126,
			"count":44,
			"type":"VEC2"
		},
		{
			"bufferView":45,
			"componentType":5123,
			"count":126,
			"type":"SCALAR"
		},
		{
			"bufferView":46,
			"componentType":5126,
			"count":96,
			"max":[
				-0.8206615447998047,
				-0.45690059661865234,
				-41.000633239746094
			],
			"min":[
				-2.7822320461273193,
				-0.6290616989135742,
				-42.96220397949219
			],
			"type":"VEC3"
		},
		{
			"bufferView":47,
			"componentType":5126,
			"count":96,
			"type":"VEC3"
		},
		{
			"bufferView":48,
			"componentType":5126,
			"count":96,
			"type":"VEC2"
		},
		{
			"bufferView":49,
			"componentType":5123,
			"count":522,
			"type":"SCALAR"
		}
	],
	"bufferViews":[
		{
			"buffer":0,
			"byteLength":123408,
			"byteOffset":0,
			"target":34962
		},
		{
			"buffer":0,
			"byteLength":123408,
			"byteOffset":123408,
			"target":34962
		},
		{
			"buffer":0,
			"byteLength":82272,
			"byteOffset":246816,
			"target":34962
		},
		{
			"buffer":0,
			"byteLength":120366,
			"byteOffset":329088,
			"target":34963
		},
		{
			"buffer":0,
			"byteLength":34344,
			"byteOffset":449456,
			"target":34962
		},
		{
			"buffer":0,
			"byteLength":34344,
			"byteOffset":483800,
			"target":34962
		},
		{
			"buffer":0,
			"byteLength":22896,
			"byteOffset":518144,
			"target":34962
		},
		{
			"buffer":0,
			"byteLength":26100,
			"byteOffset":541040,
			"target":34963
		},
		{
			"buffer":0,
			"byteLength":45060,
			"byteOffset":567140,
			"target":34962
		},
		{
			"buffer":0,
			"byteLength":45060,
			"byteOffset":612200,
			"target":34962
		},
		{
			"buffer":0,
			"byteLength":30040,
			"byteOffset":657260,
			"target":34962
		},
		{
			"buffer":0,
			"byteLength":31992,
			"byteOffset":687300,
			"target":34963
		},
		{
			"buffer":0,
			"byteLength":111564,
			"byteOffset":719292,
			"target":34962
		},
		{
			"buffer":0,
			"byteLength":111564,
			"byteOffset":830856,
			"target":34962
		},
		{
			"buffer":0,
			"byteLength":74376,
			"byteOffset":942420,
			"target":34962
		},
		{
			"buffer":0,
			"byteLength":29292,
			"byteOffset":1016796,
			"target":34963
		},
		{
			"buffer":0,
			"byteLength":34332,
			"byteOffset":1046088,
			"target":34962
		},
		{
			"buffer":0,
			"byteLength":34332,
			"byteOffset":1080420,
			"target":34962
		},
		{
			"buffer":0,
			"byteLength":22888,
			"byteOffset":1114752,
			"target":34962
		},
		{
			"buffer":0,
			"byteLength":10764,
			"byteOffset":1137640,
			"target":34963
		},
		{
			"buffer":0,
			"byteLength":112248,
			"byteOffset":1148404,
			"target":34962
		},
		{
			"buffer":0,
			"byteLength":112248,
			"byteOffset":1260652,
			"target":34962
		},
		{
			"buffer":0,
			"byteLength":74832,
			"byteOffset":1372900,
			"target":34962
		},
		{
			"buffer":0,
			"byteLength":29292,
			"byteOffset":1447732,
			"target":34963
		},
		{
			"buffer":0,
			"byteLength":34332,
			"byteOffset":1477024,
			"target":34962
		},
		{
			"buffer":0,
			"byteLength":34332,
			"byteOffset":1511356,
			"target":34962
		},
		{
			"buffer":0,
			"byteLength":22888,
			"byteOffset":1545688,
			"target":34962
		},
		{
			"buffer":0,
			"byteLength":113136,
			"byteOffset":1568576,
			"target":34962
		},
		{
			"buffer":0,
			"byteLength":113136,
			"byteOffset":1681712,
			"target":34962
		},
		{
			"buffer":0,
			"byteLength":75424,
			"byteOffset":1794848,
			"target":34962
		},
		{
			"buffer":0,
			"byteLength":29292,
			"byteOffset":1870272,
			"target":34963
		},
		{
			"buffer":0,
			"byteLength":34332,
			"byteOffset":1899564,
			"target":34962
		},
		{
			"buffer":0,
			"byteLength":34332,
			"byteOffset":1933896,
			"target":34962
		},
		{
			"buffer":0,
			"byteLength":22888,
			"byteOffset":1968228,
			"target":34962
		},
		{
			"buffer":0,
			"byteLength":114096,
			"byteOffset":1991116,
			"target":34962
		},
		{
			"buffer":0,
			"byteLength":114096,
			"byteOffset":2105212,
			"target":34962
		},
		{
			"buffer":0,
			"byteLength":76064,
			"byteOffset":2219308,
			"target":34962
		},
		{
			"buffer":0,
			"byteLength":29292,
			"byteOffset":2295372,
			"target":34963
		},
		{
			"buffer":0,
			"byteLength":34344,
			"byteOffset":2324664,
			"target":34962
		},
		{
			"buffer":0,
			"byteLength":34344,
			"byteOffset":2359008,
			"target":34962
		},
		{
			"buffer":0,
			"byteLength":22896,
			"byteOffset":2393352,
			"target":34962
		},
		{
			"buffer":0,
			"byteLength":10764,
			"byteOffset":2416248,
			"target":34963
		},
		{
			"buffer":0,
			"byteLength":528,
			"byteOffset":2427012,
			"target":34962
		},
		{
			"buffer":0,
			"byteLength":528,
			"byteOffset":2427540,
			"target":34962
		},
		{
			"buffer":0,
			"byteLength":352,
			"byteOffset":2428068,
			"target":34962
		},
		{
			"buffer":0,
			"byteLength":252,
			"byteOffset":2428420,
			"target":34963
		},
		{
			"buffer":0,
			"byteLength":1152,
			"byteOffset":2428672,
			"target":34962
		},
		{
			"buffer":0,
			"byteLength":1152,
			"byteOffset":2429824,
			"target":34962
		},
		{
			"buffer":0,
			"byteLength":768,
			"byteOffset":2430976,
			"target":34962
		},
		{
			"buffer":0,
			"byteLength":1044,
			"byteOffset":2431744,
			"target":34963
		}
	],
	"samplers":[
		{
			"magFilter":9729,
			"minFilter":9987
		}
	],
	"buffers":[
		{
			"byteLength":2432788,
			"uri":"cork.bin"
		}
	]
}
