{
	"asset":{
		"generator":"Khronos glTF Blender I/O v4.3.47",
		"version":"2.0"
	},
	"extensionsUsed":[
		"KHR_materials_clearcoat"
	],
	"scene":0,
	"scenes":[
		{
			"name":"Scene",
			"nodes":[
				0,
				1,
				2
			]
		}
	],
	"nodes":[
		{
			"mesh":0,
			"name":"door",
			"translation":[
				1,
				1,
				0
			]
		},
		{
			"mesh":1,
			"name":"Cube",
			"scale":[
				0.030000001192092896,
				0.05000000074505806,
				0.05000000074505806
			],
			"translation":[
				-0.09000000357627869,
				0.8499999642372131,
				-0.75
			]
		},
		{
			"mesh":2,
			"name":"Cube.001",
			"rotation":[
				1,
				0,
				0,
				0
			],
			"scale":[
				-0.029999997466802597,
				-0.05000000074505806,
				-0.05000000074505806
			],
			"translation":[
				0.05999999865889549,
				0.8499999642372131,
				-0.75
			]
		}
	],
	"materials":[
		{
			"doubleSided":true,
			"extensions":{
				"KHR_materials_clearcoat":{
					"clearcoatRoughnessFactor":0.0396825410425663
				}
			},
			"name":"Material.004",
			"pbrMetallicRoughness":{
				"baseColorTexture":{
					"index":0
				},
				"metallicFactor":0,
				"roughnessFactor":0.682539701461792
			}
		},
		{
			"doubleSided":true,
			"name":"Material.013",
			"pbrMetallicRoughness":{
				"baseColorFactor":[
					0.8006061315536499,
					0.3662903904914856,
					0.02690787985920906,
					1
				],
				"roughnessFactor":0.6666666865348816
			}
		},
		{
			"doubleSided":true,
			"name":"Material.014",
			"pbrMetallicRoughness":{
				"baseColorFactor":[
					0.8006061315536499,
					0.3662903904914856,
					0.02690787985920906,
					1
				],
				"roughnessFactor":0.6666666865348816
			}
		}
	],
	"meshes":[
		{
			"name":"Cube.005",
			"primitives":[
				{
					"attributes":{
						"POSITION":0,
						"NORMAL":1,
						"TEXCOORD_0":2
					},
					"indices":3,
					"material":0
				}
			]
		},
		{
			"name":"Cube.007",
			"primitives":[
				{
					"attributes":{
						"POSITION":4,
						"NORMAL":5,
						"TEXCOORD_0":6
					},
					"indices":7,
					"material":1
				}
			]
		},
		{
			"name":"Cube.009",
			"primitives":[
				{
					"attributes":{
						"POSITION":8,
						"NORMAL":9,
						"TEXCOORD_0":10
					},
					"indices":7,
					"material":2
				}
			]
		}
	],
	"textures":[
		{
			"sampler":0,
			"source":0
		}
	],
	"images":[
		{
			"mimeType":"image/jpeg",
			"name":"frame wood",
			"uri":"frame%20wood.jpg"
		}
	],
	"accessors":[
		{
			"bufferView":0,
			"componentType":5126,
			"count":360,
			"max":[
				-0.990436315536499,
				0.9017422199249268,
				0.02231737971305847
			],
			"min":[
				-1.0473893880844116,
				-1,
				-0.9208004474639893
			],
			"type":"VEC3"
		},
		{
			"bufferView":1,
			"componentType":5126,
			"count":360,
			"type":"VEC3"
		},
		{
			"bufferView":2,
			"componentType":5126,
			"count":360,
			"type":"VEC2"
		},
		{
			"bufferView":3,
			"componentType":5123,
			"count":672,
			"type":"SCALAR"
		},
		{
			"bufferView":4,
			"componentType":5126,
			"count":255,
			"max":[
				2.000000238418579,
				0.8395062685012817,
				0.8395062685012817
			],
			"min":[
				-0.8395062685012817,
				-0.8395062685012817,
				-0.8395062685012817
			],
			"type":"VEC3"
		},
		{
			"bufferView":5,
			"componentType":5126,
			"count":255,
			"type":"VEC3"
		},
		{
			"bufferView":6,
			"componentType":5126,
			"count":255,
			"type":"VEC2"
		},
		{
			"bufferView":7,
			"componentType":5123,
			"count":948,
			"type":"SCALAR"
		},
		{
			"bufferView":8,
			"componentType":5126,
			"count":255,
			"max":[
				2.000000238418579,
				0.8395062685012817,
				0.8395062685012817
			],
			"min":[
				-0.8395062685012817,
				-0.8395062685012817,
				-0.8395062685012817
			],
			"type":"VEC3"
		},
		{
			"bufferView":9,
			"componentType":5126,
			"count":255,
			"type":"VEC3"
		},
		{
			"bufferView":10,
			"componentType":5126,
			"count":255,
			"type":"VEC2"
		}
	],
	"bufferViews":[
		{
			"buffer":0,
			"byteLength":4320,
			"byteOffset":0,
			"target":34962
		},
		{
			"buffer":0,
			"byteLength":4320,
			"byteOffset":4320,
			"target":34962
		},
		{
			"buffer":0,
			"byteLength":2880,
			"byteOffset":8640,
			"target":34962
		},
		{
			"buffer":0,
			"byteLength":1344,
			"byteOffset":11520,
			"target":34963
		},
		{
			"buffer":0,
			"byteLength":3060,
			"byteOffset":12864,
			"target":34962
		},
		{
			"buffer":0,
			"byteLength":3060,
			"byteOffset":15924,
			"target":34962
		},
		{
			"buffer":0,
			"byteLength":2040,
			"byteOffset":18984,
			"target":34962
		},
		{
			"buffer":0,
			"byteLength":1896,
			"byteOffset":21024,
			"target":34963
		},
		{
			"buffer":0,
			"byteLength":3060,
			"byteOffset":22920,
			"target":34962
		},
		{
			"buffer":0,
			"byteLength":3060,
			"byteOffset":25980,
			"target":34962
		},
		{
			"buffer":0,
			"byteLength":2040,
			"byteOffset":29040,
			"target":34962
		}
	],
	"samplers":[
		{
			"magFilter":9729,
			"minFilter":9987
		}
	],
	"buffers":[
		{
			"byteLength":31080,
			"uri":"door.bin"
		}
	]
}
