{
	"asset":{
		"generator":"Khronos glTF Blender I/O v4.3.47",
		"version":"2.0"
	},
	"extensionsUsed":[
		"KHR_materials_sheen"
	],
	"scene":0,
	"scenes":[
		{
			"name":"Scene",
			"nodes":[
				0
			]
		}
	],
	"nodes":[
		{
			"mesh":0,
			"name":"Cube",
			"scale":[
				0.5631932020187378,
				1.5194045305252075,
				1.6474634408950806
			],
			"translation":[
				0.01086998637765646,
				0.014931371435523033,
				0.0003511111135594547
			]
		}
	],
	"materials":[
		{
			"doubleSided":true,
			"extensions":{
				"KHR_materials_sheen":{
					"sheenColorFactor":[
						1.0,
						1.0,
						1.0
					],
					"sheenRoughnessFactor":0.7222222089767456
				}
			},
			"name":"Material.001",
			"pbrMetallicRoughness":{
				"baseColorFactor":[
					0.15515948832035065,
					0.15515948832035065,
					0.15515948832035065,
					1
				],
				"metallicFactor":0,
				"roughnessFactor":0.7936508059501648
			}
		},
		{
			"doubleSided":true,
			"name":"Material",
			"pbrMetallicRoughness":{
				"baseColorFactor":[
					0.43352073431015015,
					0.03326030075550079,
					0.03871164098381996,
					1
				],
				"metallicFactor":0
			}
		},
		{
			"doubleSided":true,
			"name":"Material.002",
			"pbrMetallicRoughness":{
				"baseColorFactor":[
					0.014653204008936882,
					0.014653204008936882,
					0.014653204008936882,
					1
				],
				"metallicFactor":0
			}
		},
		{
			"doubleSided":true,
			"emissiveFactor":[
				0.5999999642372131,
				0.5575140620759669,
				0.26986257613524245
			],
			"name":"Material.003",
			"pbrMetallicRoughness":{
				"baseColorFactor":[
					1,
					0.8920239806175232,
					0.24186785519123077,
					1
				],
				"metallicFactor":0.7777777910232544,
				"roughnessFactor":0.1269841194152832
			}
		}
	],
	"meshes":[
		{
			"name":"Cube",
			"primitives":[
				{
					"attributes":{
						"POSITION":0,
						"NORMAL":1,
						"TEXCOORD_0":2
					},
					"indices":3,
					"material":0
				},
				{
					"attributes":{
						"POSITION":4,
						"NORMAL":5,
						"TEXCOORD_0":6
					},
					"indices":7,
					"material":1
				},
				{
					"attributes":{
						"POSITION":8,
						"NORMAL":9,
						"TEXCOORD_0":10
					},
					"indices":11,
					"material":2
				},
				{
					"attributes":{
						"POSITION":12,
						"NORMAL":13,
						"TEXCOORD_0":14
					},
					"indices":15,
					"material":3
				}
			]
		}
	],
	"accessors":[
		{
			"bufferView":0,
			"componentType":5126,
			"count":880,
			"max":[
				0.02782903052866459,
				0.026249246671795845,
				0.01589837856590748
			],
			"min":[
				-0.06643030047416687,
				-0.031208598986268044,
				-0.016324622556567192
			],
			"type":"VEC3"
		},
		{
			"bufferView":1,
			"componentType":5126,
			"count":880,
			"type":"VEC3"
		},
		{
			"bufferView":2,
			"componentType":5126,
			"count":880,
			"type":"VEC2"
		},
		{
			"bufferView":3,
			"componentType":5123,
			"count":3186,
			"type":"SCALAR"
		},
		{
			"bufferView":4,
			"componentType":5126,
			"count":32,
			"max":[
				0.008876698091626167,
				0.003954469691962004,
				0.0018749877344816923
			],
			"min":[
				0.004007343202829361,
				-0.003954469691962004,
				-0.0018749877344816923
			],
			"type":"VEC3"
		},
		{
			"bufferView":5,
			"componentType":5126,
			"count":32,
			"type":"VEC3"
		},
		{
			"bufferView":6,
			"componentType":5126,
			"count":32,
			"type":"VEC2"
		},
		{
			"bufferView":7,
			"componentType":5123,
			"count":48,
			"type":"SCALAR"
		},
		{
			"bufferView":8,
			"componentType":5126,
			"count":224,
			"max":[
				0.0026610996574163437,
				0.009997183457016945,
				0.007294601760804653
			],
			"min":[
				-0.041262369602918625,
				-0.029320525005459785,
				-0.0077208466827869415
			],
			"type":"VEC3"
		},
		{
			"bufferView":9,
			"componentType":5126,
			"count":224,
			"type":"VEC3"
		},
		{
			"bufferView":10,
			"componentType":5126,
			"count":224,
			"type":"VEC2"
		},
		{
			"bufferView":11,
			"componentType":5123,
			"count":288,
			"type":"SCALAR"
		},
		{
			"bufferView":12,
			"componentType":5126,
			"count":160,
			"max":[
				0.02008667029440403,
				0.02673398144543171,
				0.01325161475688219
			],
			"min":[
				-0.05868794023990631,
				0.02405441738665104,
				-0.013677858747541904
			],
			"type":"VEC3"
		},
		{
			"bufferView":13,
			"componentType":5126,
			"count":160,
			"type":"VEC3"
		},
		{
			"bufferView":14,
			"componentType":5126,
			"count":160,
			"type":"VEC2"
		},
		{
			"bufferView":15,
			"componentType":5123,
			"count":858,
			"type":"SCALAR"
		}
	],
	"bufferViews":[
		{
			"buffer":0,
			"byteLength":10560,
			"byteOffset":0,
			"target":34962
		},
		{
			"buffer":0,
			"byteLength":10560,
			"byteOffset":10560,
			"target":34962
		},
		{
			"buffer":0,
			"byteLength":7040,
			"byteOffset":21120,
			"target":34962
		},
		{
			"buffer":0,
			"byteLength":6372,
			"byteOffset":28160,
			"target":34963
		},
		{
			"buffer":0,
			"byteLength":384,
			"byteOffset":34532,
			"target":34962
		},
		{
			"buffer":0,
			"byteLength":384,
			"byteOffset":34916,
			"target":34962
		},
		{
			"buffer":0,
			"byteLength":256,
			"byteOffset":35300,
			"target":34962
		},
		{
			"buffer":0,
			"byteLength":96,
			"byteOffset":35556,
			"target":34963
		},
		{
			"buffer":0,
			"byteLength":2688,
			"byteOffset":35652,
			"target":34962
		},
		{
			"buffer":0,
			"byteLength":2688,
			"byteOffset":38340,
			"target":34962
		},
		{
			"buffer":0,
			"byteLength":1792,
			"byteOffset":41028,
			"target":34962
		},
		{
			"buffer":0,
			"byteLength":576,
			"byteOffset":42820,
			"target":34963
		},
		{
			"buffer":0,
			"byteLength":1920,
			"byteOffset":43396,
			"target":34962
		},
		{
			"buffer":0,
			"byteLength":1920,
			"byteOffset":45316,
			"target":34962
		},
		{
			"buffer":0,
			"byteLength":1280,
			"byteOffset":47236,
			"target":34962
		},
		{
			"buffer":0,
			"byteLength":1716,
			"byteOffset":48516,
			"target":34963
		}
	],
	"buffers":[
		{
			"byteLength":50232,
			"uri":"flashlight.bin"
		}
	]
}
