{
	"asset":{
		"generator":"Khronos glTF Blender I/O v4.3.47",
		"version":"2.0"
	},
	"extensionsUsed":[
		"EXT_texture_webp"
	],
	"extensionsRequired":[
		"EXT_texture_webp"
	],
	"scene":0,
	"scenes":[
		{
			"name":"Scene",
			"nodes":[
				0,
				1
			]
		}
	],
	"nodes":[
		{
			"mesh":0,
			"name":"Grid"
		},
		{
			"mesh":1,
			"name":"house",
			"translation":[
				1,
				1,
				-1
			]
		}
	],
	"materials":[
		{
			"doubleSided":true,
			"name":"Material.001",
			"pbrMetallicRoughness":{
				"baseColorTexture":{
					"index":0
				},
				"metallicFactor":0
			}
		},
		{
			"doubleSided":true,
			"name":"Material.016",
			"pbrMetallicRoughness":{
				"baseColorTexture":{
					"index":1
				},
				"metallicFactor":0
			}
		},
		{
			"doubleSided":true,
			"name":"Material.003",
			"pbrMetallicRoughness":{
				"baseColorTexture":{
					"index":2
				},
				"metallicFactor":0
			}
		},
		{
			"doubleSided":true,
			"name":"Material.006",
			"pbrMetallicRoughness":{
				"baseColorTexture":{
					"index":3
				},
				"metallicFactor":0,
				"roughnessFactor":0.5
			}
		},
		{
			"doubleSided":true,
			"name":"Material.012",
			"pbrMetallicRoughness":{
				"baseColorTexture":{
					"index":4
				},
				"metallicFactor":0,
				"roughnessFactor":0.5
			}
		},
		{
			"doubleSided":true,
			"name":"Material.004",
			"pbrMetallicRoughness":{
				"baseColorTexture":{
					"index":5
				},
				"metallicFactor":0,
				"roughnessFactor":0.5
			}
		},
		{
			"doubleSided":true,
			"name":"Material.013",
			"pbrMetallicRoughness":{
				"baseColorTexture":{
					"index":6
				},
				"metallicFactor":0,
				"roughnessFactor":0.5
			}
		},
		{
			"doubleSided":true,
			"name":"Material.008",
			"pbrMetallicRoughness":{
				"baseColorTexture":{
					"index":7
				},
				"metallicFactor":0,
				"roughnessFactor":0.5
			}
		},
		{
			"doubleSided":true,
			"name":"Material.005",
			"pbrMetallicRoughness":{
				"baseColorTexture":{
					"index":8
				},
				"metallicFactor":0,
				"roughnessFactor":0.5
			}
		},
		{
			"doubleSided":true,
			"name":"Material.002",
			"pbrMetallicRoughness":{
				"baseColorFactor":[
					0.800000011920929,
					0.800000011920929,
					0.800000011920929,
					1
				],
				"metallicFactor":0,
				"roughnessFactor":0.5
			}
		},
		{
			"doubleSided":true,
			"name":"Material.007",
			"pbrMetallicRoughness":{
				"baseColorTexture":{
					"index":9
				},
				"metallicFactor":0,
				"roughnessFactor":0.5
			}
		},
		{
			"doubleSided":true,
			"name":"Material.009",
			"pbrMetallicRoughness":{
				"baseColorTexture":{
					"index":10
				},
				"metallicFactor":0,
				"roughnessFactor":0.5
			}
		},
		{
			"doubleSided":true,
			"name":"Material.010",
			"pbrMetallicRoughness":{
				"baseColorTexture":{
					"index":11
				},
				"metallicFactor":0,
				"roughnessFactor":0.5
			}
		},
		{
			"doubleSided":true,
			"name":"Material.011",
			"pbrMetallicRoughness":{
				"baseColorTexture":{
					"index":12
				},
				"metallicFactor":0,
				"roughnessFactor":0.5
			}
		},
		{
			"doubleSided":true,
			"name":"Material.014",
			"pbrMetallicRoughness":{
				"baseColorTexture":{
					"index":13
				},
				"metallicFactor":0,
				"roughnessFactor":0.5
			}
		},
		{
			"alphaMode":"BLEND",
			"doubleSided":true,
			"name":"Material.015",
			"pbrMetallicRoughness":{
				"baseColorFactor":[
					0.2933739721775055,
					0.517035722732544,
					0.8009468913078308,
					0.230158731341362
				],
				"metallicFactor":0.817460298538208,
				"roughnessFactor":0.2380952537059784
			}
		}
	],
	"meshes":[
		{
			"name":"Grid",
			"primitives":[
				{
					"attributes":{
						"POSITION":0,
						"NORMAL":1,
						"TEXCOORD_0":2
					},
					"indices":3,
					"material":0
				},
				{
					"attributes":{
						"POSITION":4,
						"NORMAL":5,
						"TEXCOORD_0":6
					},
					"indices":7,
					"material":1
				}
			]
		},
		{
			"name":"Cube.021",
			"primitives":[
				{
					"attributes":{
						"POSITION":8,
						"NORMAL":9,
						"TEXCOORD_0":10
					},
					"indices":11,
					"material":2
				},
				{
					"attributes":{
						"POSITION":12,
						"NORMAL":13,
						"TEXCOORD_0":14
					},
					"indices":15,
					"material":3
				},
				{
					"attributes":{
						"POSITION":16,
						"NORMAL":17,
						"TEXCOORD_0":18
					},
					"indices":19,
					"material":4
				},
				{
					"attributes":{
						"POSITION":20,
						"NORMAL":21,
						"TEXCOORD_0":22
					},
					"indices":23,
					"material":5
				},
				{
					"attributes":{
						"POSITION":24,
						"NORMAL":25,
						"TEXCOORD_0":26
					},
					"indices":27,
					"material":6
				},
				{
					"attributes":{
						"POSITION":28,
						"NORMAL":29,
						"TEXCOORD_0":30
					},
					"indices":31,
					"material":7
				},
				{
					"attributes":{
						"POSITION":32,
						"NORMAL":33,
						"TEXCOORD_0":34
					},
					"indices":35,
					"material":8
				},
				{
					"attributes":{
						"POSITION":36,
						"NORMAL":37,
						"TEXCOORD_0":38
					},
					"indices":39,
					"material":9
				},
				{
					"attributes":{
						"POSITION":40,
						"NORMAL":41,
						"TEXCOORD_0":42
					},
					"indices":43,
					"material":10
				},
				{
					"attributes":{
						"POSITION":44,
						"NORMAL":45,
						"TEXCOORD_0":46
					},
					"indices":47,
					"material":11
				},
				{
					"attributes":{
						"POSITION":48,
						"NORMAL":49,
						"TEXCOORD_0":50
					},
					"indices":51,
					"material":12
				},
				{
					"attributes":{
						"POSITION":52,
						"NORMAL":53,
						"TEXCOORD_0":54
					},
					"indices":55,
					"material":13
				},
				{
					"attributes":{
						"POSITION":56,
						"NORMAL":57,
						"TEXCOORD_0":58
					},
					"indices":59,
					"material":14
				},
				{
					"attributes":{
						"POSITION":60,
						"NORMAL":61,
						"TEXCOORD_0":62
					},
					"indices":63,
					"material":15
				}
			]
		}
	],
	"textures":[
		{
			"sampler":0,
			"source":0
		},
		{
			"sampler":0,
			"source":1
		},
		{
			"sampler":0,
			"source":2
		},
		{
			"sampler":0,
			"source":3
		},
		{
			"sampler":0,
			"source":4
		},
		{
			"sampler":0,
			"source":5
		},
		{
			"extensions":{
				"EXT_texture_webp":{
					"source":6
				}
			},
			"sampler":0
		},
		{
			"sampler":0,
			"source":7
		},
		{
			"sampler":0,
			"source":4
		},
		{
			"sampler":0,
			"source":8
		},
		{
			"sampler":0,
			"source":9
		},
		{
			"extensions":{
				"EXT_texture_webp":{
					"source":6
				}
			},
			"sampler":0
		},
		{
			"sampler":0,
			"source":10
		},
		{
			"sampler":0,
			"source":11
		}
	],
	"images":[
		{
			"mimeType":"image/jpeg",
			"name":"Untitled",
			"uri":"Untitled.jpg"
		},
		{
			"mimeType":"image/jpeg",
			"name":"grass",
			"uri":"grass.jpg"
		},
		{
			"mimeType":"image/jpeg",
			"name":"shingles",
			"uri":"shingles.jpg"
		},
		{
			"mimeType":"image/jpeg",
			"name":"wooden floor",
			"uri":"wooden%20floor.jpg"
		},
		{
			"mimeType":"image/jpeg",
			"name":"siding",
			"uri":"siding.jpg"
		},
		{
			"mimeType":"image/jpeg",
			"name":"frame wood",
			"uri":"frame%20wood.jpg"
		},
		{
			"mimeType":"image/webp",
			"name":"popcorn_ceiling",
			"uri":"popcorn_ceiling.webp"
		},
		{
			"mimeType":"image/jpeg",
			"name":"carpet",
			"uri":"carpet.jpg"
		},
		{
			"mimeType":"image/jpeg",
			"name":"better wooden floor",
			"uri":"better%20wooden%20floor.jpg"
		},
		{
			"mimeType":"image/jpeg",
			"name":"concrete floor",
			"uri":"concrete%20floor.jpg"
		},
		{
			"mimeType":"image/jpeg",
			"name":"concrete wall alt",
			"uri":"concrete%20wall%20alt.jpg"
		},
		{
			"mimeType":"image/jpeg",
			"name":"drywall",
			"uri":"drywall.jpg"
		}
	],
	"accessors":[
		{
			"bufferView":0,
			"componentType":5126,
			"count":10221,
			"max":[
				52.21475601196289,
				10.015297889709473,
				53.00558090209961
			],
			"min":[
				-51.69789123535156,
				0,
				-51.766357421875
			],
			"type":"VEC3"
		},
		{
			"bufferView":1,
			"componentType":5126,
			"count":10221,
			"type":"VEC3"
		},
		{
			"bufferView":2,
			"componentType":5126,
			"count":10221,
			"type":"VEC2"
		},
		{
			"bufferView":3,
			"componentType":5123,
			"count":60081,
			"type":"SCALAR"
		},
		{
			"bufferView":4,
			"componentType":5126,
			"count":2823,
			"max":[
				52.21475601196289,
				9.400250434875488,
				53.00558090209961
			],
			"min":[
				-51.69789123535156,
				-7.168789863586426,
				-51.766357421875
			],
			"type":"VEC3"
		},
		{
			"bufferView":5,
			"componentType":5126,
			"count":2823,
			"type":"VEC3"
		},
		{
			"bufferView":6,
			"componentType":5126,
			"count":2823,
			"type":"VEC2"
		},
		{
			"bufferView":7,
			"componentType":5123,
			"count":13068,
			"type":"SCALAR"
		},
		{
			"bufferView":8,
			"componentType":5126,
			"count":180,
			"max":[
				37.656585693359375,
				5.098456382751465,
				36.330223083496094
			],
			"min":[
				31.80422592163086,
				-1.2530298233032227,
				28.922340393066406
			],
			"type":"VEC3"
		},
		{
			"bufferView":9,
			"componentType":5126,
			"count":180,
			"type":"VEC3"
		},
		{
			"bufferView":10,
			"componentType":5126,
			"count":180,
			"type":"VEC2"
		},
		{
			"bufferView":11,
			"componentType":5123,
			"count":360,
			"type":"SCALAR"
		},
		{
			"bufferView":12,
			"componentType":5126,
			"count":4,
			"max":[
				37.56782150268555,
				5.017719268798828,
				34.81382751464844
			],
			"min":[
				31.80422592163086,
				1.946797490119934,
				28.92713737487793
			],
			"type":"VEC3"
		},
		{
			"bufferView":13,
			"componentType":5126,
			"count":4,
			"type":"VEC3"
		},
		{
			"bufferView":14,
			"componentType":5126,
			"count":4,
			"type":"VEC2"
		},
		{
			"bufferView":15,
			"componentType":5123,
			"count":6,
			"type":"SCALAR"
		},
		{
			"bufferView":16,
			"componentType":5126,
			"count":114,
			"max":[
				37.441410064697266,
				4.9514360427856445,
				34.67128372192383
			],
			"min":[
				31.936052322387695,
				2.0046615600585938,
				29.128808975219727
			],
			"type":"VEC3"
		},
		{
			"bufferView":17,
			"componentType":5126,
			"count":114,
			"type":"VEC3"
		},
		{
			"bufferView":18,
			"componentType":5126,
			"count":114,
			"type":"VEC2"
		},
		{
			"bufferView":19,
			"componentType":5123,
			"count":201,
			"type":"SCALAR"
		},
		{
			"bufferView":20,
			"componentType":5126,
			"count":640,
			"max":[
				37.42361068725586,
				4.9514360427856445,
				34.67128372192383
			],
			"min":[
				31.936052322387695,
				-1.045161247253418,
				29.128808975219727
			],
			"type":"VEC3"
		},
		{
			"bufferView":21,
			"componentType":5126,
			"count":640,
			"type":"VEC3"
		},
		{
			"bufferView":22,
			"componentType":5126,
			"count":640,
			"type":"VEC2"
		},
		{
			"bufferView":23,
			"componentType":5123,
			"count":945,
			"type":"SCALAR"
		},
		{
			"bufferView":24,
			"componentType":5126,
			"count":4,
			"max":[
				37.32433319091797,
				2.0047826766967773,
				33.69580078125
			],
			"min":[
				31.939830780029297,
				2.0047826766967773,
				29.165855407714844
			],
			"type":"VEC3"
		},
		{
			"bufferView":25,
			"componentType":5126,
			"count":4,
			"type":"VEC3"
		},
		{
			"bufferView":26,
			"componentType":5126,
			"count":4,
			"type":"VEC2"
		},
		{
			"bufferView":27,
			"componentType":5123,
			"count":6,
			"type":"SCALAR"
		},
		{
			"bufferView":28,
			"componentType":5126,
			"count":1239,
			"max":[
				37.32433319091797,
				2.023678779602051,
				34.64742660522461
			],
			"min":[
				31.939830780029297,
				-0.8077173233032227,
				29.165855407714844
			],
			"type":"VEC3"
		},
		{
			"bufferView":29,
			"componentType":5126,
			"count":1239,
			"type":"VEC3"
		},
		{
			"bufferView":30,
			"componentType":5126,
			"count":1239,
			"type":"VEC2"
		},
		{
			"bufferView":31,
			"componentType":5123,
			"count":2112,
			"type":"SCALAR"
		},
		{
			"bufferView":32,
			"componentType":5126,
			"count":213,
			"max":[
				37.42361068725586,
				2.0047826766967773,
				34.670204162597656
			],
			"min":[
				31.936052322387695,
				-0.995338499546051,
				29.128808975219727
			],
			"type":"VEC3"
		},
		{
			"bufferView":33,
			"componentType":5126,
			"count":213,
			"type":"VEC3"
		},
		{
			"bufferView":34,
			"componentType":5126,
			"count":213,
			"type":"VEC2"
		},
		{
			"bufferView":35,
			"componentType":5123,
			"count":432,
			"type":"SCALAR"
		},
		{
			"bufferView":36,
			"componentType":5126,
			"count":353,
			"max":[
				37.42140197753906,
				-0.9952173233032227,
				34.64742660522461
			],
			"min":[
				31.939830780029297,
				-3.9952173233032227,
				29.165855407714844
			],
			"type":"VEC3"
		},
		{
			"bufferView":37,
			"componentType":5126,
			"count":353,
			"type":"VEC3"
		},
		{
			"bufferView":38,
			"componentType":5126,
			"count":353,
			"type":"VEC2"
		},
		{
			"bufferView":39,
			"componentType":5123,
			"count":999,
			"type":"SCALAR"
		},
		{
			"bufferView":40,
			"componentType":5126,
			"count":19,
			"max":[
				37.42140197753906,
				-0.9952173233032227,
				34.64742660522461
			],
			"min":[
				31.939830780029297,
				-0.9952173233032227,
				29.165855407714844
			],
			"type":"VEC3"
		},
		{
			"bufferView":41,
			"componentType":5126,
			"count":19,
			"type":"VEC3"
		},
		{
			"bufferView":42,
			"componentType":5126,
			"count":19,
			"type":"VEC2"
		},
		{
			"bufferView":43,
			"componentType":5123,
			"count":27,
			"type":"SCALAR"
		},
		{
			"bufferView":44,
			"componentType":5126,
			"count":106,
			"max":[
				37.42140197753906,
				-1.2530298233032227,
				34.64742660522461
			],
			"min":[
				31.939830780029297,
				-3.9952173233032227,
				29.165855407714844
			],
			"type":"VEC3"
		},
		{
			"bufferView":45,
			"componentType":5126,
			"count":106,
			"type":"VEC3"
		},
		{
			"bufferView":46,
			"componentType":5126,
			"count":106,
			"type":"VEC2"
		},
		{
			"bufferView":47,
			"componentType":5123,
			"count":336,
			"type":"SCALAR"
		},
		{
			"bufferView":48,
			"componentType":5126,
			"count":84,
			"max":[
				37.42140197753906,
				2.0047826766967773,
				34.647525787353516
			],
			"min":[
				31.939830780029297,
				-1.047368049621582,
				29.165855407714844
			],
			"type":"VEC3"
		},
		{
			"bufferView":49,
			"componentType":5126,
			"count":84,
			"type":"VEC3"
		},
		{
			"bufferView":50,
			"componentType":5126,
			"count":84,
			"type":"VEC2"
		},
		{
			"bufferView":51,
			"componentType":5123,
			"count":330,
			"type":"SCALAR"
		},
		{
			"bufferView":52,
			"componentType":5126,
			"count":475,
			"max":[
				37.42140197753906,
				-0.9952173233032227,
				34.64742660522461
			],
			"min":[
				31.939830780029297,
				-3.9952173233032227,
				29.165855407714844
			],
			"type":"VEC3"
		},
		{
			"bufferView":53,
			"componentType":5126,
			"count":475,
			"type":"VEC3"
		},
		{
			"bufferView":54,
			"componentType":5126,
			"count":475,
			"type":"VEC2"
		},
		{
			"bufferView":55,
			"componentType":5123,
			"count":1881,
			"type":"SCALAR"
		},
		{
			"bufferView":56,
			"componentType":5126,
			"count":105,
			"max":[
				37.421512603759766,
				4.9514360427856445,
				34.64850616455078
			],
			"min":[
				31.939830780029297,
				-0.9952173233032227,
				29.165855407714844
			],
			"type":"VEC3"
		},
		{
			"bufferView":57,
			"componentType":5126,
			"count":105,
			"type":"VEC3"
		},
		{
			"bufferView":58,
			"componentType":5126,
			"count":105,
			"type":"VEC2"
		},
		{
			"bufferView":59,
			"componentType":5123,
			"count":243,
			"type":"SCALAR"
		},
		{
			"bufferView":60,
			"componentType":5126,
			"count":112,
			"max":[
				37.29896926879883,
				3.060237407684326,
				34.57025146484375
			],
			"min":[
				31.979326248168945,
				-0.2663084864616394,
				29.22571563720703
			],
			"type":"VEC3"
		},
		{
			"bufferView":61,
			"componentType":5126,
			"count":112,
			"type":"VEC3"
		},
		{
			"bufferView":62,
			"componentType":5126,
			"count":112,
			"type":"VEC2"
		},
		{
			"bufferView":63,
			"componentType":5123,
			"count":180,
			"type":"SCALAR"
		}
	],
	"bufferViews":[
		{
			"buffer":0,
			"byteLength":122652,
			"byteOffset":0,
			"target":34962
		},
		{
			"buffer":0,
			"byteLength":122652,
			"byteOffset":122652,
			"target":34962
		},
		{
			"buffer":0,
			"byteLength":81768,
			"byteOffset":245304,
			"target":34962
		},
		{
			"buffer":0,
			"byteLength":120162,
			"byteOffset":327072,
			"target":34963
		},
		{
			"buffer":0,
			"byteLength":33876,
			"byteOffset":447236,
			"target":34962
		},
		{
			"buffer":0,
			"byteLength":33876,
			"byteOffset":481112,
			"target":34962
		},
		{
			"buffer":0,
			"byteLength":22584,
			"byteOffset":514988,
			"target":34962
		},
		{
			"buffer":0,
			"byteLength":26136,
			"byteOffset":537572,
			"target":34963
		},
		{
			"buffer":0,
			"byteLength":2160,
			"byteOffset":563708,
			"target":34962
		},
		{
			"buffer":0,
			"byteLength":2160,
			"byteOffset":565868,
			"target":34962
		},
		{
			"buffer":0,
			"byteLength":1440,
			"byteOffset":568028,
			"target":34962
		},
		{
			"buffer":0,
			"byteLength":720,
			"byteOffset":569468,
			"target":34963
		},
		{
			"buffer":0,
			"byteLength":48,
			"byteOffset":570188,
			"target":34962
		},
		{
			"buffer":0,
			"byteLength":48,
			"byteOffset":570236,
			"target":34962
		},
		{
			"buffer":0,
			"byteLength":32,
			"byteOffset":570284,
			"target":34962
		},
		{
			"buffer":0,
			"byteLength":12,
			"byteOffset":570316,
			"target":34963
		},
		{
			"buffer":0,
			"byteLength":1368,
			"byteOffset":570328,
			"target":34962
		},
		{
			"buffer":0,
			"byteLength":1368,
			"byteOffset":571696,
			"target":34962
		},
		{
			"buffer":0,
			"byteLength":912,
			"byteOffset":573064,
			"target":34962
		},
		{
			"buffer":0,
			"byteLength":402,
			"byteOffset":573976,
			"target":34963
		},
		{
			"buffer":0,
			"byteLength":7680,
			"byteOffset":574380,
			"target":34962
		},
		{
			"buffer":0,
			"byteLength":7680,
			"byteOffset":582060,
			"target":34962
		},
		{
			"buffer":0,
			"byteLength":5120,
			"byteOffset":589740,
			"target":34962
		},
		{
			"buffer":0,
			"byteLength":1890,
			"byteOffset":594860,
			"target":34963
		},
		{
			"buffer":0,
			"byteLength":48,
			"byteOffset":596752,
			"target":34962
		},
		{
			"buffer":0,
			"byteLength":48,
			"byteOffset":596800,
			"target":34962
		},
		{
			"buffer":0,
			"byteLength":32,
			"byteOffset":596848,
			"target":34962
		},
		{
			"buffer":0,
			"byteLength":12,
			"byteOffset":596880,
			"target":34963
		},
		{
			"buffer":0,
			"byteLength":14868,
			"byteOffset":596892,
			"target":34962
		},
		{
			"buffer":0,
			"byteLength":14868,
			"byteOffset":611760,
			"target":34962
		},
		{
			"buffer":0,
			"byteLength":9912,
			"byteOffset":626628,
			"target":34962
		},
		{
			"buffer":0,
			"byteLength":4224,
			"byteOffset":636540,
			"target":34963
		},
		{
			"buffer":0,
			"byteLength":2556,
			"byteOffset":640764,
			"target":34962
		},
		{
			"buffer":0,
			"byteLength":2556,
			"byteOffset":643320,
			"target":34962
		},
		{
			"buffer":0,
			"byteLength":1704,
			"byteOffset":645876,
			"target":34962
		},
		{
			"buffer":0,
			"byteLength":864,
			"byteOffset":647580,
			"target":34963
		},
		{
			"buffer":0,
			"byteLength":4236,
			"byteOffset":648444,
			"target":34962
		},
		{
			"buffer":0,
			"byteLength":4236,
			"byteOffset":652680,
			"target":34962
		},
		{
			"buffer":0,
			"byteLength":2824,
			"byteOffset":656916,
			"target":34962
		},
		{
			"buffer":0,
			"byteLength":1998,
			"byteOffset":659740,
			"target":34963
		},
		{
			"buffer":0,
			"byteLength":228,
			"byteOffset":661740,
			"target":34962
		},
		{
			"buffer":0,
			"byteLength":228,
			"byteOffset":661968,
			"target":34962
		},
		{
			"buffer":0,
			"byteLength":152,
			"byteOffset":662196,
			"target":34962
		},
		{
			"buffer":0,
			"byteLength":54,
			"byteOffset":662348,
			"target":34963
		},
		{
			"buffer":0,
			"byteLength":1272,
			"byteOffset":662404,
			"target":34962
		},
		{
			"buffer":0,
			"byteLength":1272,
			"byteOffset":663676,
			"target":34962
		},
		{
			"buffer":0,
			"byteLength":848,
			"byteOffset":664948,
			"target":34962
		},
		{
			"buffer":0,
			"byteLength":672,
			"byteOffset":665796,
			"target":34963
		},
		{
			"buffer":0,
			"byteLength":1008,
			"byteOffset":666468,
			"target":34962
		},
		{
			"buffer":0,
			"byteLength":1008,
			"byteOffset":667476,
			"target":34962
		},
		{
			"buffer":0,
			"byteLength":672,
			"byteOffset":668484,
			"target":34962
		},
		{
			"buffer":0,
			"byteLength":660,
			"byteOffset":669156,
			"target":34963
		},
		{
			"buffer":0,
			"byteLength":5700,
			"byteOffset":669816,
			"target":34962
		},
		{
			"buffer":0,
			"byteLength":5700,
			"byteOffset":675516,
			"target":34962
		},
		{
			"buffer":0,
			"byteLength":3800,
			"byteOffset":681216,
			"target":34962
		},
		{
			"buffer":0,
			"byteLength":3762,
			"byteOffset":685016,
			"target":34963
		},
		{
			"buffer":0,
			"byteLength":1260,
			"byteOffset":688780,
			"target":34962
		},
		{
			"buffer":0,
			"byteLength":1260,
			"byteOffset":690040,
			"target":34962
		},
		{
			"buffer":0,
			"byteLength":840,
			"byteOffset":691300,
			"target":34962
		},
		{
			"buffer":0,
			"byteLength":486,
			"byteOffset":692140,
			"target":34963
		},
		{
			"buffer":0,
			"byteLength":1344,
			"byteOffset":692628,
			"target":34962
		},
		{
			"buffer":0,
			"byteLength":1344,
			"byteOffset":693972,
			"target":34962
		},
		{
			"buffer":0,
			"byteLength":896,
			"byteOffset":695316,
			"target":34962
		},
		{
			"buffer":0,
			"byteLength":360,
			"byteOffset":696212,
			"target":34963
		}
	],
	"samplers":[
		{
			"magFilter":9729,
			"minFilter":9987
		}
	],
	"buffers":[
		{
			"byteLength":696572,
			"uri":"floor.bin"
		}
	]
}
