{
	"asset":{
		"generator":"Khronos glTF Blender I/O v4.3.47",
		"version":"2.0"
	},
	"scene":0,
	"scenes":[
		{
			"name":"Scene",
			"nodes":[
				0
			]
		}
	],
	"nodes":[
		{
			"mesh":0,
			"name":"Icosphere"
		}
	],
	"materials":[
		{
			"doubleSided":true,
			"name":"Material.001",
			"pbrMetallicRoughness":{
				"baseColorTexture":{
					"index":0
				},
				"metallicFactor":0
			}
		},
		{
			"doubleSided":true,
			"emissiveFactor":[
				0.09769914759998599,
				0,
				0.09999999403953552
			],
			"name":"Material.003",
			"pbrMetallicRoughness":{
				"baseColorFactor":[
					0.804146945476532,
					0.3680989742279053,
					0,
					1
				],
				"metallicFactor":0.7222222089767456,
				"roughnessFactor":0.2777777910232544
			}
		}
	],
	"meshes":[
		{
			"name":"Icosphere",
			"primitives":[
				{
					"attributes":{
						"POSITION":0,
						"NORMAL":1,
						"TEXCOORD_0":2
					},
					"indices":3,
					"material":0
				},
				{
					"attributes":{
						"POSITION":4,
						"NORMAL":5,
						"TEXCOORD_0":6
					},
					"indices":7,
					"material":1
				}
			]
		}
	],
	"textures":[
		{
			"sampler":0,
			"source":0
		}
	],
	"images":[
		{
			"mimeType":"image/jpeg",
			"name":"4geode",
			"uri":"4geode.jpg"
		}
	],
	"accessors":[
		{
			"bufferView":0,
			"componentType":5126,
			"count":960,
			"max":[
				2.0317046642303467,
				2.100414991378784,
				1.9842740297317505
			],
			"min":[
				-2.042921304702759,
				-2.036768913269043,
				-2.150667667388916
			],
			"type":"VEC3"
		},
		{
			"bufferView":1,
			"componentType":5126,
			"count":960,
			"type":"VEC3"
		},
		{
			"bufferView":2,
			"componentType":5126,
			"count":960,
			"type":"VEC2"
		},
		{
			"bufferView":3,
			"componentType":5123,
			"count":960,
			"type":"SCALAR"
		},
		{
			"bufferView":4,
			"componentType":5126,
			"count":670,
			"max":[
				1.349808692932129,
				1.753619909286499,
				1.4621845483779907
			],
			"min":[
				-1.6392689943313599,
				-1.2925784587860107,
				-1.5042697191238403
			],
			"type":"VEC3"
		},
		{
			"bufferView":5,
			"componentType":5126,
			"count":670,
			"type":"VEC3"
		},
		{
			"bufferView":6,
			"componentType":5126,
			"count":670,
			"type":"VEC2"
		},
		{
			"bufferView":7,
			"componentType":5123,
			"count":840,
			"type":"SCALAR"
		}
	],
	"bufferViews":[
		{
			"buffer":0,
			"byteLength":11520,
			"byteOffset":0,
			"target":34962
		},
		{
			"buffer":0,
			"byteLength":11520,
			"byteOffset":11520,
			"target":34962
		},
		{
			"buffer":0,
			"byteLength":7680,
			"byteOffset":23040,
			"target":34962
		},
		{
			"buffer":0,
			"byteLength":1920,
			"byteOffset":30720,
			"target":34963
		},
		{
			"buffer":0,
			"byteLength":8040,
			"byteOffset":32640,
			"target":34962
		},
		{
			"buffer":0,
			"byteLength":8040,
			"byteOffset":40680,
			"target":34962
		},
		{
			"buffer":0,
			"byteLength":5360,
			"byteOffset":48720,
			"target":34962
		},
		{
			"buffer":0,
			"byteLength":1680,
			"byteOffset":54080,
			"target":34963
		}
	],
	"samplers":[
		{
			"magFilter":9729,
			"minFilter":9987
		}
	],
	"buffers":[
		{
			"byteLength":55760,
			"uri":"geode.bin"
		}
	]
}
