{
	"asset":{
		"generator":"Khronos glTF Blender I/O v4.3.47",
		"version":"2.0"
	},
	"extensionsUsed":[
		"KHR_materials_specular"
	],
	"scene":0,
	"scenes":[
		{
			"name":"Scene",
			"nodes":[
				0
			]
		}
	],
	"nodes":[
		{
			"mesh":0,
			"name":"Circle.002",
			"rotation":[
				-0.24818368256092072,
				0.20189645886421204,
				0.014368155971169472,
				0.9473311305046082
			],
			"scale":[
				0.5512737035751343,
				0.6614615321159363,
				0.5853789448738098
			],
			"translation":[
				-0.37492942810058594,
				0,
				-0.22892634570598602
			]
		}
	],
	"materials":[
		{
			"doubleSided":true,
			"emissiveFactor":[
				0.001614953415318629,
				0.05000000074505806,
				0
			],
			"extensions":{
				"KHR_materials_specular":{
					"specularFactor":0
				}
			},
			"name":"Material.001",
			"pbrMetallicRoughness":{
				"baseColorFactor":[
					0.015580889768898487,
					0.8018496036529541,
					0,
					1
				],
				"metallicFactor":0.82677161693573,
				"roughnessFactor":0.27165353298187256
			}
		}
	],
	"meshes":[
		{
			"name":"Circle.002",
			"primitives":[
				{
					"attributes":{
						"POSITION":0,
						"NORMAL":1,
						"TEXCOORD_0":2
					},
					"indices":3,
					"material":0
				}
			]
		}
	],
	"accessors":[
		{
			"bufferView":0,
			"componentType":5126,
			"count":120,
			"max":[
				2.0419650077819824,
				6.354711532592773,
				5.228790283203125
			],
			"min":[
				-3.3579306602478027,
				-0.9211750030517578,
				-1.1196491718292236
			],
			"type":"VEC3"
		},
		{
			"bufferView":1,
			"componentType":5126,
			"count":120,
			"type":"VEC3"
		},
		{
			"bufferView":2,
			"componentType":5126,
			"count":120,
			"type":"VEC2"
		},
		{
			"bufferView":3,
			"componentType":5123,
			"count":162,
			"type":"SCALAR"
		}
	],
	"bufferViews":[
		{
			"buffer":0,
			"byteLength":1440,
			"byteOffset":0,
			"target":34962
		},
		{
			"buffer":0,
			"byteLength":1440,
			"byteOffset":1440,
			"target":34962
		},
		{
			"buffer":0,
			"byteLength":960,
			"byteOffset":2880,
			"target":34962
		},
		{
			"buffer":0,
			"byteLength":324,
			"byteOffset":3840,
			"target":34963
		}
	],
	"buffers":[
		{
			"byteLength":4164,
			"uri":"green%20crystal.bin"
		}
	]
}
