{
	"asset":{
		"generator":"Khronos glTF Blender I/O v4.3.47",
		"version":"2.0"
	},
	"scene":0,
	"scenes":[
		{
			"name":"Scene",
			"nodes":[
				0
			]
		}
	],
	"nodes":[
		{
			"mesh":0,
			"name":"Circle"
		}
	],
	"materials":[
		{
			"doubleSided":true,
			"name":"Material.001",
			"pbrMetallicRoughness":{
				"baseColorFactor":[
					0.022616537287831306,
					0.052200838923454285,
					0.02233060449361801,
					1
				],
				"metallicFactor":0.8425197005271912,
				"roughnessFactor":0.4527558982372284
			}
		},
		{
			"doubleSided":true,
			"name":"Material.002",
			"pbrMetallicRoughness":{
				"baseColorFactor":[
					0.22593507170677185,
					0.17645102739334106,
					0.05312304198741913,
					1
				],
				"metallicFactor":0.748031497001648,
				"roughnessFactor":0.5
			}
		},
		{
			"doubleSided":true,
			"emissiveFactor":[
				0.19999998807907104,
				0.18973416151200695,
				0.10037587282801397
			],
			"name":"Material.003",
			"pbrMetallicRoughness":{
				"baseColorTexture":{
					"index":0
				},
				"metallicFactor":0,
				"roughnessFactor":0.5
			}
		}
	],
	"meshes":[
		{
			"name":"Circle",
			"primitives":[
				{
					"attributes":{
						"POSITION":0,
						"NORMAL":1,
						"TEXCOORD_0":2
					},
					"indices":3,
					"material":0
				},
				{
					"attributes":{
						"POSITION":4,
						"NORMAL":5,
						"TEXCOORD_0":6
					},
					"indices":7,
					"material":1
				},
				{
					"attributes":{
						"POSITION":8,
						"NORMAL":9,
						"TEXCOORD_0":10
					},
					"indices":11,
					"material":2
				}
			]
		}
	],
	"textures":[
		{
			"sampler":0,
			"source":0
		}
	],
	"images":[
		{
			"mimeType":"image/png",
			"name":"image",
			"uri":"image.png"
		}
	],
	"accessors":[
		{
			"bufferView":0,
			"componentType":5126,
			"count":112,
			"max":[
				0.10000000149011612,
				0.16152417659759521,
				0.10000000149011612
			],
			"min":[
				-0.10000000149011612,
				0,
				-0.18491539359092712
			],
			"type":"VEC3"
		},
		{
			"bufferView":1,
			"componentType":5126,
			"count":112,
			"type":"VEC3"
		},
		{
			"bufferView":2,
			"componentType":5126,
			"count":112,
			"type":"VEC2"
		},
		{
			"bufferView":3,
			"componentType":5123,
			"count":594,
			"type":"SCALAR"
		},
		{
			"bufferView":4,
			"componentType":5126,
			"count":160,
			"max":[
				0.011255696415901184,
				0.2506631016731262,
				0.06840017437934875
			],
			"min":[
				-0.014020862057805061,
				0.04256921261548996,
				-0.11884721368551254
			],
			"type":"VEC3"
		},
		{
			"bufferView":5,
			"componentType":5126,
			"count":160,
			"type":"VEC3"
		},
		{
			"bufferView":6,
			"componentType":5126,
			"count":160,
			"type":"VEC2"
		},
		{
			"bufferView":7,
			"componentType":5123,
			"count":912,
			"type":"SCALAR"
		},
		{
			"bufferView":8,
			"componentType":5126,
			"count":17,
			"max":[
				0.04289337247610092,
				0.1440041959285736,
				-0.11545299738645554
			],
			"min":[
				-0.04656639322638512,
				0.08324747532606125,
				-0.18111653625965118
			],
			"type":"VEC3"
		},
		{
			"bufferView":9,
			"componentType":5126,
			"count":17,
			"type":"VEC3"
		},
		{
			"bufferView":10,
			"componentType":5126,
			"count":17,
			"type":"VEC2"
		},
		{
			"bufferView":11,
			"componentType":5123,
			"count":72,
			"type":"SCALAR"
		}
	],
	"bufferViews":[
		{
			"buffer":0,
			"byteLength":1344,
			"byteOffset":0,
			"target":34962
		},
		{
			"buffer":0,
			"byteLength":1344,
			"byteOffset":1344,
			"target":34962
		},
		{
			"buffer":0,
			"byteLength":896,
			"byteOffset":2688,
			"target":34962
		},
		{
			"buffer":0,
			"byteLength":1188,
			"byteOffset":3584,
			"target":34963
		},
		{
			"buffer":0,
			"byteLength":1920,
			"byteOffset":4772,
			"target":34962
		},
		{
			"buffer":0,
			"byteLength":1920,
			"byteOffset":6692,
			"target":34962
		},
		{
			"buffer":0,
			"byteLength":1280,
			"byteOffset":8612,
			"target":34962
		},
		{
			"buffer":0,
			"byteLength":1824,
			"byteOffset":9892,
			"target":34963
		},
		{
			"buffer":0,
			"byteLength":204,
			"byteOffset":11716,
			"target":34962
		},
		{
			"buffer":0,
			"byteLength":204,
			"byteOffset":11920,
			"target":34962
		},
		{
			"buffer":0,
			"byteLength":136,
			"byteOffset":12124,
			"target":34962
		},
		{
			"buffer":0,
			"byteLength":144,
			"byteOffset":12260,
			"target":34963
		}
	],
	"samplers":[
		{
			"magFilter":9729,
			"minFilter":9987
		}
	],
	"buffers":[
		{
			"byteLength":12404,
			"uri":"lamp.bin"
		}
	]
}
