{
	"asset":{
		"generator":"Khronos glTF Blender I/O v4.3.47",
		"version":"2.0"
	},
	"scene":0,
	"scenes":[
		{
			"name":"Scene",
			"nodes":[
				0,
				1,
				2,
				3,
				4,
				5,
				6,
				7
			]
		}
	],
	"nodes":[
		{
			"mesh":0,
			"name":"the changbang",
			"translation":[
				0,
				1,
				2.092379331588745
			]
		},
		{
			"mesh":1,
			"name":"railings",
			"translation":[
				0,
				1,
				2.092379331588745
			]
		},
		{
			"mesh":2,
			"name":"glass",
			"translation":[
				0,
				1,
				2.092379331588745
			]
		},
		{
			"mesh":3,
			"name":"window seals",
			"translation":[
				0,
				1,
				2.092379331588745
			]
		},
		{
			"mesh":4,
			"name":"door frame",
			"translation":[
				0,
				1,
				2.092379331588745
			]
		},
		{
			"mesh":5,
			"name":"window frame",
			"translation":[
				0,
				1,
				2.092379331588745
			]
		},
		{
			"mesh":6,
			"name":"magic threshold",
			"translation":[
				0,
				1,
				2.092379331588745
			]
		},
		{
			"mesh":7,
			"name":"magic wall mesh",
			"translation":[
				0,
				1,
				2.092379331588745
			]
		}
	],
	"materials":[
		{
			"doubleSided":true,
			"name":"drywall",
			"pbrMetallicRoughness":{
				"baseColorTexture":{
					"index":0
				},
				"metallicFactor":0
			}
		},
		{
			"doubleSided":true,
			"name":"redshingles",
			"pbrMetallicRoughness":{
				"baseColorTexture":{
					"index":1
				},
				"metallicFactor":0
			}
		},
		{
			"doubleSided":true,
			"name":"wooden tiles",
			"pbrMetallicRoughness":{
				"baseColorTexture":{
					"index":2
				},
				"metallicFactor":0,
				"roughnessFactor":0.6752577424049377
			}
		},
		{
			"doubleSided":true,
			"name":"concrete floor",
			"pbrMetallicRoughness":{
				"baseColorTexture":{
					"index":3
				},
				"metallicFactor":0,
				"roughnessFactor":0.5
			}
		},
		{
			"doubleSided":true,
			"name":"geode",
			"pbrMetallicRoughness":{
				"baseColorTexture":{
					"index":4
				},
				"metallicFactor":0
			}
		},
		{
			"doubleSided":true,
			"name":"gold",
			"pbrMetallicRoughness":{
				"baseColorFactor":[
					0.8006705641746521,
					0.3058573603630066,
					0.0006720847450196743,
					1
				],
				"metallicFactor":0.6288659572601318,
				"roughnessFactor":0.5
			}
		},
		{
			"doubleSided":true,
			"name":"frame wood",
			"pbrMetallicRoughness":{
				"baseColorTexture":{
					"index":5
				},
				"metallicFactor":0
			}
		},
		{
			"alphaMode":"BLEND",
			"doubleSided":true,
			"name":"Material.001",
			"pbrMetallicRoughness":{
				"baseColorFactor":[
					0.22091567516326904,
					0.5768613219261169,
					0.8003778457641602,
					0.4140625
				],
				"metallicFactor":0.8125,
				"roughnessFactor":0
			}
		}
	],
	"meshes":[
		{
			"name":"Cube.001",
			"primitives":[
				{
					"attributes":{
						"POSITION":0,
						"NORMAL":1,
						"TEXCOORD_0":2
					},
					"indices":3,
					"material":0
				},
				{
					"attributes":{
						"POSITION":4,
						"NORMAL":5,
						"TEXCOORD_0":6
					},
					"indices":7,
					"material":1
				},
				{
					"attributes":{
						"POSITION":8,
						"NORMAL":9,
						"TEXCOORD_0":10
					},
					"indices":11,
					"material":2
				},
				{
					"attributes":{
						"POSITION":12,
						"NORMAL":13,
						"TEXCOORD_0":14
					},
					"indices":15,
					"material":3
				},
				{
					"attributes":{
						"POSITION":16,
						"NORMAL":17,
						"TEXCOORD_0":18
					},
					"indices":19,
					"material":4
				},
				{
					"attributes":{
						"POSITION":20,
						"NORMAL":21,
						"TEXCOORD_0":22
					},
					"indices":23,
					"material":5
				}
			]
		},
		{
			"name":"Cube.009",
			"primitives":[
				{
					"attributes":{
						"POSITION":24,
						"NORMAL":25,
						"TEXCOORD_0":26
					},
					"indices":27,
					"material":6
				}
			]
		},
		{
			"name":"Cube.010",
			"primitives":[
				{
					"attributes":{
						"POSITION":28,
						"NORMAL":29,
						"TEXCOORD_0":30
					},
					"indices":31,
					"material":7
				}
			]
		},
		{
			"name":"Cube.011",
			"primitives":[
				{
					"attributes":{
						"POSITION":32,
						"NORMAL":33,
						"TEXCOORD_0":34
					},
					"indices":35,
					"material":3
				},
				{
					"attributes":{
						"POSITION":36,
						"NORMAL":37,
						"TEXCOORD_0":38
					},
					"indices":39,
					"material":7
				}
			]
		},
		{
			"name":"Cube.015",
			"primitives":[
				{
					"attributes":{
						"POSITION":40,
						"NORMAL":41,
						"TEXCOORD_0":42
					},
					"indices":43,
					"material":6
				}
			]
		},
		{
			"name":"Cube.016",
			"primitives":[
				{
					"attributes":{
						"POSITION":44,
						"NORMAL":45,
						"TEXCOORD_0":46
					},
					"indices":47,
					"material":6
				},
				{
					"attributes":{
						"POSITION":48,
						"NORMAL":49,
						"TEXCOORD_0":50
					},
					"indices":51,
					"material":7
				}
			]
		},
		{
			"name":"Cube.017",
			"primitives":[
				{
					"attributes":{
						"POSITION":52,
						"NORMAL":53,
						"TEXCOORD_0":54
					},
					"indices":55,
					"material":6
				}
			]
		},
		{
			"name":"Cube.018",
			"primitives":[
				{
					"attributes":{
						"POSITION":56,
						"NORMAL":57,
						"TEXCOORD_0":58
					},
					"indices":59,
					"material":0
				}
			]
		}
	],
	"textures":[
		{
			"sampler":0,
			"source":0
		},
		{
			"sampler":0,
			"source":1
		},
		{
			"sampler":0,
			"source":2
		},
		{
			"sampler":0,
			"source":3
		},
		{
			"sampler":0,
			"source":4
		},
		{
			"sampler":0,
			"source":5
		}
	],
	"images":[
		{
			"mimeType":"image/jpeg",
			"name":"drywall",
			"uri":"drywall.jpg"
		},
		{
			"mimeType":"image/jpeg",
			"name":"shinglesred",
			"uri":"shinglesred.jpg"
		},
		{
			"mimeType":"image/jpeg",
			"name":"better wooden floor",
			"uri":"better%20wooden%20floor.jpg"
		},
		{
			"mimeType":"image/jpeg",
			"name":"concrete floor",
			"uri":"concrete%20floor.jpg"
		},
		{
			"mimeType":"image/jpeg",
			"name":"4geode",
			"uri":"4geode.jpg"
		},
		{
			"mimeType":"image/jpeg",
			"name":"frame wood",
			"uri":"frame%20wood.jpg"
		}
	],
	"accessors":[
		{
			"bufferView":0,
			"componentType":5126,
			"count":1839,
			"max":[
				1.165834665298462,
				6.279656410217285,
				1.7738081216812134
			],
			"min":[
				-1.1919760704040527,
				-1.3973759412765503,
				-3.3202409744262695
			],
			"type":"VEC3"
		},
		{
			"bufferView":1,
			"componentType":5126,
			"count":1839,
			"type":"VEC3"
		},
		{
			"bufferView":2,
			"componentType":5126,
			"count":1839,
			"type":"VEC2"
		},
		{
			"bufferView":3,
			"componentType":5123,
			"count":3018,
			"type":"SCALAR"
		},
		{
			"bufferView":4,
			"componentType":5126,
			"count":712,
			"max":[
				1.1969242095947266,
				6.695910453796387,
				1.7487314939498901
			],
			"min":[
				-1.203291654586792,
				0.27757999300956726,
				-3.0558223724365234
			],
			"type":"VEC3"
		},
		{
			"bufferView":5,
			"componentType":5126,
			"count":712,
			"type":"VEC3"
		},
		{
			"bufferView":6,
			"componentType":5126,
			"count":712,
			"type":"VEC2"
		},
		{
			"bufferView":7,
			"componentType":5123,
			"count":1110,
			"type":"SCALAR"
		},
		{
			"bufferView":8,
			"componentType":5126,
			"count":664,
			"max":[
				1.1969242095947266,
				6.647665500640869,
				1.7487314939498901
			],
			"min":[
				-1.203291654586792,
				0.27757999300956726,
				-3.2649989128112793
			],
			"type":"VEC3"
		},
		{
			"bufferView":9,
			"componentType":5126,
			"count":664,
			"type":"VEC3"
		},
		{
			"bufferView":10,
			"componentType":5126,
			"count":664,
			"type":"VEC2"
		},
		{
			"bufferView":11,
			"componentType":5123,
			"count":1080,
			"type":"SCALAR"
		},
		{
			"bufferView":12,
			"componentType":5126,
			"count":1103,
			"max":[
				1.6067490577697754,
				5.261993885040283,
				1.5700657367706299
			],
			"min":[
				-0.9509723782539368,
				-1.3973759412765503,
				-2.975687026977539
			],
			"type":"VEC3"
		},
		{
			"bufferView":13,
			"componentType":5126,
			"count":1103,
			"type":"VEC3"
		},
		{
			"bufferView":14,
			"componentType":5126,
			"count":1103,
			"type":"VEC2"
		},
		{
			"bufferView":15,
			"componentType":5123,
			"count":1869,
			"type":"SCALAR"
		},
		{
			"bufferView":16,
			"componentType":5126,
			"count":299,
			"max":[
				1.165834665298462,
				-0.6615819931030273,
				1.7738081216812134
			],
			"min":[
				-1.1919760704040527,
				-1.3973759412765503,
				-3.3202409744262695
			],
			"type":"VEC3"
		},
		{
			"bufferView":17,
			"componentType":5126,
			"count":299,
			"type":"VEC3"
		},
		{
			"bufferView":18,
			"componentType":5126,
			"count":299,
			"type":"VEC2"
		},
		{
			"bufferView":19,
			"componentType":5123,
			"count":453,
			"type":"SCALAR"
		},
		{
			"bufferView":20,
			"componentType":5126,
			"count":144,
			"max":[
				0.7659450173377991,
				7.368370532989502,
				-1.3264343738555908
			],
			"min":[
				-0.7659450173377991,
				3.8828892707824707,
				-2.8583242893218994
			],
			"type":"VEC3"
		},
		{
			"bufferView":21,
			"componentType":5126,
			"count":144,
			"type":"VEC3"
		},
		{
			"bufferView":22,
			"componentType":5126,
			"count":144,
			"type":"VEC2"
		},
		{
			"bufferView":23,
			"componentType":5123,
			"count":360,
			"type":"SCALAR"
		},
		{
			"bufferView":24,
			"componentType":5126,
			"count":1988,
			"max":[
				1.0622267723083496,
				5.498055458068848,
				-1.0408260822296143
			],
			"min":[
				-1.0622267723083496,
				4.017521381378174,
				-3.143932819366455
			],
			"type":"VEC3"
		},
		{
			"bufferView":25,
			"componentType":5126,
			"count":1988,
			"type":"VEC3"
		},
		{
			"bufferView":26,
			"componentType":5126,
			"count":1988,
			"type":"VEC2"
		},
		{
			"bufferView":27,
			"componentType":5123,
			"count":3456,
			"type":"SCALAR"
		},
		{
			"bufferView":28,
			"componentType":5126,
			"count":128,
			"max":[
				0.6791978478431702,
				6.2423906326293945,
				-1.4131815433502197
			],
			"min":[
				-0.6791977286338806,
				5.1872663497924805,
				-2.7715771198272705
			],
			"type":"VEC3"
		},
		{
			"bufferView":29,
			"componentType":5126,
			"count":128,
			"type":"VEC3"
		},
		{
			"bufferView":30,
			"componentType":5126,
			"count":128,
			"type":"VEC2"
		},
		{
			"bufferView":31,
			"componentType":5123,
			"count":240,
			"type":"SCALAR"
		},
		{
			"bufferView":32,
			"componentType":5126,
			"count":624,
			"max":[
				0.9825828075408936,
				3.63006591796875,
				-1.9338266849517822
			],
			"min":[
				0.6520572900772095,
				-0.09712298959493637,
				-2.250931739807129
			],
			"type":"VEC3"
		},
		{
			"bufferView":33,
			"componentType":5126,
			"count":624,
			"type":"VEC3"
		},
		{
			"bufferView":34,
			"componentType":5126,
			"count":624,
			"type":"VEC2"
		},
		{
			"bufferView":35,
			"componentType":5123,
			"count":1176,
			"type":"SCALAR"
		},
		{
			"bufferView":36,
			"componentType":5126,
			"count":28,
			"max":[
				0.8930583000183105,
				3.5594770908355713,
				-1.9512670040130615
			],
			"min":[
				0.72269606590271,
				-0.07679272443056107,
				-2.2334916591644287
			],
			"type":"VEC3"
		},
		{
			"bufferView":37,
			"componentType":5126,
			"count":28,
			"type":"VEC3"
		},
		{
			"bufferView":38,
			"componentType":5126,
			"count":28,
			"type":"VEC2"
		},
		{
			"bufferView":39,
			"componentType":5123,
			"count":60,
			"type":"SCALAR"
		},
		{
			"bufferView":40,
			"componentType":5126,
			"count":119,
			"max":[
				1.1369123458862305,
				0.3810509145259857,
				1.1038551330566406
			],
			"min":[
				0.8952518105506897,
				-1.17108154296875,
				0.4644712805747986
			],
			"type":"VEC3"
		},
		{
			"bufferView":41,
			"componentType":5126,
			"count":119,
			"type":"VEC3"
		},
		{
			"bufferView":42,
			"componentType":5126,
			"count":119,
			"type":"VEC2"
		},
		{
			"bufferView":43,
			"componentType":5123,
			"count":240,
			"type":"SCALAR"
		},
		{
			"bufferView":44,
			"componentType":5126,
			"count":213,
			"max":[
				1.0727870464324951,
				0.34268718957901,
				-0.08024033904075623
			],
			"min":[
				0.8548617362976074,
				-0.2710050046443939,
				-0.5165959596633911
			],
			"type":"VEC3"
		},
		{
			"bufferView":45,
			"componentType":5126,
			"count":213,
			"type":"VEC3"
		},
		{
			"bufferView":46,
			"componentType":5126,
			"count":213,
			"type":"VEC2"
		},
		{
			"bufferView":47,
			"componentType":5123,
			"count":474,
			"type":"SCALAR"
		},
		{
			"bufferView":48,
			"componentType":5126,
			"count":7,
			"max":[
				0.9723065495491028,
				0.24885313212871552,
				-0.12788131833076477
			],
			"min":[
				0.9723065495491028,
				-0.22336404025554657,
				-0.46895498037338257
			],
			"type":"VEC3"
		},
		{
			"bufferView":49,
			"componentType":5126,
			"count":7,
			"type":"VEC3"
		},
		{
			"bufferView":50,
			"componentType":5126,
			"count":7,
			"type":"VEC2"
		},
		{
			"bufferView":51,
			"componentType":5123,
			"count":15,
			"type":"SCALAR"
		},
		{
			"bufferView":52,
			"componentType":5126,
			"count":133,
			"max":[
				0.3003745377063751,
				0.36098483204841614,
				-0.8558012843132019
			],
			"min":[
				-0.3003745377063751,
				-0.8068220019340515,
				-1.1264978647232056
			],
			"type":"VEC3"
		},
		{
			"bufferView":53,
			"componentType":5126,
			"count":133,
			"type":"VEC3"
		},
		{
			"bufferView":54,
			"componentType":5126,
			"count":133,
			"type":"VEC2"
		},
		{
			"bufferView":55,
			"componentType":5123,
			"count":288,
			"type":"SCALAR"
		},
		{
			"bufferView":56,
			"componentType":5126,
			"count":4,
			"max":[
				0.28000086545944214,
				0.27736419439315796,
				-1
			],
			"min":[
				-0.28000086545944214,
				-0.7687624096870422,
				-1
			],
			"type":"VEC3"
		},
		{
			"bufferView":57,
			"componentType":5126,
			"count":4,
			"type":"VEC3"
		},
		{
			"bufferView":58,
			"componentType":5126,
			"count":4,
			"type":"VEC2"
		},
		{
			"bufferView":59,
			"componentType":5123,
			"count":6,
			"type":"SCALAR"
		}
	],
	"bufferViews":[
		{
			"buffer":0,
			"byteLength":22068,
			"byteOffset":0,
			"target":34962
		},
		{
			"buffer":0,
			"byteLength":22068,
			"byteOffset":22068,
			"target":34962
		},
		{
			"buffer":0,
			"byteLength":14712,
			"byteOffset":44136,
			"target":34962
		},
		{
			"buffer":0,
			"byteLength":6036,
			"byteOffset":58848,
			"target":34963
		},
		{
			"buffer":0,
			"byteLength":8544,
			"byteOffset":64884,
			"target":34962
		},
		{
			"buffer":0,
			"byteLength":8544,
			"byteOffset":73428,
			"target":34962
		},
		{
			"buffer":0,
			"byteLength":5696,
			"byteOffset":81972,
			"target":34962
		},
		{
			"buffer":0,
			"byteLength":2220,
			"byteOffset":87668,
			"target":34963
		},
		{
			"buffer":0,
			"byteLength":7968,
			"byteOffset":89888,
			"target":34962
		},
		{
			"buffer":0,
			"byteLength":7968,
			"byteOffset":97856,
			"target":34962
		},
		{
			"buffer":0,
			"byteLength":5312,
			"byteOffset":105824,
			"target":34962
		},
		{
			"buffer":0,
			"byteLength":2160,
			"byteOffset":111136,
			"target":34963
		},
		{
			"buffer":0,
			"byteLength":13236,
			"byteOffset":113296,
			"target":34962
		},
		{
			"buffer":0,
			"byteLength":13236,
			"byteOffset":126532,
			"target":34962
		},
		{
			"buffer":0,
			"byteLength":8824,
			"byteOffset":139768,
			"target":34962
		},
		{
			"buffer":0,
			"byteLength":3738,
			"byteOffset":148592,
			"target":34963
		},
		{
			"buffer":0,
			"byteLength":3588,
			"byteOffset":152332,
			"target":34962
		},
		{
			"buffer":0,
			"byteLength":3588,
			"byteOffset":155920,
			"target":34962
		},
		{
			"buffer":0,
			"byteLength":2392,
			"byteOffset":159508,
			"target":34962
		},
		{
			"buffer":0,
			"byteLength":906,
			"byteOffset":161900,
			"target":34963
		},
		{
			"buffer":0,
			"byteLength":1728,
			"byteOffset":162808,
			"target":34962
		},
		{
			"buffer":0,
			"byteLength":1728,
			"byteOffset":164536,
			"target":34962
		},
		{
			"buffer":0,
			"byteLength":1152,
			"byteOffset":166264,
			"target":34962
		},
		{
			"buffer":0,
			"byteLength":720,
			"byteOffset":167416,
			"target":34963
		},
		{
			"buffer":0,
			"byteLength":23856,
			"byteOffset":168136,
			"target":34962
		},
		{
			"buffer":0,
			"byteLength":23856,
			"byteOffset":191992,
			"target":34962
		},
		{
			"buffer":0,
			"byteLength":15904,
			"byteOffset":215848,
			"target":34962
		},
		{
			"buffer":0,
			"byteLength":6912,
			"byteOffset":231752,
			"target":34963
		},
		{
			"buffer":0,
			"byteLength":1536,
			"byteOffset":238664,
			"target":34962
		},
		{
			"buffer":0,
			"byteLength":1536,
			"byteOffset":240200,
			"target":34962
		},
		{
			"buffer":0,
			"byteLength":1024,
			"byteOffset":241736,
			"target":34962
		},
		{
			"buffer":0,
			"byteLength":480,
			"byteOffset":242760,
			"target":34963
		},
		{
			"buffer":0,
			"byteLength":7488,
			"byteOffset":243240,
			"target":34962
		},
		{
			"buffer":0,
			"byteLength":7488,
			"byteOffset":250728,
			"target":34962
		},
		{
			"buffer":0,
			"byteLength":4992,
			"byteOffset":258216,
			"target":34962
		},
		{
			"buffer":0,
			"byteLength":2352,
			"byteOffset":263208,
			"target":34963
		},
		{
			"buffer":0,
			"byteLength":336,
			"byteOffset":265560,
			"target":34962
		},
		{
			"buffer":0,
			"byteLength":336,
			"byteOffset":265896,
			"target":34962
		},
		{
			"buffer":0,
			"byteLength":224,
			"byteOffset":266232,
			"target":34962
		},
		{
			"buffer":0,
			"byteLength":120,
			"byteOffset":266456,
			"target":34963
		},
		{
			"buffer":0,
			"byteLength":1428,
			"byteOffset":266576,
			"target":34962
		},
		{
			"buffer":0,
			"byteLength":1428,
			"byteOffset":268004,
			"target":34962
		},
		{
			"buffer":0,
			"byteLength":952,
			"byteOffset":269432,
			"target":34962
		},
		{
			"buffer":0,
			"byteLength":480,
			"byteOffset":270384,
			"target":34963
		},
		{
			"buffer":0,
			"byteLength":2556,
			"byteOffset":270864,
			"target":34962
		},
		{
			"buffer":0,
			"byteLength":2556,
			"byteOffset":273420,
			"target":34962
		},
		{
			"buffer":0,
			"byteLength":1704,
			"byteOffset":275976,
			"target":34962
		},
		{
			"buffer":0,
			"byteLength":948,
			"byteOffset":277680,
			"target":34963
		},
		{
			"buffer":0,
			"byteLength":84,
			"byteOffset":278628,
			"target":34962
		},
		{
			"buffer":0,
			"byteLength":84,
			"byteOffset":278712,
			"target":34962
		},
		{
			"buffer":0,
			"byteLength":56,
			"byteOffset":278796,
			"target":34962
		},
		{
			"buffer":0,
			"byteLength":30,
			"byteOffset":278852,
			"target":34963
		},
		{
			"buffer":0,
			"byteLength":1596,
			"byteOffset":278884,
			"target":34962
		},
		{
			"buffer":0,
			"byteLength":1596,
			"byteOffset":280480,
			"target":34962
		},
		{
			"buffer":0,
			"byteLength":1064,
			"byteOffset":282076,
			"target":34962
		},
		{
			"buffer":0,
			"byteLength":576,
			"byteOffset":283140,
			"target":34963
		},
		{
			"buffer":0,
			"byteLength":48,
			"byteOffset":283716,
			"target":34962
		},
		{
			"buffer":0,
			"byteLength":48,
			"byteOffset":283764,
			"target":34962
		},
		{
			"buffer":0,
			"byteLength":32,
			"byteOffset":283812,
			"target":34962
		},
		{
			"buffer":0,
			"byteLength":12,
			"byteOffset":283844,
			"target":34963
		}
	],
	"samplers":[
		{
			"magFilter":9729,
			"minFilter":9987
		}
	],
	"buffers":[
		{
			"byteLength":283856,
			"uri":"lighthouse.bin"
		}
	]
}
