{
	"asset":{
		"generator":"Khronos glTF Blender I/O v4.3.47",
		"version":"2.0"
	},
	"scene":0,
	"scenes":[
		{
			"name":"Scene",
			"nodes":[
				0
			]
		}
	],
	"nodes":[
		{
			"mesh":0,
			"name":"Cylinder",
			"scale":[
				0.3716226816177368,
				0.3716226816177368,
				0.3716226816177368
			],
			"translation":[
				0,
				0.37754717469215393,
				0
			]
		}
	],
	"materials":[
		{
			"doubleSided":true,
			"name":"Material.001",
			"pbrMetallicRoughness":{
				"baseColorFactor":[
					0.1319810450077057,
					0.1319810450077057,
					0.1319810450077057,
					1
				],
				"metallicFactor":0.5590550899505615,
				"roughnessFactor":0.26377952098846436
			}
		}
	],
	"meshes":[
		{
			"name":"Cylinder",
			"primitives":[
				{
					"attributes":{
						"POSITION":0,
						"NORMAL":1,
						"TEXCOORD_0":2
					},
					"indices":3,
					"material":0
				}
			]
		}
	],
	"accessors":[
		{
			"bufferView":0,
			"componentType":5126,
			"count":854,
			"max":[
				0.6082346439361572,
				2.3003602027893066,
				0.6082346439361572
			],
			"min":[
				-0.6082346439361572,
				-2.1919310092926025,
				-0.6082346439361572
			],
			"type":"VEC3"
		},
		{
			"bufferView":1,
			"componentType":5126,
			"count":854,
			"type":"VEC3"
		},
		{
			"bufferView":2,
			"componentType":5126,
			"count":854,
			"type":"VEC2"
		},
		{
			"bufferView":3,
			"componentType":5123,
			"count":1476,
			"type":"SCALAR"
		}
	],
	"bufferViews":[
		{
			"buffer":0,
			"byteLength":10248,
			"byteOffset":0,
			"target":34962
		},
		{
			"buffer":0,
			"byteLength":10248,
			"byteOffset":10248,
			"target":34962
		},
		{
			"buffer":0,
			"byteLength":6832,
			"byteOffset":20496,
			"target":34962
		},
		{
			"buffer":0,
			"byteLength":2952,
			"byteOffset":27328,
			"target":34963
		}
	],
	"buffers":[
		{
			"byteLength":30280,
			"uri":"light%20rig.bin"
		}
	]
}
