{
	"asset":{
		"generator":"Khronos glTF Blender I/O v4.3.47",
		"version":"2.0"
	},
	"scene":0,
	"scenes":[
		{
			"name":"Scene",
			"nodes":[
				0,
				1,
				2,
				3,
				4,
				5,
				6,
				7
			]
		}
	],
	"nodes":[
		{
			"mesh":0,
			"name":"cave"
		},
		{
			"mesh":1,
			"name":"grate"
		},
		{
			"mesh":2,
			"name":"hint paper"
		},
		{
			"mesh":3,
			"name":"table"
		},
		{
			"mesh":4,
			"name":"oribt toy"
		},
		{
			"mesh":5,
			"name":"Plane"
		},
		{
			"mesh":6,
			"name":"oribt toy.001"
		},
		{
			"mesh":7,
			"name":"Cube",
			"translation":[
				0,
				1.0641790628433228,
				-0.6443485617637634
			]
		}
	],
	"materials":[
		{
			"doubleSided":true,
			"name":"Material.024",
			"pbrMetallicRoughness":{
				"baseColorTexture":{
					"index":0
				},
				"metallicFactor":0.3095238208770752
			}
		},
		{
			"doubleSided":true,
			"name":"Material.025",
			"pbrMetallicRoughness":{
				"baseColorTexture":{
					"index":1
				},
				"metallicFactor":0
			}
		},
		{
			"doubleSided":true,
			"name":"Material.028",
			"pbrMetallicRoughness":{
				"baseColorTexture":{
					"index":2
				},
				"metallicFactor":0,
				"roughnessFactor":0.5
			}
		},
		{
			"doubleSided":true,
			"name":"Material.026",
			"pbrMetallicRoughness":{
				"baseColorFactor":[
					0.2140311747789383,
					0.2140311747789383,
					0.2140311747789383,
					1
				],
				"metallicFactor":0.7539682388305664,
				"roughnessFactor":0.4920635223388672
			}
		},
		{
			"doubleSided":true,
			"name":"Material.027",
			"pbrMetallicRoughness":{
				"baseColorTexture":{
					"index":3
				},
				"metallicFactor":0.17499999701976776
			}
		},
		{
			"doubleSided":true,
			"name":"Material.029",
			"pbrMetallicRoughness":{
				"baseColorTexture":{
					"index":4
				},
				"metallicFactor":0,
				"roughnessFactor":0.865079402923584
			}
		},
		{
			"doubleSided":true,
			"name":"Material.065",
			"pbrMetallicRoughness":{
				"baseColorTexture":{
					"index":5
				},
				"metallicFactor":0.3571428656578064,
				"roughnessFactor":0.7142857909202576
			}
		},
		{
			"doubleSided":true,
			"name":"Material.039",
			"pbrMetallicRoughness":{
				"baseColorFactor":[
					0.01021961122751236,
					0.01021961122751236,
					0.01021961122751236,
					1
				],
				"metallicFactor":0.6111111044883728,
				"roughnessFactor":0.3015872836112976
			}
		},
		{
			"doubleSided":true,
			"name":"Material.030",
			"pbrMetallicRoughness":{
				"baseColorTexture":{
					"index":6
				},
				"metallicFactor":0.0555555559694767
			}
		},
		{
			"doubleSided":true,
			"emissiveFactor":[
				0.5999999642372131,
				0.34185338020324707,
				0.02398044988512993
			],
			"name":"Material.066",
			"pbrMetallicRoughness":{
				"baseColorFactor":[
					0.800782322883606,
					0.7454492449760437,
					0.033058419823646545,
					1
				],
				"metallicFactor":0,
				"roughnessFactor":0.5
			}
		}
	],
	"meshes":[
		{
			"name":"Cube",
			"primitives":[
				{
					"attributes":{
						"POSITION":0,
						"NORMAL":1,
						"TEXCOORD_0":2
					},
					"indices":3,
					"material":0
				},
				{
					"attributes":{
						"POSITION":4,
						"NORMAL":5,
						"TEXCOORD_0":6
					},
					"indices":7,
					"material":1
				},
				{
					"attributes":{
						"POSITION":8,
						"NORMAL":9,
						"TEXCOORD_0":10
					},
					"indices":11,
					"material":2
				}
			]
		},
		{
			"name":"Plane",
			"primitives":[
				{
					"attributes":{
						"POSITION":12,
						"NORMAL":13,
						"TEXCOORD_0":14
					},
					"indices":15,
					"material":3
				}
			]
		},
		{
			"name":"Plane.001",
			"primitives":[
				{
					"attributes":{
						"POSITION":16,
						"NORMAL":17,
						"TEXCOORD_0":18
					},
					"indices":19,
					"material":4
				}
			]
		},
		{
			"name":"Plane.002",
			"primitives":[
				{
					"attributes":{
						"POSITION":20,
						"NORMAL":21,
						"TEXCOORD_0":22
					},
					"indices":23,
					"material":5
				}
			]
		},
		{
			"name":"Icosphere.001",
			"primitives":[
				{
					"attributes":{
						"POSITION":24,
						"NORMAL":25,
						"TEXCOORD_0":26
					},
					"indices":27,
					"material":6
				},
				{
					"attributes":{
						"POSITION":28,
						"NORMAL":29,
						"TEXCOORD_0":30
					},
					"indices":31,
					"material":7
				}
			]
		},
		{
			"name":"Plane.003",
			"primitives":[
				{
					"attributes":{
						"POSITION":32,
						"NORMAL":33,
						"TEXCOORD_0":34
					},
					"indices":35,
					"material":8
				}
			]
		},
		{
			"name":"Icosphere.002",
			"primitives":[
				{
					"attributes":{
						"POSITION":36,
						"NORMAL":37,
						"TEXCOORD_0":38
					},
					"indices":39,
					"material":7
				},
				{
					"attributes":{
						"POSITION":40,
						"NORMAL":41,
						"TEXCOORD_0":42
					},
					"indices":43,
					"material":9
				}
			]
		},
		{
			"name":"Cube.001",
			"primitives":[
				{
					"attributes":{
						"POSITION":44,
						"NORMAL":45,
						"TEXCOORD_0":46
					},
					"indices":47,
					"material":0
				}
			]
		}
	],
	"textures":[
		{
			"sampler":0,
			"source":0
		},
		{
			"sampler":0,
			"source":1
		},
		{
			"sampler":0,
			"source":2
		},
		{
			"sampler":0,
			"source":3
		},
		{
			"sampler":0,
			"source":4
		},
		{
			"sampler":0,
			"source":5
		},
		{
			"sampler":0,
			"source":6
		}
	],
	"images":[
		{
			"mimeType":"image/jpeg",
			"name":"stone",
			"uri":"stone.jpg"
		},
		{
			"mimeType":"image/jpeg",
			"name":"better wooden floor",
			"uri":"better%20wooden%20floor.jpg"
		},
		{
			"mimeType":"image/jpeg",
			"name":"granite",
			"uri":"granite.jpg"
		},
		{
			"mimeType":"image/png",
			"name":"esc",
			"uri":"esc.png"
		},
		{
			"mimeType":"image/jpeg",
			"name":"frame wood",
			"uri":"frame%20wood.jpg"
		},
		{
			"mimeType":"image/jpeg",
			"name":"grass",
			"uri":"grass.jpg"
		},
		{
			"mimeType":"image/png",
			"name":"outhouse paper",
			"uri":"outhouse%20paper.png"
		}
	],
	"accessors":[
		{
			"bufferView":0,
			"componentType":5126,
			"count":1777,
			"max":[
				1.1971144676208496,
				2.412785291671753,
				40.78018569946289
			],
			"min":[
				-27.26484489440918,
				-10.531783103942871,
				-1.6217995882034302
			],
			"type":"VEC3"
		},
		{
			"bufferView":1,
			"componentType":5126,
			"count":1777,
			"type":"VEC3"
		},
		{
			"bufferView":2,
			"componentType":5126,
			"count":1777,
			"type":"VEC2"
		},
		{
			"bufferView":3,
			"componentType":5123,
			"count":2715,
			"type":"SCALAR"
		},
		{
			"bufferView":4,
			"componentType":5126,
			"count":48,
			"max":[
				0.8917484879493713,
				2.412785291671753,
				-1.535465955734253
			],
			"min":[
				-0.8917484879493713,
				-0.030028298497200012,
				-1.7312475442886353
			],
			"type":"VEC3"
		},
		{
			"bufferView":5,
			"componentType":5126,
			"count":48,
			"type":"VEC3"
		},
		{
			"bufferView":6,
			"componentType":5126,
			"count":48,
			"type":"VEC2"
		},
		{
			"bufferView":7,
			"componentType":5123,
			"count":72,
			"type":"SCALAR"
		},
		{
			"bufferView":8,
			"componentType":5126,
			"count":164,
			"max":[
				-23.876855850219727,
				-8.32933235168457,
				38.96735382080078
			],
			"min":[
				-27.114103317260742,
				-8.593387603759766,
				35.66842269897461
			],
			"type":"VEC3"
		},
		{
			"bufferView":9,
			"componentType":5126,
			"count":164,
			"type":"VEC3"
		},
		{
			"bufferView":10,
			"componentType":5126,
			"count":164,
			"type":"VEC2"
		},
		{
			"bufferView":11,
			"componentType":5123,
			"count":276,
			"type":"SCALAR"
		},
		{
			"bufferView":12,
			"componentType":5126,
			"count":3744,
			"max":[
				1.2454700469970703,
				-2.9017655849456787,
				10.983750343322754
			],
			"min":[
				-5.260635852813721,
				-5.503409385681152,
				10.805537223815918
			],
			"type":"VEC3"
		},
		{
			"bufferView":13,
			"componentType":5126,
			"count":3744,
			"type":"VEC3"
		},
		{
			"bufferView":14,
			"componentType":5126,
			"count":3744,
			"type":"VEC2"
		},
		{
			"bufferView":15,
			"componentType":5123,
			"count":23232,
			"type":"SCALAR"
		},
		{
			"bufferView":16,
			"componentType":5126,
			"count":144,
			"max":[
				-3.3546297550201416,
				-3.6758956909179688,
				16.564672470092773
			],
			"min":[
				-3.672375202178955,
				-4.003385543823242,
				16.444169998168945
			],
			"type":"VEC3"
		},
		{
			"bufferView":17,
			"componentType":5126,
			"count":144,
			"type":"VEC3"
		},
		{
			"bufferView":18,
			"componentType":5126,
			"count":144,
			"type":"VEC2"
		},
		{
			"bufferView":19,
			"componentType":5123,
			"count":216,
			"type":"SCALAR"
		},
		{
			"bufferView":20,
			"componentType":5126,
			"count":524,
			"max":[
				-23.527433395385742,
				-5.152637481689453,
				39.2093505859375
			],
			"min":[
				-24.538150787353516,
				-5.660292625427246,
				38.198631286621094
			],
			"type":"VEC3"
		},
		{
			"bufferView":21,
			"componentType":5126,
			"count":524,
			"type":"VEC3"
		},
		{
			"bufferView":22,
			"componentType":5126,
			"count":524,
			"type":"VEC2"
		},
		{
			"bufferView":23,
			"componentType":5123,
			"count":948,
			"type":"SCALAR"
		},
		{
			"bufferView":24,
			"componentType":5126,
			"count":16587,
			"max":[
				-23.64048194885254,
				-4.963586330413818,
				39.053951263427734
			],
			"min":[
				-23.742889404296875,
				-5.025642395019531,
				38.94931411743164
			],
			"type":"VEC3"
		},
		{
			"bufferView":25,
			"componentType":5126,
			"count":16587,
			"type":"VEC3"
		},
		{
			"bufferView":26,
			"componentType":5126,
			"count":16587,
			"type":"VEC2"
		},
		{
			"bufferView":27,
			"componentType":5123,
			"count":73149,
			"type":"SCALAR"
		},
		{
			"bufferView":28,
			"componentType":5126,
			"count":44,
			"max":[
				-23.618337631225586,
				-5.014646530151367,
				39.077423095703125
			],
			"min":[
				-23.77102279663086,
				-5.129011631011963,
				38.926292419433594
			],
			"type":"VEC3"
		},
		{
			"bufferView":29,
			"componentType":5126,
			"count":44,
			"type":"VEC3"
		},
		{
			"bufferView":30,
			"componentType":5126,
			"count":44,
			"type":"VEC2"
		},
		{
			"bufferView":31,
			"componentType":5123,
			"count":252,
			"type":"SCALAR"
		},
		{
			"bufferView":32,
			"componentType":5126,
			"count":144,
			"max":[
				-23.638774871826172,
				-5.129046440124512,
				38.57919692993164
			],
			"min":[
				-23.950876235961914,
				-5.150843620300293,
				38.25933837890625
			],
			"type":"VEC3"
		},
		{
			"bufferView":33,
			"componentType":5126,
			"count":144,
			"type":"VEC3"
		},
		{
			"bufferView":34,
			"componentType":5126,
			"count":144,
			"type":"VEC2"
		},
		{
			"bufferView":35,
			"componentType":5123,
			"count":216,
			"type":"SCALAR"
		},
		{
			"bufferView":36,
			"componentType":5126,
			"count":154,
			"max":[
				-23.49090576171875,
				-5.036971569061279,
				39.02289581298828
			],
			"min":[
				-23.699037551879883,
				-5.071594715118408,
				38.99784469604492
			],
			"type":"VEC3"
		},
		{
			"bufferView":37,
			"componentType":5126,
			"count":154,
			"type":"VEC3"
		},
		{
			"bufferView":38,
			"componentType":5126,
			"count":154,
			"type":"VEC2"
		},
		{
			"bufferView":39,
			"componentType":5123,
			"count":912,
			"type":"SCALAR"
		},
		{
			"bufferView":40,
			"componentType":5126,
			"count":63,
			"max":[
				-23.479476928710938,
				-5.007033348083496,
				39.036861419677734
			],
			"min":[
				-23.517518997192383,
				-5.047033786773682,
				38.99686050415039
			],
			"type":"VEC3"
		},
		{
			"bufferView":41,
			"componentType":5126,
			"count":63,
			"type":"VEC3"
		},
		{
			"bufferView":42,
			"componentType":5126,
			"count":63,
			"type":"VEC2"
		},
		{
			"bufferView":43,
			"componentType":5123,
			"count":240,
			"type":"SCALAR"
		},
		{
			"bufferView":44,
			"componentType":5126,
			"count":32,
			"max":[
				1,
				1.3927435874938965,
				4.253060817718506
			],
			"min":[
				-1,
				-1.4051611423492432,
				-1
			],
			"type":"VEC3"
		},
		{
			"bufferView":45,
			"componentType":5126,
			"count":32,
			"type":"VEC3"
		},
		{
			"bufferView":46,
			"componentType":5126,
			"count":32,
			"type":"VEC2"
		},
		{
			"bufferView":47,
			"componentType":5123,
			"count":66,
			"type":"SCALAR"
		}
	],
	"bufferViews":[
		{
			"buffer":0,
			"byteLength":21324,
			"byteOffset":0,
			"target":34962
		},
		{
			"buffer":0,
			"byteLength":21324,
			"byteOffset":21324,
			"target":34962
		},
		{
			"buffer":0,
			"byteLength":14216,
			"byteOffset":42648,
			"target":34962
		},
		{
			"buffer":0,
			"byteLength":5430,
			"byteOffset":56864,
			"target":34963
		},
		{
			"buffer":0,
			"byteLength":576,
			"byteOffset":62296,
			"target":34962
		},
		{
			"buffer":0,
			"byteLength":576,
			"byteOffset":62872,
			"target":34962
		},
		{
			"buffer":0,
			"byteLength":384,
			"byteOffset":63448,
			"target":34962
		},
		{
			"buffer":0,
			"byteLength":144,
			"byteOffset":63832,
			"target":34963
		},
		{
			"buffer":0,
			"byteLength":1968,
			"byteOffset":63976,
			"target":34962
		},
		{
			"buffer":0,
			"byteLength":1968,
			"byteOffset":65944,
			"target":34962
		},
		{
			"buffer":0,
			"byteLength":1312,
			"byteOffset":67912,
			"target":34962
		},
		{
			"buffer":0,
			"byteLength":552,
			"byteOffset":69224,
			"target":34963
		},
		{
			"buffer":0,
			"byteLength":44928,
			"byteOffset":69776,
			"target":34962
		},
		{
			"buffer":0,
			"byteLength":44928,
			"byteOffset":114704,
			"target":34962
		},
		{
			"buffer":0,
			"byteLength":29952,
			"byteOffset":159632,
			"target":34962
		},
		{
			"buffer":0,
			"byteLength":46464,
			"byteOffset":189584,
			"target":34963
		},
		{
			"buffer":0,
			"byteLength":1728,
			"byteOffset":236048,
			"target":34962
		},
		{
			"buffer":0,
			"byteLength":1728,
			"byteOffset":237776,
			"target":34962
		},
		{
			"buffer":0,
			"byteLength":1152,
			"byteOffset":239504,
			"target":34962
		},
		{
			"buffer":0,
			"byteLength":432,
			"byteOffset":240656,
			"target":34963
		},
		{
			"buffer":0,
			"byteLength":6288,
			"byteOffset":241088,
			"target":34962
		},
		{
			"buffer":0,
			"byteLength":6288,
			"byteOffset":247376,
			"target":34962
		},
		{
			"buffer":0,
			"byteLength":4192,
			"byteOffset":253664,
			"target":34962
		},
		{
			"buffer":0,
			"byteLength":1896,
			"byteOffset":257856,
			"target":34963
		},
		{
			"buffer":0,
			"byteLength":199044,
			"byteOffset":259752,
			"target":34962
		},
		{
			"buffer":0,
			"byteLength":199044,
			"byteOffset":458796,
			"target":34962
		},
		{
			"buffer":0,
			"byteLength":132696,
			"byteOffset":657840,
			"target":34962
		},
		{
			"buffer":0,
			"byteLength":146298,
			"byteOffset":790536,
			"target":34963
		},
		{
			"buffer":0,
			"byteLength":528,
			"byteOffset":936836,
			"target":34962
		},
		{
			"buffer":0,
			"byteLength":528,
			"byteOffset":937364,
			"target":34962
		},
		{
			"buffer":0,
			"byteLength":352,
			"byteOffset":937892,
			"target":34962
		},
		{
			"buffer":0,
			"byteLength":504,
			"byteOffset":938244,
			"target":34963
		},
		{
			"buffer":0,
			"byteLength":1728,
			"byteOffset":938748,
			"target":34962
		},
		{
			"buffer":0,
			"byteLength":1728,
			"byteOffset":940476,
			"target":34962
		},
		{
			"buffer":0,
			"byteLength":1152,
			"byteOffset":942204,
			"target":34962
		},
		{
			"buffer":0,
			"byteLength":432,
			"byteOffset":943356,
			"target":34963
		},
		{
			"buffer":0,
			"byteLength":1848,
			"byteOffset":943788,
			"target":34962
		},
		{
			"buffer":0,
			"byteLength":1848,
			"byteOffset":945636,
			"target":34962
		},
		{
			"buffer":0,
			"byteLength":1232,
			"byteOffset":947484,
			"target":34962
		},
		{
			"buffer":0,
			"byteLength":1824,
			"byteOffset":948716,
			"target":34963
		},
		{
			"buffer":0,
			"byteLength":756,
			"byteOffset":950540,
			"target":34962
		},
		{
			"buffer":0,
			"byteLength":756,
			"byteOffset":951296,
			"target":34962
		},
		{
			"buffer":0,
			"byteLength":504,
			"byteOffset":952052,
			"target":34962
		},
		{
			"buffer":0,
			"byteLength":480,
			"byteOffset":952556,
			"target":34963
		},
		{
			"buffer":0,
			"byteLength":384,
			"byteOffset":953036,
			"target":34962
		},
		{
			"buffer":0,
			"byteLength":384,
			"byteOffset":953420,
			"target":34962
		},
		{
			"buffer":0,
			"byteLength":256,
			"byteOffset":953804,
			"target":34962
		},
		{
			"buffer":0,
			"byteLength":132,
			"byteOffset":954060,
			"target":34963
		}
	],
	"samplers":[
		{
			"magFilter":9729,
			"minFilter":9987
		}
	],
	"buffers":[
		{
			"byteLength":954192,
			"uri":"mine.bin"
		}
	]
}
