{
	"asset":{
		"generator":"Khronos glTF Blender I/O v4.3.47",
		"version":"2.0"
	},
	"scene":0,
	"scenes":[
		{
			"name":"Scene",
			"nodes":[
				0
			]
		}
	],
	"nodes":[
		{
			"mesh":0,
			"name":"Icosphere"
		}
	],
	"materials":[
		{
			"doubleSided":true,
			"name":"Material.001",
			"normalTexture":{
				"index":0
			},
			"pbrMetallicRoughness":{
				"baseColorTexture":{
					"index":1
				},
				"metallicFactor":0
			}
		}
	],
	"meshes":[
		{
			"name":"Icosphere",
			"primitives":[
				{
					"attributes":{
						"POSITION":0,
						"NORMAL":1,
						"TEXCOORD_0":2
					},
					"indices":3,
					"material":0
				}
			]
		}
	],
	"textures":[
		{
			"sampler":0,
			"source":0
		},
		{
			"sampler":0,
			"source":1
		}
	],
	"images":[
		{
			"mimeType":"image/jpeg",
			"name":"real moon displacement",
			"uri":"real%20moon%20displacement.jpg"
		},
		{
			"mimeType":"image/jpeg",
			"name":"real moon",
			"uri":"real%20moon.jpg"
		}
	],
	"accessors":[
		{
			"bufferView":0,
			"componentType":5126,
			"count":4004,
			"max":[
				22.11754035949707,
				24.28052520751953,
				24.58323860168457
			],
			"min":[
				-22.893733978271484,
				-23.237977981567383,
				-23.57769012451172
			],
			"type":"VEC3"
		},
		{
			"bufferView":1,
			"componentType":5126,
			"count":4004,
			"type":"VEC3"
		},
		{
			"bufferView":2,
			"componentType":5126,
			"count":4004,
			"type":"VEC2"
		},
		{
			"bufferView":3,
			"componentType":5123,
			"count":23568,
			"type":"SCALAR"
		}
	],
	"bufferViews":[
		{
			"buffer":0,
			"byteLength":48048,
			"byteOffset":0,
			"target":34962
		},
		{
			"buffer":0,
			"byteLength":48048,
			"byteOffset":48048,
			"target":34962
		},
		{
			"buffer":0,
			"byteLength":32032,
			"byteOffset":96096,
			"target":34962
		},
		{
			"buffer":0,
			"byteLength":47136,
			"byteOffset":128128,
			"target":34963
		}
	],
	"samplers":[
		{
			"magFilter":9729,
			"minFilter":9987
		}
	],
	"buffers":[
		{
			"byteLength":175264,
			"uri":"moon.bin"
		}
	]
}
