{
	"asset":{
		"generator":"Khronos glTF Blender I/O v4.3.47",
		"version":"2.0"
	},
	"scene":0,
	"scenes":[
		{
			"name":"Scene",
			"nodes":[
				0,
				1
			]
		}
	],
	"nodes":[
		{
			"mesh":0,
			"name":"Plane"
		},
		{
			"mesh":1,
			"name":"Plane.001",
			"scale":[
				1.100000023841858,
				1,
				1
			],
			"translation":[
				0.47999998927116394,
				0,
				0
			]
		}
	],
	"materials":[
		{
			"doubleSided":true,
			"name":"Material.001",
			"pbrMetallicRoughness":{
				"baseColorTexture":{
					"index":0
				},
				"metallicFactor":0
			}
		},
		{
			"doubleSided":true,
			"name":"Material.002",
			"pbrMetallicRoughness":{
				"baseColorTexture":{
					"index":1
				},
				"metallicFactor":0,
				"roughnessFactor":0.5
			}
		}
	],
	"meshes":[
		{
			"name":"Plane",
			"primitives":[
				{
					"attributes":{
						"POSITION":0,
						"NORMAL":1,
						"TEXCOORD_0":2
					},
					"indices":3,
					"material":0
				},
				{
					"attributes":{
						"POSITION":4,
						"NORMAL":5,
						"TEXCOORD_0":6
					},
					"indices":7,
					"material":1
				}
			]
		},
		{
			"name":"Plane.001",
			"primitives":[
				{
					"attributes":{
						"POSITION":8,
						"NORMAL":9,
						"TEXCOORD_0":10
					},
					"indices":11,
					"material":0
				}
			]
		}
	],
	"textures":[
		{
			"sampler":0,
			"source":0
		},
		{
			"sampler":0,
			"source":1
		}
	],
	"images":[
		{
			"mimeType":"image/jpeg",
			"name":"better wooden floor",
			"uri":"better%20wooden%20floor.jpg"
		},
		{
			"mimeType":"image/jpeg",
			"name":"shingles",
			"uri":"shingles.jpg"
		}
	],
	"accessors":[
		{
			"bufferView":0,
			"componentType":5126,
			"count":458,
			"max":[
				0.5104849338531494,
				2.373511552810669,
				0.5104849338531494
			],
			"min":[
				-0.5104849338531494,
				-0.016504203900694847,
				-0.5104849338531494
			],
			"type":"VEC3"
		},
		{
			"bufferView":1,
			"componentType":5126,
			"count":458,
			"type":"VEC3"
		},
		{
			"bufferView":2,
			"componentType":5126,
			"count":458,
			"type":"VEC2"
		},
		{
			"bufferView":3,
			"componentType":5123,
			"count":750,
			"type":"SCALAR"
		},
		{
			"bufferView":4,
			"componentType":5126,
			"count":76,
			"max":[
				0.6695911288261414,
				2.4859695434570312,
				0.6749511361122131
			],
			"min":[
				-0.6695911288261414,
				1.9394240379333496,
				-0.6599046587944031
			],
			"type":"VEC3"
		},
		{
			"bufferView":5,
			"componentType":5126,
			"count":76,
			"type":"VEC3"
		},
		{
			"bufferView":6,
			"componentType":5126,
			"count":76,
			"type":"VEC2"
		},
		{
			"bufferView":7,
			"componentType":5123,
			"count":114,
			"type":"SCALAR"
		},
		{
			"bufferView":8,
			"componentType":5126,
			"count":648,
			"max":[
				-0.8767268061637878,
				1.8599998950958252,
				0.36474692821502686
			],
			"min":[
				-0.9232832193374634,
				0.03943212330341339,
				-0.36474692821502686
			],
			"type":"VEC3"
		},
		{
			"bufferView":9,
			"componentType":5126,
			"count":648,
			"type":"VEC3"
		},
		{
			"bufferView":10,
			"componentType":5126,
			"count":648,
			"type":"VEC2"
		},
		{
			"bufferView":11,
			"componentType":5123,
			"count":1200,
			"type":"SCALAR"
		}
	],
	"bufferViews":[
		{
			"buffer":0,
			"byteLength":5496,
			"byteOffset":0,
			"target":34962
		},
		{
			"buffer":0,
			"byteLength":5496,
			"byteOffset":5496,
			"target":34962
		},
		{
			"buffer":0,
			"byteLength":3664,
			"byteOffset":10992,
			"target":34962
		},
		{
			"buffer":0,
			"byteLength":1500,
			"byteOffset":14656,
			"target":34963
		},
		{
			"buffer":0,
			"byteLength":912,
			"byteOffset":16156,
			"target":34962
		},
		{
			"buffer":0,
			"byteLength":912,
			"byteOffset":17068,
			"target":34962
		},
		{
			"buffer":0,
			"byteLength":608,
			"byteOffset":17980,
			"target":34962
		},
		{
			"buffer":0,
			"byteLength":228,
			"byteOffset":18588,
			"target":34963
		},
		{
			"buffer":0,
			"byteLength":7776,
			"byteOffset":18816,
			"target":34962
		},
		{
			"buffer":0,
			"byteLength":7776,
			"byteOffset":26592,
			"target":34962
		},
		{
			"buffer":0,
			"byteLength":5184,
			"byteOffset":34368,
			"target":34962
		},
		{
			"buffer":0,
			"byteLength":2400,
			"byteOffset":39552,
			"target":34963
		}
	],
	"samplers":[
		{
			"magFilter":9729,
			"minFilter":9987
		}
	],
	"buffers":[
		{
			"byteLength":41952,
			"uri":"outhouse.bin"
		}
	]
}
