{
	"asset":{
		"generator":"Khronos glTF Blender I/O v4.3.47",
		"version":"2.0"
	},
	"extensionsUsed":[
		"EXT_texture_webp"
	],
	"extensionsRequired":[
		"EXT_texture_webp"
	],
	"scene":0,
	"scenes":[
		{
			"name":"Scene",
			"nodes":[
				0
			]
		}
	],
	"nodes":[
		{
			"mesh":0,
			"name":"Cube.002",
			"scale":[
				2.4658658504486084,
				3.185575485229492,
				2.4658658504486084
			]
		}
	],
	"materials":[
		{
			"doubleSided":true,
			"name":"Material.024",
			"pbrMetallicRoughness":{
				"baseColorTexture":{
					"index":0
				},
				"metallicFactor":0
			}
		},
		{
			"alphaMode":"BLEND",
			"doubleSided":true,
			"name":"Material.025",
			"pbrMetallicRoughness":{
				"baseColorFactor":[
					0.32583773136138916,
					0.7361619472503662,
					0.8004003763198853,
					0.3928571343421936
				],
				"metallicFactor":0.7857142686843872,
				"roughnessFactor":0
			}
		},
		{
			"doubleSided":true,
			"name":"Material.026",
			"normalTexture":{
				"index":1
			},
			"pbrMetallicRoughness":{
				"baseColorTexture":{
					"index":2
				},
				"metallicFactor":0
			}
		},
		{
			"doubleSided":true,
			"name":"Material.027",
			"pbrMetallicRoughness":{
				"baseColorTexture":{
					"index":3
				},
				"metallicFactor":0
			}
		},
		{
			"doubleSided":true,
			"name":"Material.028",
			"normalTexture":{
				"index":4
			},
			"pbrMetallicRoughness":{
				"baseColorTexture":{
					"index":5
				}
			}
		},
		{
			"doubleSided":true,
			"name":"Material.029",
			"normalTexture":{
				"index":6
			},
			"pbrMetallicRoughness":{
				"baseColorTexture":{
					"index":7
				}
			}
		},
		{
			"doubleSided":true,
			"name":"Material.030",
			"normalTexture":{
				"index":8
			},
			"pbrMetallicRoughness":{
				"baseColorTexture":{
					"index":9
				},
				"metallicFactor":0
			}
		},
		{
			"doubleSided":true,
			"name":"Material.031",
			"pbrMetallicRoughness":{
				"baseColorTexture":{
					"index":10
				},
				"metallicFactor":0,
				"roughnessFactor":0.5
			}
		},
		{
			"doubleSided":true,
			"name":"Material.032",
			"normalTexture":{
				"index":11
			},
			"pbrMetallicRoughness":{
				"baseColorTexture":{
					"index":12
				},
				"metallicFactor":0
			}
		}
	],
	"meshes":[
		{
			"name":"Cube.007",
			"primitives":[
				{
					"attributes":{
						"POSITION":0,
						"NORMAL":1,
						"TEXCOORD_0":2
					},
					"indices":3,
					"material":0
				},
				{
					"attributes":{
						"POSITION":4,
						"NORMAL":5,
						"TEXCOORD_0":6
					},
					"indices":7,
					"material":1
				},
				{
					"attributes":{
						"POSITION":8,
						"NORMAL":9,
						"TEXCOORD_0":10
					},
					"indices":11,
					"material":2
				},
				{
					"attributes":{
						"POSITION":12,
						"NORMAL":13,
						"TEXCOORD_0":14
					},
					"indices":15,
					"material":3
				},
				{
					"attributes":{
						"POSITION":16,
						"NORMAL":17,
						"TEXCOORD_0":18
					},
					"indices":19,
					"material":4
				},
				{
					"attributes":{
						"POSITION":20,
						"NORMAL":21,
						"TEXCOORD_0":22
					},
					"indices":23,
					"material":5
				},
				{
					"attributes":{
						"POSITION":24,
						"NORMAL":25,
						"TEXCOORD_0":26
					},
					"indices":27,
					"material":6
				},
				{
					"attributes":{
						"POSITION":28,
						"NORMAL":29,
						"TEXCOORD_0":30
					},
					"indices":31,
					"material":7
				},
				{
					"attributes":{
						"POSITION":32,
						"NORMAL":33,
						"TEXCOORD_0":34
					},
					"indices":35,
					"material":8
				}
			]
		}
	],
	"textures":[
		{
			"sampler":0,
			"source":0
		},
		{
			"sampler":0,
			"source":1
		},
		{
			"sampler":0,
			"source":2
		},
		{
			"sampler":0,
			"source":3
		},
		{
			"sampler":0,
			"source":4
		},
		{
			"sampler":0,
			"source":5
		},
		{
			"sampler":0,
			"source":6
		},
		{
			"sampler":0,
			"source":7
		},
		{
			"sampler":0,
			"source":8
		},
		{
			"sampler":0,
			"source":9
		},
		{
			"sampler":0,
			"source":10
		},
		{
			"extensions":{
				"EXT_texture_webp":{
					"source":11
				}
			},
			"sampler":0
		},
		{
			"extensions":{
				"EXT_texture_webp":{
					"source":12
				}
			},
			"sampler":0
		}
	],
	"images":[
		{
			"mimeType":"image/jpeg",
			"name":"frame wood",
			"uri":"frame%20wood.jpg"
		},
		{
			"mimeType":"image/jpeg",
			"name":"whitesidingnormal",
			"uri":"whitesidingnormal.jpg"
		},
		{
			"mimeType":"image/jpeg",
			"name":"whitesiding",
			"uri":"whitesiding.jpg"
		},
		{
			"mimeType":"image/jpeg",
			"name":"wall paper",
			"uri":"wall%20paper.jpg"
		},
		{
			"mimeType":"image/jpeg",
			"name":"better wooden floor normal",
			"uri":"better%20wooden%20floor%20normal.jpg"
		},
		{
			"mimeType":"image/jpeg",
			"name":"better wooden floor",
			"uri":"better%20wooden%20floor.jpg"
		},
		{
			"mimeType":"image/jpeg",
			"name":"shinglesnormal",
			"uri":"shinglesnormal.jpg"
		},
		{
			"mimeType":"image/jpeg",
			"name":"shingles",
			"uri":"shingles.jpg"
		},
		{
			"mimeType":"image/jpeg",
			"name":"carpetnormal",
			"uri":"carpetnormal.jpg"
		},
		{
			"mimeType":"image/jpeg",
			"name":"carpet",
			"uri":"carpet.jpg"
		},
		{
			"mimeType":"image/jpeg",
			"name":"concrete floor",
			"uri":"concrete%20floor.jpg"
		},
		{
			"mimeType":"image/webp",
			"name":"popcorn_ceilingnormal",
			"uri":"popcorn_ceilingnormal.webp"
		},
		{
			"mimeType":"image/webp",
			"name":"popcorn_ceiling",
			"uri":"popcorn_ceiling.webp"
		}
	],
	"accessors":[
		{
			"bufferView":0,
			"componentType":5126,
			"count":1783,
			"max":[
				1.2038381099700928,
				2.013678789138794,
				1.4375693798065186
			],
			"min":[
				-1.2714142799377441,
				-1.0577360391616821,
				-1.4974756240844727
			],
			"type":"VEC3"
		},
		{
			"bufferView":1,
			"componentType":5126,
			"count":1783,
			"type":"VEC3"
		},
		{
			"bufferView":2,
			"componentType":5126,
			"count":1783,
			"type":"VEC2"
		},
		{
			"bufferView":3,
			"componentType":5123,
			"count":2961,
			"type":"SCALAR"
		},
		{
			"bufferView":4,
			"componentType":5126,
			"count":20,
			"max":[
				1.0353642702102661,
				1.1996676921844482,
				1.0258560180664062
			],
			"min":[
				-1.0241422653198242,
				0.18016833066940308,
				-1.0337872505187988
			],
			"type":"VEC3"
		},
		{
			"bufferView":5,
			"componentType":5126,
			"count":20,
			"type":"VEC3"
		},
		{
			"bufferView":6,
			"componentType":5126,
			"count":20,
			"type":"VEC2"
		},
		{
			"bufferView":7,
			"componentType":5123,
			"count":30,
			"type":"SCALAR"
		},
		{
			"bufferView":8,
			"componentType":5126,
			"count":128,
			"max":[
				1.0671913623809814,
				1.8784894943237305,
				1.0603692531585693
			],
			"min":[
				-1.0577360391616821,
				-1.0577360391616821,
				-1.0702338218688965
			],
			"type":"VEC3"
		},
		{
			"bufferView":9,
			"componentType":5126,
			"count":128,
			"type":"VEC3"
		},
		{
			"bufferView":10,
			"componentType":5126,
			"count":128,
			"type":"VEC2"
		},
		{
			"bufferView":11,
			"componentType":5123,
			"count":306,
			"type":"SCALAR"
		},
		{
			"bufferView":12,
			"componentType":5126,
			"count":146,
			"max":[
				1,
				1.8085417747497559,
				1
			],
			"min":[
				-1.00576913356781,
				-0.03629523888230324,
				-1
			],
			"type":"VEC3"
		},
		{
			"bufferView":13,
			"componentType":5126,
			"count":146,
			"type":"VEC3"
		},
		{
			"bufferView":14,
			"componentType":5126,
			"count":146,
			"type":"VEC2"
		},
		{
			"bufferView":15,
			"componentType":5123,
			"count":396,
			"type":"SCALAR"
		},
		{
			"bufferView":16,
			"componentType":5126,
			"count":104,
			"max":[
				1.2038381099700928,
				2.013998508453369,
				1.4375693798065186
			],
			"min":[
				-1.247450590133667,
				-0.04822447523474693,
				-1.4974756240844727
			],
			"type":"VEC3"
		},
		{
			"bufferView":17,
			"componentType":5126,
			"count":104,
			"type":"VEC3"
		},
		{
			"bufferView":18,
			"componentType":5126,
			"count":104,
			"type":"VEC2"
		},
		{
			"bufferView":19,
			"componentType":5123,
			"count":168,
			"type":"SCALAR"
		},
		{
			"bufferView":20,
			"componentType":5126,
			"count":364,
			"max":[
				1.2344722747802734,
				2.0546114444732666,
				1.4375693798065186
			],
			"min":[
				-1.247450590133667,
				0.9061005711555481,
				-1.4974756240844727
			],
			"type":"VEC3"
		},
		{
			"bufferView":21,
			"componentType":5126,
			"count":364,
			"type":"VEC3"
		},
		{
			"bufferView":22,
			"componentType":5126,
			"count":364,
			"type":"VEC2"
		},
		{
			"bufferView":23,
			"componentType":5123,
			"count":990,
			"type":"SCALAR"
		},
		{
			"bufferView":24,
			"componentType":5126,
			"count":198,
			"max":[
				0.9295189380645752,
				0.9153788685798645,
				1.0057886838912964
			],
			"min":[
				-1,
				0.03208845108747482,
				-1
			],
			"type":"VEC3"
		},
		{
			"bufferView":25,
			"componentType":5126,
			"count":198,
			"type":"VEC3"
		},
		{
			"bufferView":26,
			"componentType":5126,
			"count":198,
			"type":"VEC2"
		},
		{
			"bufferView":27,
			"componentType":5123,
			"count":300,
			"type":"SCALAR"
		},
		{
			"bufferView":28,
			"componentType":5126,
			"count":185,
			"max":[
				1,
				-0.0361052006483078,
				1.0000042915344238
			],
			"min":[
				-1.0000015497207642,
				-1.0000019073486328,
				-1
			],
			"type":"VEC3"
		},
		{
			"bufferView":29,
			"componentType":5126,
			"count":185,
			"type":"VEC3"
		},
		{
			"bufferView":30,
			"componentType":5126,
			"count":185,
			"type":"VEC2"
		},
		{
			"bufferView":31,
			"componentType":5123,
			"count":330,
			"type":"SCALAR"
		},
		{
			"bufferView":32,
			"componentType":5126,
			"count":24,
			"max":[
				1,
				1.8085417747497559,
				1
			],
			"min":[
				-1,
				-0.0891861543059349,
				-1
			],
			"type":"VEC3"
		},
		{
			"bufferView":33,
			"componentType":5126,
			"count":24,
			"type":"VEC3"
		},
		{
			"bufferView":34,
			"componentType":5126,
			"count":24,
			"type":"VEC2"
		},
		{
			"bufferView":35,
			"componentType":5123,
			"count":42,
			"type":"SCALAR"
		}
	],
	"bufferViews":[
		{
			"buffer":0,
			"byteLength":21396,
			"byteOffset":0,
			"target":34962
		},
		{
			"buffer":0,
			"byteLength":21396,
			"byteOffset":21396,
			"target":34962
		},
		{
			"buffer":0,
			"byteLength":14264,
			"byteOffset":42792,
			"target":34962
		},
		{
			"buffer":0,
			"byteLength":5922,
			"byteOffset":57056,
			"target":34963
		},
		{
			"buffer":0,
			"byteLength":240,
			"byteOffset":62980,
			"target":34962
		},
		{
			"buffer":0,
			"byteLength":240,
			"byteOffset":63220,
			"target":34962
		},
		{
			"buffer":0,
			"byteLength":160,
			"byteOffset":63460,
			"target":34962
		},
		{
			"buffer":0,
			"byteLength":60,
			"byteOffset":63620,
			"target":34963
		},
		{
			"buffer":0,
			"byteLength":1536,
			"byteOffset":63680,
			"target":34962
		},
		{
			"buffer":0,
			"byteLength":1536,
			"byteOffset":65216,
			"target":34962
		},
		{
			"buffer":0,
			"byteLength":1024,
			"byteOffset":66752,
			"target":34962
		},
		{
			"buffer":0,
			"byteLength":612,
			"byteOffset":67776,
			"target":34963
		},
		{
			"buffer":0,
			"byteLength":1752,
			"byteOffset":68388,
			"target":34962
		},
		{
			"buffer":0,
			"byteLength":1752,
			"byteOffset":70140,
			"target":34962
		},
		{
			"buffer":0,
			"byteLength":1168,
			"byteOffset":71892,
			"target":34962
		},
		{
			"buffer":0,
			"byteLength":792,
			"byteOffset":73060,
			"target":34963
		},
		{
			"buffer":0,
			"byteLength":1248,
			"byteOffset":73852,
			"target":34962
		},
		{
			"buffer":0,
			"byteLength":1248,
			"byteOffset":75100,
			"target":34962
		},
		{
			"buffer":0,
			"byteLength":832,
			"byteOffset":76348,
			"target":34962
		},
		{
			"buffer":0,
			"byteLength":336,
			"byteOffset":77180,
			"target":34963
		},
		{
			"buffer":0,
			"byteLength":4368,
			"byteOffset":77516,
			"target":34962
		},
		{
			"buffer":0,
			"byteLength":4368,
			"byteOffset":81884,
			"target":34962
		},
		{
			"buffer":0,
			"byteLength":2912,
			"byteOffset":86252,
			"target":34962
		},
		{
			"buffer":0,
			"byteLength":1980,
			"byteOffset":89164,
			"target":34963
		},
		{
			"buffer":0,
			"byteLength":2376,
			"byteOffset":91144,
			"target":34962
		},
		{
			"buffer":0,
			"byteLength":2376,
			"byteOffset":93520,
			"target":34962
		},
		{
			"buffer":0,
			"byteLength":1584,
			"byteOffset":95896,
			"target":34962
		},
		{
			"buffer":0,
			"byteLength":600,
			"byteOffset":97480,
			"target":34963
		},
		{
			"buffer":0,
			"byteLength":2220,
			"byteOffset":98080,
			"target":34962
		},
		{
			"buffer":0,
			"byteLength":2220,
			"byteOffset":100300,
			"target":34962
		},
		{
			"buffer":0,
			"byteLength":1480,
			"byteOffset":102520,
			"target":34962
		},
		{
			"buffer":0,
			"byteLength":660,
			"byteOffset":104000,
			"target":34963
		},
		{
			"buffer":0,
			"byteLength":288,
			"byteOffset":104660,
			"target":34962
		},
		{
			"buffer":0,
			"byteLength":288,
			"byteOffset":104948,
			"target":34962
		},
		{
			"buffer":0,
			"byteLength":192,
			"byteOffset":105236,
			"target":34962
		},
		{
			"buffer":0,
			"byteLength":84,
			"byteOffset":105428,
			"target":34963
		}
	],
	"samplers":[
		{
			"magFilter":9729,
			"minFilter":9987
		}
	],
	"buffers":[
		{
			"byteLength":105512,
			"uri":"rehouse.bin"
		}
	]
}
