{
	"asset":{
		"generator":"Khronos glTF Blender I/O v4.3.47",
		"version":"2.0"
	},
	"scene":0,
	"scenes":[
		{
			"name":"Scene",
			"nodes":[
				0,
				1,
				2,
				3,
				4
			]
		}
	],
	"nodes":[
		{
			"mesh":0,
			"name":"Cube",
			"rotation":[
				-0.08365712314844131,
				0.11434793472290039,
				0.20320282876491547,
				0.9688315987586975
			],
			"scale":[
				1.5499999523162842,
				0.7300000786781311,
				1.4900000095367432
			],
			"translation":[
				-1.4800000190734863,
				0,
				1.0799843072891235
			]
		},
		{
			"mesh":1,
			"name":"Cube.001",
			"scale":[
				0.8500000238418579,
				0.6399999856948853,
				1.1299999952316284
			],
			"translation":[
				0,
				0,
				-2.8085789680480957
			]
		},
		{
			"mesh":2,
			"name":"Cube.002",
			"scale":[
				1,
				1,
				0.9799999594688416
			],
			"translation":[
				-6.452028274536133,
				0,
				1.0709635019302368
			]
		},
		{
			"mesh":3,
			"name":"Cube.003",
			"scale":[
				1.5,
				1,
				0.7400000095367432
			],
			"translation":[
				-3.788404941558838,
				0,
				-2.3932435512542725
			]
		},
		{
			"mesh":4,
			"name":"Cube.004",
			"scale":[
				1,
				1,
				0.9799999594688416
			],
			"translation":[
				-3.1414906978607178,
				0,
				5.944561004638672
			]
		}
	],
	"materials":[
		{
			"doubleSided":true,
			"name":"Material",
			"pbrMetallicRoughness":{
				"baseColorTexture":{
					"index":0
				},
				"metallicFactor":0,
				"roughnessFactor":0.5
			}
		},
		{
			"doubleSided":true,
			"name":"Material.001",
			"pbrMetallicRoughness":{
				"baseColorTexture":{
					"index":1
				},
				"metallicFactor":0,
				"roughnessFactor":0.5
			}
		},
		{
			"doubleSided":true,
			"name":"Material.002",
			"pbrMetallicRoughness":{
				"baseColorTexture":{
					"index":2
				},
				"metallicFactor":0,
				"roughnessFactor":0.7460317611694336
			}
		},
		{
			"doubleSided":true,
			"name":"Material.003",
			"pbrMetallicRoughness":{
				"baseColorTexture":{
					"index":3
				},
				"metallicFactor":0
			}
		},
		{
			"doubleSided":true,
			"name":"Material.004",
			"pbrMetallicRoughness":{
				"baseColorTexture":{
					"index":4
				},
				"metallicFactor":0
			}
		}
	],
	"meshes":[
		{
			"name":"Cube",
			"primitives":[
				{
					"attributes":{
						"POSITION":0,
						"NORMAL":1,
						"TEXCOORD_0":2
					},
					"indices":3,
					"material":0
				}
			]
		},
		{
			"name":"Cube.001",
			"primitives":[
				{
					"attributes":{
						"POSITION":4,
						"NORMAL":5,
						"TEXCOORD_0":6
					},
					"indices":7,
					"material":1
				}
			]
		},
		{
			"name":"Cube.002",
			"primitives":[
				{
					"attributes":{
						"POSITION":8,
						"NORMAL":9,
						"TEXCOORD_0":10
					},
					"indices":11,
					"material":2
				}
			]
		},
		{
			"name":"Cube.003",
			"primitives":[
				{
					"attributes":{
						"POSITION":12,
						"NORMAL":13,
						"TEXCOORD_0":14
					},
					"indices":7,
					"material":3
				}
			]
		},
		{
			"name":"Cube.004",
			"primitives":[
				{
					"attributes":{
						"POSITION":15,
						"NORMAL":16,
						"TEXCOORD_0":17
					},
					"indices":18,
					"material":4
				}
			]
		}
	],
	"textures":[
		{
			"sampler":0,
			"source":0
		},
		{
			"sampler":0,
			"source":1
		},
		{
			"sampler":0,
			"source":2
		},
		{
			"sampler":0,
			"source":3
		},
		{
			"sampler":0,
			"source":4
		}
	],
	"images":[
		{
			"mimeType":"image/jpeg",
			"name":"rocky",
			"uri":"rocky.jpg"
		},
		{
			"mimeType":"image/jpeg",
			"name":"granite",
			"uri":"granite.jpg"
		},
		{
			"mimeType":"image/jpeg",
			"name":"stone",
			"uri":"stone.jpg"
		},
		{
			"mimeType":"image/jpeg",
			"name":"concrete wall alt",
			"uri":"concrete%20wall%20alt.jpg"
		},
		{
			"mimeType":"image/jpeg",
			"name":"concrete floor",
			"uri":"concrete%20floor.jpg"
		}
	],
	"accessors":[
		{
			"bufferView":0,
			"componentType":5126,
			"count":165,
			"max":[
				0.6979236602783203,
				0.8057108521461487,
				0.7558137774467468
			],
			"min":[
				-0.699588418006897,
				-0.699588418006897,
				-0.7469027042388916
			],
			"type":"VEC3"
		},
		{
			"bufferView":1,
			"componentType":5126,
			"count":165,
			"type":"VEC3"
		},
		{
			"bufferView":2,
			"componentType":5126,
			"count":165,
			"type":"VEC2"
		},
		{
			"bufferView":3,
			"componentType":5123,
			"count":576,
			"type":"SCALAR"
		},
		{
			"bufferView":4,
			"componentType":5126,
			"count":125,
			"max":[
				0.9166367053985596,
				1.0056781768798828,
				0.7681179046630859
			],
			"min":[
				-0.699588418006897,
				-0.8234414458274841,
				-0.699588418006897
			],
			"type":"VEC3"
		},
		{
			"bufferView":5,
			"componentType":5126,
			"count":125,
			"type":"VEC3"
		},
		{
			"bufferView":6,
			"componentType":5126,
			"count":125,
			"type":"VEC2"
		},
		{
			"bufferView":7,
			"componentType":5123,
			"count":576,
			"type":"SCALAR"
		},
		{
			"bufferView":8,
			"componentType":5126,
			"count":125,
			"max":[
				0.6532936692237854,
				0.6647228598594666,
				0.7671440243721008
			],
			"min":[
				-0.6951290369033813,
				-0.7010641694068909,
				-0.7009261846542358
			],
			"type":"VEC3"
		},
		{
			"bufferView":9,
			"componentType":5126,
			"count":125,
			"type":"VEC3"
		},
		{
			"bufferView":10,
			"componentType":5126,
			"count":125,
			"type":"VEC2"
		},
		{
			"bufferView":11,
			"componentType":5123,
			"count":576,
			"type":"SCALAR"
		},
		{
			"bufferView":12,
			"componentType":5126,
			"count":125,
			"max":[
				0.699588418006897,
				0.6397548317909241,
				0.6519970297813416
			],
			"min":[
				-0.6409898996353149,
				-0.6526083946228027,
				-0.5430947542190552
			],
			"type":"VEC3"
		},
		{
			"bufferView":13,
			"componentType":5126,
			"count":125,
			"type":"VEC3"
		},
		{
			"bufferView":14,
			"componentType":5126,
			"count":125,
			"type":"VEC2"
		},
		{
			"bufferView":15,
			"componentType":5126,
			"count":125,
			"max":[
				0.6994873285293579,
				0.6547085642814636,
				0.6100508570671082
			],
			"min":[
				-0.6513471007347107,
				-0.699588418006897,
				-0.65205979347229
			],
			"type":"VEC3"
		},
		{
			"bufferView":16,
			"componentType":5126,
			"count":125,
			"type":"VEC3"
		},
		{
			"bufferView":17,
			"componentType":5126,
			"count":125,
			"type":"VEC2"
		},
		{
			"bufferView":18,
			"componentType":5123,
			"count":576,
			"type":"SCALAR"
		}
	],
	"bufferViews":[
		{
			"buffer":0,
			"byteLength":1980,
			"byteOffset":0,
			"target":34962
		},
		{
			"buffer":0,
			"byteLength":1980,
			"byteOffset":1980,
			"target":34962
		},
		{
			"buffer":0,
			"byteLength":1320,
			"byteOffset":3960,
			"target":34962
		},
		{
			"buffer":0,
			"byteLength":1152,
			"byteOffset":5280,
			"target":34963
		},
		{
			"buffer":0,
			"byteLength":1500,
			"byteOffset":6432,
			"target":34962
		},
		{
			"buffer":0,
			"byteLength":1500,
			"byteOffset":7932,
			"target":34962
		},
		{
			"buffer":0,
			"byteLength":1000,
			"byteOffset":9432,
			"target":34962
		},
		{
			"buffer":0,
			"byteLength":1152,
			"byteOffset":10432,
			"target":34963
		},
		{
			"buffer":0,
			"byteLength":1500,
			"byteOffset":11584,
			"target":34962
		},
		{
			"buffer":0,
			"byteLength":1500,
			"byteOffset":13084,
			"target":34962
		},
		{
			"buffer":0,
			"byteLength":1000,
			"byteOffset":14584,
			"target":34962
		},
		{
			"buffer":0,
			"byteLength":1152,
			"byteOffset":15584,
			"target":34963
		},
		{
			"buffer":0,
			"byteLength":1500,
			"byteOffset":16736,
			"target":34962
		},
		{
			"buffer":0,
			"byteLength":1500,
			"byteOffset":18236,
			"target":34962
		},
		{
			"buffer":0,
			"byteLength":1000,
			"byteOffset":19736,
			"target":34962
		},
		{
			"buffer":0,
			"byteLength":1500,
			"byteOffset":20736,
			"target":34962
		},
		{
			"buffer":0,
			"byteLength":1500,
			"byteOffset":22236,
			"target":34962
		},
		{
			"buffer":0,
			"byteLength":1000,
			"byteOffset":23736,
			"target":34962
		},
		{
			"buffer":0,
			"byteLength":1152,
			"byteOffset":24736,
			"target":34963
		}
	],
	"samplers":[
		{
			"magFilter":9729,
			"minFilter":9987
		}
	],
	"buffers":[
		{
			"byteLength":25888,
			"uri":"rocks.bin"
		}
	]
}
