{
	"asset":{
		"generator":"Khronos glTF Blender I/O v4.3.47",
		"version":"2.0"
	},
	"extensionsUsed":[
		"EXT_texture_webp"
	],
	"extensionsRequired":[
		"EXT_texture_webp"
	],
	"scene":0,
	"scenes":[
		{
			"name":"Scene",
			"nodes":[
				0,
				1
			]
		}
	],
	"nodes":[
		{
			"mesh":0,
			"name":"Cylinder",
			"scale":[
				1,
				0.08301204442977905,
				1
			]
		},
		{
			"mesh":1,
			"name":"Circle",
			"rotation":[
				0.7071068286895752,
				0,
				0,
				0.7071067690849304
			],
			"scale":[
				0.1541667878627777,
				0.1541667878627777,
				0.1541667878627777
			],
			"translation":[
				0.5,
				-1.799070119857788,
				-1.1399999856948853
			]
		}
	],
	"materials":[
		{
			"doubleSided":true,
			"name":"Material.001",
			"pbrMetallicRoughness":{
				"baseColorFactor":[
					0.9130932092666626,
					0.630757749080658,
					0.14412866532802582,
					1
				],
				"roughnessFactor":0.5
			}
		},
		{
			"doubleSided":true,
			"name":"Material.002",
			"pbrMetallicRoughness":{
				"baseColorTexture":{
					"index":0
				},
				"metallicFactor":0,
				"roughnessFactor":0.5
			}
		},
		{
			"doubleSided":true,
			"name":"Material.003",
			"pbrMetallicRoughness":{
				"baseColorFactor":[
					0,
					0,
					0,
					1
				],
				"metallicFactor":0
			}
		}
	],
	"meshes":[
		{
			"name":"Cylinder",
			"primitives":[
				{
					"attributes":{
						"POSITION":0,
						"NORMAL":1,
						"TEXCOORD_0":2
					},
					"indices":3,
					"material":0
				},
				{
					"attributes":{
						"POSITION":4,
						"NORMAL":5,
						"TEXCOORD_0":6
					},
					"indices":7,
					"material":1
				},
				{
					"attributes":{
						"POSITION":8,
						"NORMAL":9,
						"TEXCOORD_0":10
					},
					"indices":11,
					"material":2
				}
			]
		},
		{
			"name":"Circle",
			"primitives":[
				{
					"attributes":{
						"POSITION":12,
						"NORMAL":13,
						"TEXCOORD_0":14
					},
					"indices":15,
					"material":0
				}
			]
		}
	],
	"textures":[
		{
			"extensions":{
				"EXT_texture_webp":{
					"source":0
				}
			},
			"sampler":0
		}
	],
	"images":[
		{
			"mimeType":"image/webp",
			"name":"cigarette",
			"uri":"cigarette.webp"
		}
	],
	"accessors":[
		{
			"bufferView":0,
			"componentType":5126,
			"count":488,
			"max":[
				1.074345350265503,
				15.88208293914795,
				1.073737621307373
			],
			"min":[
				-1.0735527276992798,
				2.0318570137023926,
				-3.7281739711761475
			],
			"type":"VEC3"
		},
		{
			"bufferView":1,
			"componentType":5126,
			"count":488,
			"type":"VEC3"
		},
		{
			"bufferView":2,
			"componentType":5126,
			"count":488,
			"type":"VEC2"
		},
		{
			"bufferView":3,
			"componentType":5123,
			"count":780,
			"type":"SCALAR"
		},
		{
			"bufferView":4,
			"componentType":5126,
			"count":1486,
			"max":[
				1.074345350265503,
				13.508511543273926,
				1.073737621307373
			],
			"min":[
				-1.0735527276992798,
				-1,
				-3.7281739711761475
			],
			"type":"VEC3"
		},
		{
			"bufferView":5,
			"componentType":5126,
			"count":1486,
			"type":"VEC3"
		},
		{
			"bufferView":6,
			"componentType":5126,
			"count":1486,
			"type":"VEC2"
		},
		{
			"bufferView":7,
			"componentType":5123,
			"count":2370,
			"type":"SCALAR"
		},
		{
			"bufferView":8,
			"componentType":5126,
			"count":256,
			"max":[
				0.5465524196624756,
				14.975303649902344,
				0.6553024053573608
			],
			"min":[
				-0.5638730525970459,
				12.532964706420898,
				-0.8480195999145508
			],
			"type":"VEC3"
		},
		{
			"bufferView":9,
			"componentType":5126,
			"count":256,
			"type":"VEC3"
		},
		{
			"bufferView":10,
			"componentType":5126,
			"count":256,
			"type":"VEC2"
		},
		{
			"bufferView":11,
			"componentType":5123,
			"count":438,
			"type":"SCALAR"
		},
		{
			"bufferView":12,
			"componentType":5126,
			"count":2464,
			"max":[
				1,
				4.5,
				1
			],
			"min":[
				-8,
				-4.500000476837158,
				-14.999999046325684
			],
			"type":"VEC3"
		},
		{
			"bufferView":13,
			"componentType":5126,
			"count":2464,
			"type":"VEC3"
		},
		{
			"bufferView":14,
			"componentType":5126,
			"count":2464,
			"type":"VEC2"
		},
		{
			"bufferView":15,
			"componentType":5123,
			"count":14772,
			"type":"SCALAR"
		}
	],
	"bufferViews":[
		{
			"buffer":0,
			"byteLength":5856,
			"byteOffset":0,
			"target":34962
		},
		{
			"buffer":0,
			"byteLength":5856,
			"byteOffset":5856,
			"target":34962
		},
		{
			"buffer":0,
			"byteLength":3904,
			"byteOffset":11712,
			"target":34962
		},
		{
			"buffer":0,
			"byteLength":1560,
			"byteOffset":15616,
			"target":34963
		},
		{
			"buffer":0,
			"byteLength":17832,
			"byteOffset":17176,
			"target":34962
		},
		{
			"buffer":0,
			"byteLength":17832,
			"byteOffset":35008,
			"target":34962
		},
		{
			"buffer":0,
			"byteLength":11888,
			"byteOffset":52840,
			"target":34962
		},
		{
			"buffer":0,
			"byteLength":4740,
			"byteOffset":64728,
			"target":34963
		},
		{
			"buffer":0,
			"byteLength":3072,
			"byteOffset":69468,
			"target":34962
		},
		{
			"buffer":0,
			"byteLength":3072,
			"byteOffset":72540,
			"target":34962
		},
		{
			"buffer":0,
			"byteLength":2048,
			"byteOffset":75612,
			"target":34962
		},
		{
			"buffer":0,
			"byteLength":876,
			"byteOffset":77660,
			"target":34963
		},
		{
			"buffer":0,
			"byteLength":29568,
			"byteOffset":78536,
			"target":34962
		},
		{
			"buffer":0,
			"byteLength":29568,
			"byteOffset":108104,
			"target":34962
		},
		{
			"buffer":0,
			"byteLength":19712,
			"byteOffset":137672,
			"target":34962
		},
		{
			"buffer":0,
			"byteLength":29544,
			"byteOffset":157384,
			"target":34963
		}
	],
	"samplers":[
		{
			"magFilter":9729,
			"minFilter":9987
		}
	],
	"buffers":[
		{
			"byteLength":186928,
			"uri":"shoe.bin"
		}
	]
}
