{
	"asset":{
		"generator":"Khronos glTF Blender I/O v4.3.47",
		"version":"2.0"
	},
	"scene":0,
	"scenes":[
		{
			"name":"Scene",
			"nodes":[
				0,
				1,
				2,
				3,
				4,
				5,
				6,
				7,
				8,
				9,
				10,
				11,
				12,
				13,
				14
			]
		}
	],
	"nodes":[
		{
			"mesh":0,
			"name":"Cube",
			"rotation":[
				0.9999122619628906,
				0,
				0,
				0.013253139331936836
			],
			"scale":[
				0.014999999664723873,
				0.049993447959423065,
				0.29700133204460144
			],
			"translation":[
				0,
				0.8802892565727234,
				0
			]
		},
		{
			"mesh":1,
			"name":"Cube.001",
			"rotation":[
				0,
				-0.009969391860067844,
				0.9999504089355469,
				1.629056072260937e-07
			],
			"scale":[
				0.014999999664723873,
				0.04999629408121109,
				0.29697439074516296
			],
			"translation":[
				0,
				0.762374758720398,
				0
			]
		},
		{
			"mesh":2,
			"name":"Cube.002",
			"rotation":[
				-0.024216851219534874,
				0,
				0,
				0.9997067451477051
			],
			"scale":[
				0.014999999664723873,
				0.04997813329100609,
				0.2971462905406952
			],
			"translation":[
				0,
				0.6316734552383423,
				0
			]
		},
		{
			"mesh":3,
			"name":"Cylinder",
			"rotation":[
				1,
				0,
				0,
				0
			],
			"scale":[
				0.028139999136328697,
				0.028139721602201462,
				0.028139721602201462
			],
			"translation":[
				-0.07000000029802322,
				0.013299331068992615,
				0
			]
		},
		{
			"mesh":4,
			"name":"Cone",
			"rotation":[
				0,
				0,
				0.7080803513526917,
				0.7061318755149841
			],
			"scale":[
				0.010488996282219887,
				0.010488996282219887,
				0.010488996282219887
			],
			"translation":[
				0,
				0.6322817802429199,
				0
			]
		},
		{
			"mesh":5,
			"name":"Cone.001",
			"rotation":[
				0,
				0,
				0.7080803513526917,
				0.7061318755149841
			],
			"scale":[
				0.010488996282219887,
				0.010488996282219887,
				0.010488996282219887
			],
			"translation":[
				0,
				0.5696099996566772,
				0
			]
		},
		{
			"mesh":6,
			"name":"Cone.002",
			"rotation":[
				0,
				0,
				0.7080803513526917,
				0.7061318755149841
			],
			"scale":[
				0.010488996282219887,
				0.010488996282219887,
				0.010488996282219887
			],
			"translation":[
				0,
				0.7051107287406921,
				0
			]
		},
		{
			"mesh":7,
			"name":"Cone.003",
			"rotation":[
				0,
				0,
				0.7080803513526917,
				0.7061318755149841
			],
			"scale":[
				0.010488996282219887,
				0.010488996282219887,
				0.010488996282219887
			],
			"translation":[
				0,
				0.765081524848938,
				0
			]
		},
		{
			"mesh":8,
			"name":"Cone.004",
			"rotation":[
				0,
				0,
				0.7080803513526917,
				0.7061318755149841
			],
			"scale":[
				0.010488996282219887,
				0.010488996282219887,
				0.010488996282219887
			],
			"translation":[
				0,
				0.8268300294876099,
				0
			]
		},
		{
			"mesh":9,
			"name":"Cone.005",
			"rotation":[
				0,
				0,
				0.7080803513526917,
				0.7061318755149841
			],
			"scale":[
				0.010488996282219887,
				0.010488996282219887,
				0.010488996282219887
			],
			"translation":[
				0,
				0.8777755498886108,
				0
			]
		},
		{
			"mesh":10,
			"name":"Plane",
			"rotation":[
				0.5,
				0.5,
				-0.5,
				0.4999999701976776
			],
			"scale":[
				0.1473863571882248,
				0.1473863571882248,
				0.1473863571882248
			],
			"translation":[
				0.01951923780143261,
				0.7582731246948242,
				0
			]
		},
		{
			"mesh":11,
			"name":"Cone.006",
			"rotation":[
				0,
				0,
				0.7080803513526917,
				0.7061318755149841
			],
			"scale":[
				0.010488996282219887,
				0.010488996282219887,
				0.010488996282219887
			],
			"translation":[
				0.014283783733844757,
				0.5947562456130981,
				0.1282479465007782
			]
		},
		{
			"mesh":12,
			"name":"Cone.007",
			"rotation":[
				0,
				0,
				0.7080803513526917,
				0.7061318755149841
			],
			"scale":[
				0.010488996282219887,
				0.010488996282219887,
				0.010488996282219887
			],
			"translation":[
				0.014283783733844757,
				0.5947562456130981,
				-0.13189858198165894
			]
		},
		{
			"mesh":13,
			"name":"Cone.008",
			"rotation":[
				0,
				0,
				0.7080803513526917,
				0.7061318755149841
			],
			"scale":[
				0.010488996282219887,
				0.010488996282219887,
				0.010488996282219887
			],
			"translation":[
				0.010165981948375702,
				0.8629586696624756,
				-0.13189858198165894
			]
		},
		{
			"mesh":14,
			"name":"Cone.009",
			"rotation":[
				0,
				0,
				0.7080803513526917,
				0.7061318755149841
			],
			"scale":[
				0.010488996282219887,
				0.010488996282219887,
				0.010488996282219887
			],
			"translation":[
				0.012073026038706303,
				0.8629586696624756,
				0.128634512424469
			]
		}
	],
	"materials":[
		{
			"doubleSided":true,
			"name":"Material",
			"pbrMetallicRoughness":{
				"baseColorTexture":{
					"index":0
				},
				"metallicFactor":0,
				"roughnessFactor":0.5
			}
		},
		{
			"doubleSided":true,
			"name":"Material.001",
			"pbrMetallicRoughness":{
				"baseColorTexture":{
					"index":1
				},
				"metallicFactor":0
			}
		},
		{
			"doubleSided":true,
			"name":"Material.002",
			"pbrMetallicRoughness":{
				"baseColorTexture":{
					"index":2
				},
				"metallicFactor":0,
				"roughnessFactor":0.5
			}
		},
		{
			"doubleSided":true,
			"name":"Material.003",
			"pbrMetallicRoughness":{
				"baseColorTexture":{
					"index":3
				},
				"metallicFactor":0
			}
		},
		{
			"doubleSided":true,
			"name":"Material.004",
			"pbrMetallicRoughness":{
				"baseColorFactor":[
					0.07763671875,
					0.06707763671875,
					0.052337646484375,
					1
				],
				"metallicFactor":0,
				"roughnessFactor":0.5
			}
		},
		{
			"doubleSided":true,
			"name":"Material.005",
			"pbrMetallicRoughness":{
				"baseColorFactor":[
					0.0777587890625,
					0.067138671875,
					0.05242919921875,
					1
				],
				"metallicFactor":0,
				"roughnessFactor":0.5
			}
		},
		{
			"doubleSided":true,
			"name":"Material.008",
			"pbrMetallicRoughness":{
				"baseColorFactor":[
					0.07763671875,
					0.067138671875,
					0.0523681640625,
					1
				],
				"metallicFactor":0,
				"roughnessFactor":0.5
			}
		},
		{
			"doubleSided":true,
			"name":"Material.010",
			"pbrMetallicRoughness":{
				"baseColorFactor":[
					0.07763671875,
					0.067138671875,
					0.052398681640625,
					1
				],
				"metallicFactor":0,
				"roughnessFactor":0.5
			}
		},
		{
			"doubleSided":true,
			"name":"Material.012",
			"pbrMetallicRoughness":{
				"baseColorFactor":[
					0.07769775390625,
					0.06707763671875,
					0.0523681640625,
					1
				],
				"metallicFactor":0,
				"roughnessFactor":0.5
			}
		},
		{
			"doubleSided":true,
			"name":"Material.014",
			"pbrMetallicRoughness":{
				"baseColorFactor":[
					0.0777587890625,
					0.067169189453125,
					0.05242919921875,
					1
				],
				"metallicFactor":0,
				"roughnessFactor":0.5
			}
		},
		{
			"doubleSided":true,
			"name":"Material.015",
			"pbrMetallicRoughness":{
				"baseColorTexture":{
					"index":4
				},
				"metallicFactor":0
			}
		},
		{
			"doubleSided":true,
			"name":"Material.017",
			"pbrMetallicRoughness":{
				"baseColorFactor":[
					0.08612060546875,
					0.07421875,
					0.057830810546875,
					1
				],
				"metallicFactor":0,
				"roughnessFactor":0.5
			}
		},
		{
			"doubleSided":true,
			"name":"Material.019",
			"pbrMetallicRoughness":{
				"baseColorFactor":[
					0.0970458984375,
					0.08697509765625,
					0.07135009765625,
					1
				],
				"metallicFactor":0,
				"roughnessFactor":0.5
			}
		},
		{
			"doubleSided":true,
			"name":"Material.021",
			"pbrMetallicRoughness":{
				"baseColorFactor":[
					0.09130859375,
					0.08197021484375,
					0.067138671875,
					1
				],
				"metallicFactor":0,
				"roughnessFactor":0.5
			}
		},
		{
			"doubleSided":true,
			"name":"Material.023",
			"pbrMetallicRoughness":{
				"baseColorFactor":[
					0.0777587890625,
					0.067138671875,
					0.05242919921875,
					1
				],
				"metallicFactor":0,
				"roughnessFactor":0.5
			}
		}
	],
	"meshes":[
		{
			"name":"Cube",
			"primitives":[
				{
					"attributes":{
						"POSITION":0,
						"NORMAL":1,
						"TEXCOORD_0":2
					},
					"indices":3,
					"material":0
				}
			]
		},
		{
			"name":"Cube.001",
			"primitives":[
				{
					"attributes":{
						"POSITION":4,
						"NORMAL":5,
						"TEXCOORD_0":6
					},
					"indices":3,
					"material":1
				}
			]
		},
		{
			"name":"Cube.002",
			"primitives":[
				{
					"attributes":{
						"POSITION":7,
						"NORMAL":8,
						"TEXCOORD_0":9
					},
					"indices":3,
					"material":2
				}
			]
		},
		{
			"name":"Cylinder",
			"primitives":[
				{
					"attributes":{
						"POSITION":10,
						"NORMAL":11,
						"TEXCOORD_0":12
					},
					"indices":13,
					"material":3
				},
				{
					"attributes":{
						"POSITION":14,
						"NORMAL":15,
						"TEXCOORD_0":16
					},
					"indices":17,
					"material":0
				}
			]
		},
		{
			"name":"Cone",
			"primitives":[
				{
					"attributes":{
						"POSITION":18,
						"NORMAL":19,
						"TEXCOORD_0":20
					},
					"indices":21,
					"material":4
				}
			]
		},
		{
			"name":"Cone.001",
			"primitives":[
				{
					"attributes":{
						"POSITION":22,
						"NORMAL":23,
						"TEXCOORD_0":24
					},
					"indices":21,
					"material":5
				}
			]
		},
		{
			"name":"Cone.002",
			"primitives":[
				{
					"attributes":{
						"POSITION":25,
						"NORMAL":26,
						"TEXCOORD_0":27
					},
					"indices":21,
					"material":6
				}
			]
		},
		{
			"name":"Cone.003",
			"primitives":[
				{
					"attributes":{
						"POSITION":28,
						"NORMAL":29,
						"TEXCOORD_0":30
					},
					"indices":21,
					"material":7
				}
			]
		},
		{
			"name":"Cone.004",
			"primitives":[
				{
					"attributes":{
						"POSITION":31,
						"NORMAL":32,
						"TEXCOORD_0":33
					},
					"indices":21,
					"material":8
				}
			]
		},
		{
			"name":"Cone.005",
			"primitives":[
				{
					"attributes":{
						"POSITION":34,
						"NORMAL":35,
						"TEXCOORD_0":36
					},
					"indices":21,
					"material":9
				}
			]
		},
		{
			"name":"Plane",
			"primitives":[
				{
					"attributes":{
						"POSITION":37,
						"NORMAL":38,
						"TEXCOORD_0":39
					},
					"indices":40,
					"material":10
				}
			]
		},
		{
			"name":"Cone.006",
			"primitives":[
				{
					"attributes":{
						"POSITION":41,
						"NORMAL":42,
						"TEXCOORD_0":43
					},
					"indices":21,
					"material":11
				}
			]
		},
		{
			"name":"Cone.007",
			"primitives":[
				{
					"attributes":{
						"POSITION":44,
						"NORMAL":45,
						"TEXCOORD_0":46
					},
					"indices":21,
					"material":12
				}
			]
		},
		{
			"name":"Cone.008",
			"primitives":[
				{
					"attributes":{
						"POSITION":47,
						"NORMAL":48,
						"TEXCOORD_0":49
					},
					"indices":21,
					"material":13
				}
			]
		},
		{
			"name":"Cone.009",
			"primitives":[
				{
					"attributes":{
						"POSITION":50,
						"NORMAL":51,
						"TEXCOORD_0":52
					},
					"indices":21,
					"material":14
				}
			]
		}
	],
	"textures":[
		{
			"sampler":0,
			"source":0
		},
		{
			"sampler":0,
			"source":0
		},
		{
			"sampler":0,
			"source":0
		},
		{
			"sampler":0,
			"source":1
		},
		{
			"sampler":0,
			"source":2
		}
	],
	"images":[
		{
			"mimeType":"image/jpeg",
			"name":"better wooden floor",
			"uri":"better%20wooden%20floor.jpg"
		},
		{
			"mimeType":"image/png",
			"name":"uploads_files_3523647_shapespark-low-poly-plants-kit-double-sided-for-baking_0",
			"uri":"uploads_files_3523647_shapespark-low-poly-plants-kit-double-sided-for-baking_0.png"
		},
		{
			"mimeType":"image/jpeg",
			"name":"paper",
			"uri":"paper.jpg"
		}
	],
	"accessors":[
		{
			"bufferView":0,
			"componentType":5126,
			"count":332,
			"max":[
				0.5381501913070679,
				0.9999999403953552,
				0.9999999403953552
			],
			"min":[
				-0.5381501913070679,
				-0.9999999403953552,
				-0.9827910661697388
			],
			"type":"VEC3"
		},
		{
			"bufferView":1,
			"componentType":5126,
			"count":332,
			"type":"VEC3"
		},
		{
			"bufferView":2,
			"componentType":5126,
			"count":332,
			"type":"VEC2"
		},
		{
			"bufferView":3,
			"componentType":5123,
			"count":588,
			"type":"SCALAR"
		},
		{
			"bufferView":4,
			"componentType":5126,
			"count":332,
			"max":[
				0.5381501913070679,
				0.9999999403953552,
				0.9999999403953552
			],
			"min":[
				-0.5381501913070679,
				-0.9999999403953552,
				-0.9827910661697388
			],
			"type":"VEC3"
		},
		{
			"bufferView":5,
			"componentType":5126,
			"count":332,
			"type":"VEC3"
		},
		{
			"bufferView":6,
			"componentType":5126,
			"count":332,
			"type":"VEC2"
		},
		{
			"bufferView":7,
			"componentType":5126,
			"count":332,
			"max":[
				0.5381501913070679,
				0.9999999403953552,
				0.9999999403953552
			],
			"min":[
				-0.5381501913070679,
				-0.9999999403953552,
				-0.9827910661697388
			],
			"type":"VEC3"
		},
		{
			"bufferView":8,
			"componentType":5126,
			"count":332,
			"type":"VEC3"
		},
		{
			"bufferView":9,
			"componentType":5126,
			"count":332,
			"type":"VEC2"
		},
		{
			"bufferView":10,
			"componentType":5126,
			"count":455,
			"max":[
				2.4024524688720703,
				1,
				1.0513302087783813
			],
			"min":[
				0.1408996880054474,
				-33.962608337402344,
				-1.2936911582946777
			],
			"type":"VEC3"
		},
		{
			"bufferView":11,
			"componentType":5126,
			"count":455,
			"type":"VEC3"
		},
		{
			"bufferView":12,
			"componentType":5126,
			"count":455,
			"type":"VEC2"
		},
		{
			"bufferView":13,
			"componentType":5123,
			"count":1818,
			"type":"SCALAR"
		},
		{
			"bufferView":14,
			"componentType":5126,
			"count":110,
			"max":[
				2.033407688140869,
				-32.79206466674805,
				0.8138744831085205
			],
			"min":[
				0.46201759576797485,
				-34.01011657714844,
				-0.8138746023178101
			],
			"type":"VEC3"
		},
		{
			"bufferView":15,
			"componentType":5126,
			"count":110,
			"type":"VEC3"
		},
		{
			"bufferView":16,
			"componentType":5126,
			"count":110,
			"type":"VEC2"
		},
		{
			"bufferView":17,
			"componentType":5123,
			"count":192,
			"type":"SCALAR"
		},
		{
			"bufferView":18,
			"componentType":5126,
			"count":128,
			"max":[
				3.2049567699432373,
				0.09339821338653564,
				0.46544206142425537
			],
			"min":[
				2.2740726470947266,
				-0.8374859094619751,
				-0.46544206142425537
			],
			"type":"VEC3"
		},
		{
			"bufferView":19,
			"componentType":5126,
			"count":128,
			"type":"VEC3"
		},
		{
			"bufferView":20,
			"componentType":5126,
			"count":128,
			"type":"VEC2"
		},
		{
			"bufferView":21,
			"componentType":5123,
			"count":186,
			"type":"SCALAR"
		},
		{
			"bufferView":22,
			"componentType":5126,
			"count":128,
			"max":[
				3.2049567699432373,
				0.09339821338653564,
				0.46544206142425537
			],
			"min":[
				2.2740726470947266,
				-0.8374859094619751,
				-0.46544206142425537
			],
			"type":"VEC3"
		},
		{
			"bufferView":23,
			"componentType":5126,
			"count":128,
			"type":"VEC3"
		},
		{
			"bufferView":24,
			"componentType":5126,
			"count":128,
			"type":"VEC2"
		},
		{
			"bufferView":25,
			"componentType":5126,
			"count":128,
			"max":[
				3.2049567699432373,
				0.09339821338653564,
				0.46544206142425537
			],
			"min":[
				2.2740726470947266,
				-0.8374859094619751,
				-0.46544206142425537
			],
			"type":"VEC3"
		},
		{
			"bufferView":26,
			"componentType":5126,
			"count":128,
			"type":"VEC3"
		},
		{
			"bufferView":27,
			"componentType":5126,
			"count":128,
			"type":"VEC2"
		},
		{
			"bufferView":28,
			"componentType":5126,
			"count":128,
			"max":[
				3.2049567699432373,
				0.09339821338653564,
				0.46544206142425537
			],
			"min":[
				2.2740726470947266,
				-0.8374859094619751,
				-0.46544206142425537
			],
			"type":"VEC3"
		},
		{
			"bufferView":29,
			"componentType":5126,
			"count":128,
			"type":"VEC3"
		},
		{
			"bufferView":30,
			"componentType":5126,
			"count":128,
			"type":"VEC2"
		},
		{
			"bufferView":31,
			"componentType":5126,
			"count":128,
			"max":[
				3.2049567699432373,
				0.09339821338653564,
				0.46544206142425537
			],
			"min":[
				2.2740726470947266,
				-0.8374859094619751,
				-0.46544206142425537
			],
			"type":"VEC3"
		},
		{
			"bufferView":32,
			"componentType":5126,
			"count":128,
			"type":"VEC3"
		},
		{
			"bufferView":33,
			"componentType":5126,
			"count":128,
			"type":"VEC2"
		},
		{
			"bufferView":34,
			"componentType":5126,
			"count":128,
			"max":[
				3.2049567699432373,
				0.09339821338653564,
				0.46544206142425537
			],
			"min":[
				2.2740726470947266,
				-0.8374859094619751,
				-0.46544206142425537
			],
			"type":"VEC3"
		},
		{
			"bufferView":35,
			"componentType":5126,
			"count":128,
			"type":"VEC3"
		},
		{
			"bufferView":36,
			"componentType":5126,
			"count":128,
			"type":"VEC2"
		},
		{
			"bufferView":37,
			"componentType":5126,
			"count":81,
			"max":[
				1.002045750617981,
				0.05403620004653931,
				1.0089409351348877
			],
			"min":[
				-1.0013521909713745,
				-0.0603608563542366,
				-1.0064443349838257
			],
			"type":"VEC3"
		},
		{
			"bufferView":38,
			"componentType":5126,
			"count":81,
			"type":"VEC3"
		},
		{
			"bufferView":39,
			"componentType":5126,
			"count":81,
			"type":"VEC2"
		},
		{
			"bufferView":40,
			"componentType":5123,
			"count":384,
			"type":"SCALAR"
		},
		{
			"bufferView":41,
			"componentType":5126,
			"count":128,
			"max":[
				3.204774856567383,
				1.442369818687439,
				0.46544551849365234
			],
			"min":[
				2.2738800048828125,
				-0.9073071479797363,
				-0.4654397964477539
			],
			"type":"VEC3"
		},
		{
			"bufferView":42,
			"componentType":5126,
			"count":128,
			"type":"VEC3"
		},
		{
			"bufferView":43,
			"componentType":5126,
			"count":128,
			"type":"VEC2"
		},
		{
			"bufferView":44,
			"componentType":5126,
			"count":128,
			"max":[
				3.204774856567383,
				1.442369818687439,
				0.4654397964477539
			],
			"min":[
				2.2738800048828125,
				-0.9073071479797363,
				-0.46544551849365234
			],
			"type":"VEC3"
		},
		{
			"bufferView":45,
			"componentType":5126,
			"count":128,
			"type":"VEC3"
		},
		{
			"bufferView":46,
			"componentType":5126,
			"count":128,
			"type":"VEC2"
		},
		{
			"bufferView":47,
			"componentType":5126,
			"count":128,
			"max":[
				3.204775810241699,
				1.4423695802688599,
				0.4654397964477539
			],
			"min":[
				2.273880958557129,
				-0.9073071479797363,
				-0.46544551849365234
			],
			"type":"VEC3"
		},
		{
			"bufferView":48,
			"componentType":5126,
			"count":128,
			"type":"VEC3"
		},
		{
			"bufferView":49,
			"componentType":5126,
			"count":128,
			"type":"VEC2"
		},
		{
			"bufferView":50,
			"componentType":5126,
			"count":128,
			"max":[
				3.204775810241699,
				1.4423695802688599,
				0.46544551849365234
			],
			"min":[
				2.273880958557129,
				-0.9073071479797363,
				-0.4654397964477539
			],
			"type":"VEC3"
		},
		{
			"bufferView":51,
			"componentType":5126,
			"count":128,
			"type":"VEC3"
		},
		{
			"bufferView":52,
			"componentType":5126,
			"count":128,
			"type":"VEC2"
		}
	],
	"bufferViews":[
		{
			"buffer":0,
			"byteLength":3984,
			"byteOffset":0,
			"target":34962
		},
		{
			"buffer":0,
			"byteLength":3984,
			"byteOffset":3984,
			"target":34962
		},
		{
			"buffer":0,
			"byteLength":2656,
			"byteOffset":7968,
			"target":34962
		},
		{
			"buffer":0,
			"byteLength":1176,
			"byteOffset":10624,
			"target":34963
		},
		{
			"buffer":0,
			"byteLength":3984,
			"byteOffset":11800,
			"target":34962
		},
		{
			"buffer":0,
			"byteLength":3984,
			"byteOffset":15784,
			"target":34962
		},
		{
			"buffer":0,
			"byteLength":2656,
			"byteOffset":19768,
			"target":34962
		},
		{
			"buffer":0,
			"byteLength":3984,
			"byteOffset":22424,
			"target":34962
		},
		{
			"buffer":0,
			"byteLength":3984,
			"byteOffset":26408,
			"target":34962
		},
		{
			"buffer":0,
			"byteLength":2656,
			"byteOffset":30392,
			"target":34962
		},
		{
			"buffer":0,
			"byteLength":5460,
			"byteOffset":33048,
			"target":34962
		},
		{
			"buffer":0,
			"byteLength":5460,
			"byteOffset":38508,
			"target":34962
		},
		{
			"buffer":0,
			"byteLength":3640,
			"byteOffset":43968,
			"target":34962
		},
		{
			"buffer":0,
			"byteLength":3636,
			"byteOffset":47608,
			"target":34963
		},
		{
			"buffer":0,
			"byteLength":1320,
			"byteOffset":51244,
			"target":34962
		},
		{
			"buffer":0,
			"byteLength":1320,
			"byteOffset":52564,
			"target":34962
		},
		{
			"buffer":0,
			"byteLength":880,
			"byteOffset":53884,
			"target":34962
		},
		{
			"buffer":0,
			"byteLength":384,
			"byteOffset":54764,
			"target":34963
		},
		{
			"buffer":0,
			"byteLength":1536,
			"byteOffset":55148,
			"target":34962
		},
		{
			"buffer":0,
			"byteLength":1536,
			"byteOffset":56684,
			"target":34962
		},
		{
			"buffer":0,
			"byteLength":1024,
			"byteOffset":58220,
			"target":34962
		},
		{
			"buffer":0,
			"byteLength":372,
			"byteOffset":59244,
			"target":34963
		},
		{
			"buffer":0,
			"byteLength":1536,
			"byteOffset":59616,
			"target":34962
		},
		{
			"buffer":0,
			"byteLength":1536,
			"byteOffset":61152,
			"target":34962
		},
		{
			"buffer":0,
			"byteLength":1024,
			"byteOffset":62688,
			"target":34962
		},
		{
			"buffer":0,
			"byteLength":1536,
			"byteOffset":63712,
			"target":34962
		},
		{
			"buffer":0,
			"byteLength":1536,
			"byteOffset":65248,
			"target":34962
		},
		{
			"buffer":0,
			"byteLength":1024,
			"byteOffset":66784,
			"target":34962
		},
		{
			"buffer":0,
			"byteLength":1536,
			"byteOffset":67808,
			"target":34962
		},
		{
			"buffer":0,
			"byteLength":1536,
			"byteOffset":69344,
			"target":34962
		},
		{
			"buffer":0,
			"byteLength":1024,
			"byteOffset":70880,
			"target":34962
		},
		{
			"buffer":0,
			"byteLength":1536,
			"byteOffset":71904,
			"target":34962
		},
		{
			"buffer":0,
			"byteLength":1536,
			"byteOffset":73440,
			"target":34962
		},
		{
			"buffer":0,
			"byteLength":1024,
			"byteOffset":74976,
			"target":34962
		},
		{
			"buffer":0,
			"byteLength":1536,
			"byteOffset":76000,
			"target":34962
		},
		{
			"buffer":0,
			"byteLength":1536,
			"byteOffset":77536,
			"target":34962
		},
		{
			"buffer":0,
			"byteLength":1024,
			"byteOffset":79072,
			"target":34962
		},
		{
			"buffer":0,
			"byteLength":972,
			"byteOffset":80096,
			"target":34962
		},
		{
			"buffer":0,
			"byteLength":972,
			"byteOffset":81068,
			"target":34962
		},
		{
			"buffer":0,
			"byteLength":648,
			"byteOffset":82040,
			"target":34962
		},
		{
			"buffer":0,
			"byteLength":768,
			"byteOffset":82688,
			"target":34963
		},
		{
			"buffer":0,
			"byteLength":1536,
			"byteOffset":83456,
			"target":34962
		},
		{
			"buffer":0,
			"byteLength":1536,
			"byteOffset":84992,
			"target":34962
		},
		{
			"buffer":0,
			"byteLength":1024,
			"byteOffset":86528,
			"target":34962
		},
		{
			"buffer":0,
			"byteLength":1536,
			"byteOffset":87552,
			"target":34962
		},
		{
			"buffer":0,
			"byteLength":1536,
			"byteOffset":89088,
			"target":34962
		},
		{
			"buffer":0,
			"byteLength":1024,
			"byteOffset":90624,
			"target":34962
		},
		{
			"buffer":0,
			"byteLength":1536,
			"byteOffset":91648,
			"target":34962
		},
		{
			"buffer":0,
			"byteLength":1536,
			"byteOffset":93184,
			"target":34962
		},
		{
			"buffer":0,
			"byteLength":1024,
			"byteOffset":94720,
			"target":34962
		},
		{
			"buffer":0,
			"byteLength":1536,
			"byteOffset":95744,
			"target":34962
		},
		{
			"buffer":0,
			"byteLength":1536,
			"byteOffset":97280,
			"target":34962
		},
		{
			"buffer":0,
			"byteLength":1024,
			"byteOffset":98816,
			"target":34962
		}
	],
	"samplers":[
		{
			"magFilter":9729,
			"minFilter":9987
		}
	],
	"buffers":[
		{
			"byteLength":99840,
			"uri":"sign.bin"
		}
	]
}
