{
	"asset":{
		"generator":"Khronos glTF Blender I/O v4.3.47",
		"version":"2.0"
	},
	"scene":0,
	"scenes":[
		{
			"name":"Scene",
			"nodes":[
				0,
				1,
				2
			]
		}
	],
	"nodes":[
		{
			"mesh":0,
			"name":"stairs.001",
			"rotation":[
				0,
				0.2163327932357788,
				0,
				0.9763196706771851
			],
			"scale":[
				1.2136929035186768,
				1.2136929035186768,
				1.2136929035186768
			],
			"translation":[
				0,
				0.143580824136734,
				-0.713233470916748
			]
		},
		{
			"mesh":1,
			"name":"stairs",
			"rotation":[
				0,
				0.2163327932357788,
				0,
				0.9763196706771851
			],
			"scale":[
				1.2136929035186768,
				1.2136929035186768,
				1.2136929035186768
			],
			"translation":[
				0,
				0.143580824136734,
				-0.713233470916748
			]
		},
		{
			"mesh":2,
			"name":"granite floor",
			"translation":[
				0,
				4.945000171661377,
				-0.713233470916748
			]
		}
	],
	"materials":[
		{
			"doubleSided":true,
			"name":"Material.006",
			"pbrMetallicRoughness":{
				"baseColorTexture":{
					"index":0
				},
				"metallicFactor":0,
				"roughnessFactor":0.5
			}
		},
		{
			"doubleSided":true,
			"name":"Material.007",
			"pbrMetallicRoughness":{
				"baseColorTexture":{
					"index":1
				},
				"metallicFactor":0,
				"roughnessFactor":0.5
			}
		},
		{
			"doubleSided":true,
			"name":"Material.009",
			"pbrMetallicRoughness":{
				"baseColorTexture":{
					"index":2
				},
				"metallicFactor":0,
				"roughnessFactor":0.5
			}
		},
		{
			"doubleSided":true,
			"name":"Material.010",
			"pbrMetallicRoughness":{
				"baseColorTexture":{
					"index":3
				},
				"metallicFactor":0,
				"roughnessFactor":0.5
			}
		}
	],
	"meshes":[
		{
			"name":"Circle.012",
			"primitives":[
				{
					"attributes":{
						"POSITION":0,
						"NORMAL":1,
						"TEXCOORD_0":2
					},
					"indices":3,
					"material":0
				},
				{
					"attributes":{
						"POSITION":4,
						"NORMAL":5,
						"TEXCOORD_0":6
					},
					"indices":7,
					"material":1
				},
				{
					"attributes":{
						"POSITION":8,
						"NORMAL":9,
						"TEXCOORD_0":10
					},
					"indices":11,
					"material":2
				}
			]
		},
		{
			"name":"Circle.013",
			"primitives":[
				{
					"attributes":{
						"POSITION":12,
						"NORMAL":13,
						"TEXCOORD_0":14
					},
					"indices":15,
					"material":0
				},
				{
					"attributes":{
						"POSITION":16,
						"NORMAL":17,
						"TEXCOORD_0":18
					},
					"indices":19,
					"material":1
				},
				{
					"attributes":{
						"POSITION":20,
						"NORMAL":21,
						"TEXCOORD_0":22
					},
					"indices":23,
					"material":2
				}
			]
		},
		{
			"name":"Circle.006",
			"primitives":[
				{
					"attributes":{
						"POSITION":24,
						"NORMAL":25,
						"TEXCOORD_0":26
					},
					"indices":27,
					"material":3
				}
			]
		}
	],
	"textures":[
		{
			"sampler":0,
			"source":0
		},
		{
			"sampler":0,
			"source":1
		},
		{
			"sampler":0,
			"source":2
		},
		{
			"sampler":0,
			"source":3
		}
	],
	"images":[
		{
			"mimeType":"image/jpeg",
			"name":"wooden floor",
			"uri":"wooden%20floor.jpg"
		},
		{
			"mimeType":"image/jpeg",
			"name":"better wooden floor",
			"uri":"better%20wooden%20floor.jpg"
		},
		{
			"mimeType":"image/jpeg",
			"name":"frame wood",
			"uri":"frame%20wood.jpg"
		},
		{
			"mimeType":"image/jpeg",
			"name":"granite",
			"uri":"granite.jpg"
		}
	],
	"accessors":[
		{
			"bufferView":0,
			"componentType":5126,
			"count":1809,
			"max":[
				0.9366612434387207,
				3.9079113006591797,
				0.8609978556632996
			],
			"min":[
				-0.850675106048584,
				1.4225337505340576,
				-0.866574227809906
			],
			"type":"VEC3"
		},
		{
			"bufferView":1,
			"componentType":5126,
			"count":1809,
			"type":"VEC3"
		},
		{
			"bufferView":2,
			"componentType":5126,
			"count":1809,
			"type":"VEC2"
		},
		{
			"bufferView":3,
			"componentType":5123,
			"count":4176,
			"type":"SCALAR"
		},
		{
			"bufferView":4,
			"componentType":5126,
			"count":613,
			"max":[
				0.47522082924842834,
				4.119013786315918,
				0.44203653931617737
			],
			"min":[
				-0.4167483448982239,
				1.468357801437378,
				-0.4161792993545532
			],
			"type":"VEC3"
		},
		{
			"bufferView":5,
			"componentType":5126,
			"count":613,
			"type":"VEC3"
		},
		{
			"bufferView":6,
			"componentType":5126,
			"count":613,
			"type":"VEC2"
		},
		{
			"bufferView":7,
			"componentType":5123,
			"count":837,
			"type":"SCALAR"
		},
		{
			"bufferView":8,
			"componentType":5126,
			"count":1779,
			"max":[
				0.47289684414863586,
				4.134910583496094,
				0.44146549701690674
			],
			"min":[
				-0.41459813714027405,
				1.6902883052825928,
				-0.4155602753162384
			],
			"type":"VEC3"
		},
		{
			"bufferView":9,
			"componentType":5126,
			"count":1779,
			"type":"VEC3"
		},
		{
			"bufferView":10,
			"componentType":5126,
			"count":1779,
			"type":"VEC2"
		},
		{
			"bufferView":11,
			"componentType":5123,
			"count":4647,
			"type":"SCALAR"
		},
		{
			"bufferView":12,
			"componentType":5126,
			"count":1095,
			"max":[
				0.979979395866394,
				1.4741891622543335,
				0.8314695954322815
			],
			"min":[
				-0.7796602249145508,
				-0.18340587615966797,
				-0.9494081735610962
			],
			"type":"VEC3"
		},
		{
			"bufferView":13,
			"componentType":5126,
			"count":1095,
			"type":"VEC3"
		},
		{
			"bufferView":14,
			"componentType":5126,
			"count":1095,
			"type":"VEC2"
		},
		{
			"bufferView":15,
			"componentType":5123,
			"count":2526,
			"type":"SCALAR"
		},
		{
			"bufferView":16,
			"componentType":5126,
			"count":384,
			"max":[
				0.48752135038375854,
				1.7159816026687622,
				0.41880637407302856
			],
			"min":[
				-0.34934648871421814,
				-0.1337689608335495,
				-0.47235745191574097
			],
			"type":"VEC3"
		},
		{
			"bufferView":17,
			"componentType":5126,
			"count":384,
			"type":"VEC3"
		},
		{
			"bufferView":18,
			"componentType":5126,
			"count":384,
			"type":"VEC2"
		},
		{
			"bufferView":19,
			"componentType":5123,
			"count":528,
			"type":"SCALAR"
		},
		{
			"bufferView":20,
			"componentType":5126,
			"count":1055,
			"max":[
				0.48618924617767334,
				1.733128309249878,
				0.4189795255661011
			],
			"min":[
				-0.34765708446502686,
				0.11108112335205078,
				-0.47017794847488403
			],
			"type":"VEC3"
		},
		{
			"bufferView":21,
			"componentType":5126,
			"count":1055,
			"type":"VEC3"
		},
		{
			"bufferView":22,
			"componentType":5126,
			"count":1055,
			"type":"VEC2"
		},
		{
			"bufferView":23,
			"componentType":5123,
			"count":2790,
			"type":"SCALAR"
		},
		{
			"bufferView":24,
			"componentType":5126,
			"count":224,
			"max":[
				0.9894469976425171,
				-0.06929691135883331,
				0.1263439953327179
			],
			"min":[
				-0.9894469976425171,
				-0.10929690301418304,
				-0.9894469380378723
			],
			"type":"VEC3"
		},
		{
			"bufferView":25,
			"componentType":5126,
			"count":224,
			"type":"VEC3"
		},
		{
			"bufferView":26,
			"componentType":5126,
			"count":224,
			"type":"VEC2"
		},
		{
			"bufferView":27,
			"componentType":5123,
			"count":420,
			"type":"SCALAR"
		}
	],
	"bufferViews":[
		{
			"buffer":0,
			"byteLength":21708,
			"byteOffset":0,
			"target":34962
		},
		{
			"buffer":0,
			"byteLength":21708,
			"byteOffset":21708,
			"target":34962
		},
		{
			"buffer":0,
			"byteLength":14472,
			"byteOffset":43416,
			"target":34962
		},
		{
			"buffer":0,
			"byteLength":8352,
			"byteOffset":57888,
			"target":34963
		},
		{
			"buffer":0,
			"byteLength":7356,
			"byteOffset":66240,
			"target":34962
		},
		{
			"buffer":0,
			"byteLength":7356,
			"byteOffset":73596,
			"target":34962
		},
		{
			"buffer":0,
			"byteLength":4904,
			"byteOffset":80952,
			"target":34962
		},
		{
			"buffer":0,
			"byteLength":1674,
			"byteOffset":85856,
			"target":34963
		},
		{
			"buffer":0,
			"byteLength":21348,
			"byteOffset":87532,
			"target":34962
		},
		{
			"buffer":0,
			"byteLength":21348,
			"byteOffset":108880,
			"target":34962
		},
		{
			"buffer":0,
			"byteLength":14232,
			"byteOffset":130228,
			"target":34962
		},
		{
			"buffer":0,
			"byteLength":9294,
			"byteOffset":144460,
			"target":34963
		},
		{
			"buffer":0,
			"byteLength":13140,
			"byteOffset":153756,
			"target":34962
		},
		{
			"buffer":0,
			"byteLength":13140,
			"byteOffset":166896,
			"target":34962
		},
		{
			"buffer":0,
			"byteLength":8760,
			"byteOffset":180036,
			"target":34962
		},
		{
			"buffer":0,
			"byteLength":5052,
			"byteOffset":188796,
			"target":34963
		},
		{
			"buffer":0,
			"byteLength":4608,
			"byteOffset":193848,
			"target":34962
		},
		{
			"buffer":0,
			"byteLength":4608,
			"byteOffset":198456,
			"target":34962
		},
		{
			"buffer":0,
			"byteLength":3072,
			"byteOffset":203064,
			"target":34962
		},
		{
			"buffer":0,
			"byteLength":1056,
			"byteOffset":206136,
			"target":34963
		},
		{
			"buffer":0,
			"byteLength":12660,
			"byteOffset":207192,
			"target":34962
		},
		{
			"buffer":0,
			"byteLength":12660,
			"byteOffset":219852,
			"target":34962
		},
		{
			"buffer":0,
			"byteLength":8440,
			"byteOffset":232512,
			"target":34962
		},
		{
			"buffer":0,
			"byteLength":5580,
			"byteOffset":240952,
			"target":34963
		},
		{
			"buffer":0,
			"byteLength":2688,
			"byteOffset":246532,
			"target":34962
		},
		{
			"buffer":0,
			"byteLength":2688,
			"byteOffset":249220,
			"target":34962
		},
		{
			"buffer":0,
			"byteLength":1792,
			"byteOffset":251908,
			"target":34962
		},
		{
			"buffer":0,
			"byteLength":840,
			"byteOffset":253700,
			"target":34963
		}
	],
	"samplers":[
		{
			"magFilter":9729,
			"minFilter":9987
		}
	],
	"buffers":[
		{
			"byteLength":254540,
			"uri":"stairs.bin"
		}
	]
}
