{
	"asset":{
		"generator":"Khronos glTF Blender I/O v4.3.47",
		"version":"2.0"
	},
	"scene":0,
	"scenes":[
		{
			"name":"Scene",
			"nodes":[
				0,
				1
			]
		}
	],
	"nodes":[
		{
			"mesh":0,
			"name":"Circle"
		},
		{
			"mesh":1,
			"name":"Circle.001"
		}
	],
	"materials":[
		{
			"doubleSided":true,
			"name":"Material.001",
			"pbrMetallicRoughness":{
				"baseColorTexture":{
					"index":0
				},
				"metallicFactor":0,
				"roughnessFactor":0.5
			}
		},
		{
			"doubleSided":true,
			"name":"Material.003",
			"pbrMetallicRoughness":{
				"baseColorTexture":{
					"index":1
				},
				"metallicFactor":0,
				"roughnessFactor":0.5
			}
		},
		{
			"doubleSided":true,
			"name":"Material.002",
			"pbrMetallicRoughness":{
				"baseColorFactor":[
					0.8004242181777954,
					0.406903475522995,
					0.18313093483448029,
					1
				],
				"metallicFactor":0.7698412537574768,
				"roughnessFactor":0.071428582072258
			}
		}
	],
	"meshes":[
		{
			"name":"Circle",
			"primitives":[
				{
					"attributes":{
						"POSITION":0,
						"NORMAL":1,
						"TEXCOORD_0":2
					},
					"indices":3,
					"material":0
				},
				{
					"attributes":{
						"POSITION":4,
						"NORMAL":5,
						"TEXCOORD_0":6
					},
					"indices":7,
					"material":1
				}
			]
		},
		{
			"name":"Circle.001",
			"primitives":[
				{
					"attributes":{
						"POSITION":8,
						"NORMAL":9,
						"TEXCOORD_0":10
					},
					"indices":11,
					"material":2
				}
			]
		}
	],
	"textures":[
		{
			"sampler":0,
			"source":0
		},
		{
			"sampler":0,
			"source":1
		}
	],
	"images":[
		{
			"mimeType":"image/jpeg",
			"name":"concrete floor",
			"uri":"concrete%20floor.jpg"
		},
		{
			"mimeType":"image/jpeg",
			"name":"granite",
			"uri":"granite.jpg"
		}
	],
	"accessors":[
		{
			"bufferView":0,
			"componentType":5126,
			"count":1099,
			"max":[
				0.2586965262889862,
				0.7317349314689636,
				0.2544814944267273
			],
			"min":[
				-0.2528848648071289,
				0,
				-0.2544814944267273
			],
			"type":"VEC3"
		},
		{
			"bufferView":1,
			"componentType":5126,
			"count":1099,
			"type":"VEC3"
		},
		{
			"bufferView":2,
			"componentType":5126,
			"count":1099,
			"type":"VEC2"
		},
		{
			"bufferView":3,
			"componentType":5123,
			"count":1761,
			"type":"SCALAR"
		},
		{
			"bufferView":4,
			"componentType":5126,
			"count":56,
			"max":[
				0.04131140559911728,
				0.7276371121406555,
				0.24622465670108795
			],
			"min":[
				-0.24622465670108795,
				0.7218416929244995,
				-0.24622465670108795
			],
			"type":"VEC3"
		},
		{
			"bufferView":5,
			"componentType":5126,
			"count":56,
			"type":"VEC3"
		},
		{
			"bufferView":6,
			"componentType":5126,
			"count":56,
			"type":"VEC2"
		},
		{
			"bufferView":7,
			"componentType":5123,
			"count":84,
			"type":"SCALAR"
		},
		{
			"bufferView":8,
			"componentType":5126,
			"count":283,
			"max":[
				0.04131140559911728,
				0.8807950615882874,
				0.08457179367542267
			],
			"min":[
				-0.17391422390937805,
				0.7218416929244995,
				-0.08457706868648529
			],
			"type":"VEC3"
		},
		{
			"bufferView":9,
			"componentType":5126,
			"count":283,
			"type":"VEC3"
		},
		{
			"bufferView":10,
			"componentType":5126,
			"count":283,
			"type":"VEC2"
		},
		{
			"bufferView":11,
			"componentType":5123,
			"count":477,
			"type":"SCALAR"
		}
	],
	"bufferViews":[
		{
			"buffer":0,
			"byteLength":13188,
			"byteOffset":0,
			"target":34962
		},
		{
			"buffer":0,
			"byteLength":13188,
			"byteOffset":13188,
			"target":34962
		},
		{
			"buffer":0,
			"byteLength":8792,
			"byteOffset":26376,
			"target":34962
		},
		{
			"buffer":0,
			"byteLength":3522,
			"byteOffset":35168,
			"target":34963
		},
		{
			"buffer":0,
			"byteLength":672,
			"byteOffset":38692,
			"target":34962
		},
		{
			"buffer":0,
			"byteLength":672,
			"byteOffset":39364,
			"target":34962
		},
		{
			"buffer":0,
			"byteLength":448,
			"byteOffset":40036,
			"target":34962
		},
		{
			"buffer":0,
			"byteLength":168,
			"byteOffset":40484,
			"target":34963
		},
		{
			"buffer":0,
			"byteLength":3396,
			"byteOffset":40652,
			"target":34962
		},
		{
			"buffer":0,
			"byteLength":3396,
			"byteOffset":44048,
			"target":34962
		},
		{
			"buffer":0,
			"byteLength":2264,
			"byteOffset":47444,
			"target":34962
		},
		{
			"buffer":0,
			"byteLength":954,
			"byteOffset":49708,
			"target":34963
		}
	],
	"samplers":[
		{
			"magFilter":9729,
			"minFilter":9987
		}
	],
	"buffers":[
		{
			"byteLength":50664,
			"uri":"sundial.bin"
		}
	]
}
