{
	"asset":{
		"generator":"Khronos glTF Blender I/O v4.3.47",
		"version":"2.0"
	},
	"scene":0,
	"scenes":[
		{
			"name":"Scene",
			"nodes":[
				0,
				1
			]
		}
	],
	"nodes":[
		{
			"mesh":0,
			"name":"Cube"
		},
		{
			"mesh":1,
			"name":"Circle"
		}
	],
	"materials":[
		{
			"doubleSided":true,
			"name":"Material.003",
			"pbrMetallicRoughness":{
				"baseColorFactor":[
					0,
					0,
					0,
					1
				],
				"metallicFactor":0.7086614370346069,
				"roughnessFactor":0.6889764070510864
			}
		},
		{
			"doubleSided":true,
			"name":"Material.002",
			"pbrMetallicRoughness":{
				"baseColorFactor":[
					0.800000011920929,
					0.800000011920929,
					0.800000011920929,
					1
				],
				"metallicFactor":0.6614173054695129,
				"roughnessFactor":0.5157480239868164
			}
		},
		{
			"doubleSided":true,
			"name":"Material.004",
			"pbrMetallicRoughness":{
				"baseColorFactor":[
					0.27663102746009827,
					0.5368071794509888,
					0.8002121448516846,
					1
				],
				"metallicFactor":0.7716535329818726,
				"roughnessFactor":0.18503937125205994
			}
		},
		{
			"doubleSided":true,
			"name":"Material.005",
			"pbrMetallicRoughness":{
				"baseColorFactor":[
					0.44258400797843933,
					0.44258400797843933,
					0.44258400797843933,
					1
				],
				"metallicFactor":0,
				"roughnessFactor":0.5
			}
		}
	],
	"meshes":[
		{
			"name":"Cube",
			"primitives":[
				{
					"attributes":{
						"POSITION":0,
						"NORMAL":1,
						"TEXCOORD_0":2
					},
					"indices":3,
					"material":0
				},
				{
					"attributes":{
						"POSITION":4,
						"NORMAL":5,
						"TEXCOORD_0":6
					},
					"indices":7,
					"material":1
				},
				{
					"attributes":{
						"POSITION":8,
						"NORMAL":9,
						"TEXCOORD_0":10
					},
					"indices":11,
					"material":2
				}
			]
		},
		{
			"name":"Circle.001",
			"primitives":[
				{
					"attributes":{
						"POSITION":12,
						"NORMAL":13,
						"TEXCOORD_0":14
					},
					"indices":15,
					"material":0
				},
				{
					"attributes":{
						"POSITION":16,
						"NORMAL":17,
						"TEXCOORD_0":18
					},
					"indices":19,
					"material":3
				}
			]
		}
	],
	"accessors":[
		{
			"bufferView":0,
			"componentType":5126,
			"count":150,
			"max":[
				0.360280305147171,
				0.8098064661026001,
				0.05493277311325073
			],
			"min":[
				-0.2792854607105255,
				0.544593095779419,
				-0.05074172094464302
			],
			"type":"VEC3"
		},
		{
			"bufferView":1,
			"componentType":5126,
			"count":150,
			"type":"VEC3"
		},
		{
			"bufferView":2,
			"componentType":5126,
			"count":150,
			"type":"VEC2"
		},
		{
			"bufferView":3,
			"componentType":5123,
			"count":648,
			"type":"SCALAR"
		},
		{
			"bufferView":4,
			"componentType":5126,
			"count":88,
			"max":[
				0.360280305147171,
				0.8098064661026001,
				0.05493277311325073
			],
			"min":[
				-0.26723718643188477,
				0.5657380223274231,
				-0.05059175193309784
			],
			"type":"VEC3"
		},
		{
			"bufferView":5,
			"componentType":5126,
			"count":88,
			"type":"VEC3"
		},
		{
			"bufferView":6,
			"componentType":5126,
			"count":88,
			"type":"VEC2"
		},
		{
			"bufferView":7,
			"componentType":5123,
			"count":336,
			"type":"SCALAR"
		},
		{
			"bufferView":8,
			"componentType":5126,
			"count":56,
			"max":[
				0.35020655393600464,
				0.8027924299240112,
				0.05030941963195801
			],
			"min":[
				-0.2649085521697998,
				0.6237973570823669,
				-0.04650065675377846
			],
			"type":"VEC3"
		},
		{
			"bufferView":9,
			"componentType":5126,
			"count":56,
			"type":"VEC3"
		},
		{
			"bufferView":10,
			"componentType":5126,
			"count":56,
			"type":"VEC2"
		},
		{
			"bufferView":11,
			"componentType":5123,
			"count":276,
			"type":"SCALAR"
		},
		{
			"bufferView":12,
			"componentType":5126,
			"count":156,
			"max":[
				0.31873348355293274,
				0.6319122314453125,
				0.2450583279132843
			],
			"min":[
				-0.11279237270355225,
				-0.024712540209293365,
				-0.2653259336948395
			],
			"type":"VEC3"
		},
		{
			"bufferView":13,
			"componentType":5126,
			"count":156,
			"type":"VEC3"
		},
		{
			"bufferView":14,
			"componentType":5126,
			"count":156,
			"type":"VEC2"
		},
		{
			"bufferView":15,
			"componentType":5123,
			"count":297,
			"type":"SCALAR"
		},
		{
			"bufferView":16,
			"componentType":5126,
			"count":76,
			"max":[
				0.31035178899765015,
				0.545798659324646,
				0.2371203452348709
			],
			"min":[
				-0.10817587375640869,
				-0.007174726575613022,
				-0.2585464417934418
			],
			"type":"VEC3"
		},
		{
			"bufferView":17,
			"componentType":5126,
			"count":76,
			"type":"VEC3"
		},
		{
			"bufferView":18,
			"componentType":5126,
			"count":76,
			"type":"VEC2"
		},
		{
			"bufferView":19,
			"componentType":5123,
			"count":126,
			"type":"SCALAR"
		}
	],
	"bufferViews":[
		{
			"buffer":0,
			"byteLength":1800,
			"byteOffset":0,
			"target":34962
		},
		{
			"buffer":0,
			"byteLength":1800,
			"byteOffset":1800,
			"target":34962
		},
		{
			"buffer":0,
			"byteLength":1200,
			"byteOffset":3600,
			"target":34962
		},
		{
			"buffer":0,
			"byteLength":1296,
			"byteOffset":4800,
			"target":34963
		},
		{
			"buffer":0,
			"byteLength":1056,
			"byteOffset":6096,
			"target":34962
		},
		{
			"buffer":0,
			"byteLength":1056,
			"byteOffset":7152,
			"target":34962
		},
		{
			"buffer":0,
			"byteLength":704,
			"byteOffset":8208,
			"target":34962
		},
		{
			"buffer":0,
			"byteLength":672,
			"byteOffset":8912,
			"target":34963
		},
		{
			"buffer":0,
			"byteLength":672,
			"byteOffset":9584,
			"target":34962
		},
		{
			"buffer":0,
			"byteLength":672,
			"byteOffset":10256,
			"target":34962
		},
		{
			"buffer":0,
			"byteLength":448,
			"byteOffset":10928,
			"target":34962
		},
		{
			"buffer":0,
			"byteLength":552,
			"byteOffset":11376,
			"target":34963
		},
		{
			"buffer":0,
			"byteLength":1872,
			"byteOffset":11928,
			"target":34962
		},
		{
			"buffer":0,
			"byteLength":1872,
			"byteOffset":13800,
			"target":34962
		},
		{
			"buffer":0,
			"byteLength":1248,
			"byteOffset":15672,
			"target":34962
		},
		{
			"buffer":0,
			"byteLength":594,
			"byteOffset":16920,
			"target":34963
		},
		{
			"buffer":0,
			"byteLength":912,
			"byteOffset":17516,
			"target":34962
		},
		{
			"buffer":0,
			"byteLength":912,
			"byteOffset":18428,
			"target":34962
		},
		{
			"buffer":0,
			"byteLength":608,
			"byteOffset":19340,
			"target":34962
		},
		{
			"buffer":0,
			"byteLength":252,
			"byteOffset":19948,
			"target":34963
		}
	],
	"buffers":[
		{
			"byteLength":20200,
			"uri":"telescope.bin"
		}
	]
}
