{
	"asset":{
		"generator":"Khronos glTF Blender I/O v4.3.47",
		"version":"2.0"
	},
	"scene":0,
	"scenes":[
		{
			"name":"Scene",
			"nodes":[
				0
			]
		}
	],
	"nodes":[
		{
			"mesh":0,
			"name":"Cylinder.001",
			"translation":[
				0,
				0.7599999904632568,
				0
			]
		}
	],
	"materials":[
		{
			"doubleSided":true,
			"name":"Material.001",
			"pbrMetallicRoughness":{
				"baseColorTexture":{
					"index":0
				},
				"metallicFactor":0
			}
		},
		{
			"doubleSided":true,
			"name":"Material.002",
			"pbrMetallicRoughness":{
				"baseColorTexture":{
					"index":1
				},
				"metallicFactor":0,
				"roughnessFactor":0.5
			}
		}
	],
	"meshes":[
		{
			"name":"Cylinder.001",
			"primitives":[
				{
					"attributes":{
						"POSITION":0,
						"NORMAL":1,
						"TEXCOORD_0":2
					},
					"indices":3,
					"material":0
				},
				{
					"attributes":{
						"POSITION":4,
						"NORMAL":5,
						"TEXCOORD_0":6
					},
					"indices":7,
					"material":1
				}
			]
		}
	],
	"textures":[
		{
			"sampler":0,
			"source":0
		},
		{
			"sampler":0,
			"source":1
		}
	],
	"images":[
		{
			"mimeType":"image/jpeg",
			"name":"concrete floor",
			"uri":"concrete%20floor.jpg"
		},
		{
			"mimeType":"image/jpeg",
			"name":"drywall",
			"uri":"drywall.jpg"
		}
	],
	"accessors":[
		{
			"bufferView":0,
			"componentType":5126,
			"count":8988,
			"max":[
				1.3685765266418457,
				1.038057804107666,
				1.3666799068450928
			],
			"min":[
				-1.3629695177078247,
				-0.7992580533027649,
				-1.3472979068756104
			],
			"type":"VEC3"
		},
		{
			"bufferView":1,
			"componentType":5126,
			"count":8988,
			"type":"VEC3"
		},
		{
			"bufferView":2,
			"componentType":5126,
			"count":8988,
			"type":"VEC2"
		},
		{
			"bufferView":3,
			"componentType":5123,
			"count":14646,
			"type":"SCALAR"
		},
		{
			"bufferView":4,
			"componentType":5126,
			"count":2860,
			"max":[
				1.361806869506836,
				1.010555386543274,
				1.3425719738006592
			],
			"min":[
				-1.3414442539215088,
				-0.772885799407959,
				-1.3207883834838867
			],
			"type":"VEC3"
		},
		{
			"bufferView":5,
			"componentType":5126,
			"count":2860,
			"type":"VEC3"
		},
		{
			"bufferView":6,
			"componentType":5126,
			"count":2860,
			"type":"VEC2"
		},
		{
			"bufferView":7,
			"componentType":5123,
			"count":5382,
			"type":"SCALAR"
		}
	],
	"bufferViews":[
		{
			"buffer":0,
			"byteLength":107856,
			"byteOffset":0,
			"target":34962
		},
		{
			"buffer":0,
			"byteLength":107856,
			"byteOffset":107856,
			"target":34962
		},
		{
			"buffer":0,
			"byteLength":71904,
			"byteOffset":215712,
			"target":34962
		},
		{
			"buffer":0,
			"byteLength":29292,
			"byteOffset":287616,
			"target":34963
		},
		{
			"buffer":0,
			"byteLength":34320,
			"byteOffset":316908,
			"target":34962
		},
		{
			"buffer":0,
			"byteLength":34320,
			"byteOffset":351228,
			"target":34962
		},
		{
			"buffer":0,
			"byteLength":22880,
			"byteOffset":385548,
			"target":34962
		},
		{
			"buffer":0,
			"byteLength":10764,
			"byteOffset":408428,
			"target":34963
		}
	],
	"samplers":[
		{
			"magFilter":9729,
			"minFilter":9987
		}
	],
	"buffers":[
		{
			"byteLength":419192,
			"uri":"tower.bin"
		}
	]
}
