{
	"asset":{
		"generator":"Khronos glTF Blender I/O v4.3.47",
		"version":"2.0"
	},
	"scene":0,
	"scenes":[
		{
			"name":"Scene",
			"nodes":[
				0
			]
		}
	],
	"nodes":[
		{
			"mesh":0,
			"name":"treehouse"
		}
	],
	"materials":[
		{
			"doubleSided":true,
			"name":"Material.001",
			"pbrMetallicRoughness":{
				"baseColorTexture":{
					"index":0
				},
				"metallicFactor":0
			}
		},
		{
			"doubleSided":true,
			"name":"Material.002",
			"pbrMetallicRoughness":{
				"baseColorTexture":{
					"index":1
				},
				"metallicFactor":0
			}
		},
		{
			"doubleSided":true,
			"name":"Material.003",
			"pbrMetallicRoughness":{
				"baseColorTexture":{
					"index":2
				},
				"metallicFactor":0
			}
		}
	],
	"meshes":[
		{
			"name":"Circle.003",
			"primitives":[
				{
					"attributes":{
						"POSITION":0,
						"NORMAL":1,
						"TEXCOORD_0":2
					},
					"indices":3,
					"material":0
				},
				{
					"attributes":{
						"POSITION":4,
						"NORMAL":5,
						"TEXCOORD_0":6
					},
					"indices":7,
					"material":1
				},
				{
					"attributes":{
						"POSITION":8,
						"NORMAL":9,
						"TEXCOORD_0":10
					},
					"indices":11,
					"material":2
				}
			]
		}
	],
	"textures":[
		{
			"sampler":0,
			"source":0
		},
		{
			"sampler":0,
			"source":1
		},
		{
			"sampler":0,
			"source":2
		}
	],
	"images":[
		{
			"mimeType":"image/jpeg",
			"name":"better wooden floor",
			"uri":"better%20wooden%20floor.jpg"
		},
		{
			"mimeType":"image/jpeg",
			"name":"shinglesred",
			"uri":"shinglesred.jpg"
		},
		{
			"mimeType":"image/jpeg",
			"name":"wooden floor",
			"uri":"wooden%20floor.jpg"
		}
	],
	"accessors":[
		{
			"bufferView":0,
			"componentType":5126,
			"count":5972,
			"max":[
				5.138680458068848,
				2.9796597957611084,
				5.090069770812988
			],
			"min":[
				-5.089720726013184,
				-0.5861310958862305,
				-5.0897016525268555
			],
			"type":"VEC3"
		},
		{
			"bufferView":1,
			"componentType":5126,
			"count":5972,
			"type":"VEC3"
		},
		{
			"bufferView":2,
			"componentType":5126,
			"count":5972,
			"type":"VEC2"
		},
		{
			"bufferView":3,
			"componentType":5123,
			"count":9834,
			"type":"SCALAR"
		},
		{
			"bufferView":4,
			"componentType":5126,
			"count":448,
			"max":[
				4.445728302001953,
				2.9989819526672363,
				4.445727825164795
			],
			"min":[
				-4.445734977722168,
				2.08815860748291,
				-4.445734977722168
			],
			"type":"VEC3"
		},
		{
			"bufferView":5,
			"componentType":5126,
			"count":448,
			"type":"VEC3"
		},
		{
			"bufferView":6,
			"componentType":5126,
			"count":448,
			"type":"VEC2"
		},
		{
			"bufferView":7,
			"componentType":5123,
			"count":672,
			"type":"SCALAR"
		},
		{
			"bufferView":8,
			"componentType":5126,
			"count":1624,
			"max":[
				5.178005695343018,
				2.3654351234436035,
				5.17802619934082
			],
			"min":[
				-5.177665710449219,
				-0.5861310958862305,
				-5.177646160125732
			],
			"type":"VEC3"
		},
		{
			"bufferView":9,
			"componentType":5126,
			"count":1624,
			"type":"VEC3"
		},
		{
			"bufferView":10,
			"componentType":5126,
			"count":1624,
			"type":"VEC2"
		},
		{
			"bufferView":11,
			"componentType":5123,
			"count":3072,
			"type":"SCALAR"
		}
	],
	"bufferViews":[
		{
			"buffer":0,
			"byteLength":71664,
			"byteOffset":0,
			"target":34962
		},
		{
			"buffer":0,
			"byteLength":71664,
			"byteOffset":71664,
			"target":34962
		},
		{
			"buffer":0,
			"byteLength":47776,
			"byteOffset":143328,
			"target":34962
		},
		{
			"buffer":0,
			"byteLength":19668,
			"byteOffset":191104,
			"target":34963
		},
		{
			"buffer":0,
			"byteLength":5376,
			"byteOffset":210772,
			"target":34962
		},
		{
			"buffer":0,
			"byteLength":5376,
			"byteOffset":216148,
			"target":34962
		},
		{
			"buffer":0,
			"byteLength":3584,
			"byteOffset":221524,
			"target":34962
		},
		{
			"buffer":0,
			"byteLength":1344,
			"byteOffset":225108,
			"target":34963
		},
		{
			"buffer":0,
			"byteLength":19488,
			"byteOffset":226452,
			"target":34962
		},
		{
			"buffer":0,
			"byteLength":19488,
			"byteOffset":245940,
			"target":34962
		},
		{
			"buffer":0,
			"byteLength":12992,
			"byteOffset":265428,
			"target":34962
		},
		{
			"buffer":0,
			"byteLength":6144,
			"byteOffset":278420,
			"target":34963
		}
	],
	"samplers":[
		{
			"magFilter":9729,
			"minFilter":9987
		}
	],
	"buffers":[
		{
			"byteLength":284564,
			"uri":"treehouse.bin"
		}
	]
}
