{
	"asset":{
		"generator":"Khronos glTF Blender I/O v4.3.47",
		"version":"2.0"
	},
	"scene":0,
	"scenes":[
		{
			"name":"Scene",
			"nodes":[
				0
			]
		}
	],
	"nodes":[
		{
			"mesh":0,
			"name":"STOOL",
			"scale":[
				0.009999999776482582,
				0.009999999776482582,
				0.009999999776482582
			],
			"translation":[
				0,
				0,
				2.230980634689331
			]
		}
	],
	"materials":[
		{
			"doubleSided":true,
			"name":"Material.001",
			"pbrMetallicRoughness":{
				"baseColorTexture":{
					"index":0
				},
				"metallicFactor":0,
				"roughnessFactor":0.5
			}
		}
	],
	"meshes":[
		{
			"name":"STOOL",
			"primitives":[
				{
					"attributes":{
						"POSITION":0,
						"NORMAL":1,
						"TEXCOORD_0":2
					},
					"indices":3,
					"material":0
				}
			]
		}
	],
	"textures":[
		{
			"sampler":0,
			"source":0
		}
	],
	"images":[
		{
			"mimeType":"image/jpeg",
			"name":"wooden floor",
			"uri":"wooden%20floor.jpg"
		}
	],
	"accessors":[
		{
			"bufferView":0,
			"componentType":5126,
			"count":3854,
			"max":[
				29.000001907348633,
				45.50004577636719,
				-230.35061645507812
			],
			"min":[
				9.999999974752427e-07,
				4.58887625427451e-05,
				-259.3506164550781
			],
			"type":"VEC3"
		},
		{
			"bufferView":1,
			"componentType":5126,
			"count":3854,
			"type":"VEC3"
		},
		{
			"bufferView":2,
			"componentType":5126,
			"count":3854,
			"type":"VEC2"
		},
		{
			"bufferView":3,
			"componentType":5123,
			"count":4788,
			"type":"SCALAR"
		}
	],
	"bufferViews":[
		{
			"buffer":0,
			"byteLength":46248,
			"byteOffset":0,
			"target":34962
		},
		{
			"buffer":0,
			"byteLength":46248,
			"byteOffset":46248,
			"target":34962
		},
		{
			"buffer":0,
			"byteLength":30832,
			"byteOffset":92496,
			"target":34962
		},
		{
			"buffer":0,
			"byteLength":9576,
			"byteOffset":123328,
			"target":34963
		}
	],
	"samplers":[
		{
			"magFilter":9729,
			"minFilter":9987
		}
	],
	"buffers":[
		{
			"byteLength":132904,
			"uri":"untitled.bin"
		}
	]
}
