{
	"asset":{
		"generator":"Khronos glTF Blender I/O v4.3.47",
		"version":"2.0"
	},
	"scene":0,
	"scenes":[
		{
			"name":"Scene",
			"nodes":[
				0,
				1,
				2,
				3,
				4,
				5,
				6,
				7,
				8,
				9
			]
		}
	],
	"nodes":[
		{
			"mesh":0,
			"name":"box",
			"translation":[
				0,
				3.0565710067749023,
				0
			]
		},
		{
			"mesh":1,
			"name":"container",
			"translation":[
				45.68247985839844,
				37.61463928222656,
				-78.38545227050781
			]
		},
		{
			"mesh":2,
			"name":"cylinder",
			"translation":[
				15.311066627502441,
				21.031036376953125,
				-14.947165489196777
			]
		},
		{
			"mesh":3,
			"name":"doorFrame",
			"translation":[
				12.861632347106934,
				56.34941101074219,
				-14.482019424438477
			]
		},
		{
			"mesh":4,
			"name":"doorGlass",
			"rotation":[
				-0.9999536275863647,
				0,
				0,
				0.009639309719204903
			],
			"translation":[
				22.032873153686523,
				57.314361572265625,
				-57.85813522338867
			]
		},
		{
			"mesh":5,
			"name":"front",
			"translation":[
				0.23796012997627258,
				47.86438751220703,
				-1.8205993175506592
			]
		},
		{
			"mesh":6,
			"name":"knob",
			"rotation":[
				-1,
				0,
				0,
				4.371138828673793e-08
			],
			"translation":[
				9.520161628723145,
				61.48908996582031,
				-87.77330780029297
			]
		},
		{
			"mesh":7,
			"name":"knobGasket",
			"rotation":[
				-0.0002683485217858106,
				0.6883677840232849,
				0.009608752094209194,
				0.7252981066703796
			],
			"translation":[
				18.193511962890625,
				57.10124969482422,
				-80.48775482177734
			]
		},
		{
			"mesh":8,
			"name":"knobGasket.001",
			"rotation":[
				-0.0002683485217858106,
				0.6883677840232849,
				0.009608752094209194,
				0.7252981066703796
			],
			"translation":[
				34.52801513671875,
				56.4439697265625,
				-81.45121765136719
			]
		},
		{
			"mesh":9,
			"name":"knob.001",
			"rotation":[
				-1,
				0,
				0,
				4.371138828673793e-08
			],
			"translation":[
				25.854663848876953,
				60.831809997558594,
				-88.73677062988281
			]
		}
	],
	"materials":[
		{
			"doubleSided":true,
			"name":"Material.001",
			"pbrMetallicRoughness":{
				"baseColorFactor":[
					0.8003553152084351,
					0.42028817534446716,
					0.5955649018287659,
					1
				],
				"metallicFactor":0.6377952694892883,
				"roughnessFactor":0.31889763474464417
			}
		},
		{
			"doubleSided":true,
			"name":"Material.004",
			"pbrMetallicRoughness":{
				"baseColorFactor":[
					0,
					0.0032613039948046207,
					0.08502668142318726,
					1
				],
				"metallicFactor":0,
				"roughnessFactor":0.5
			}
		},
		{
			"doubleSided":true,
			"name":"Material.005",
			"pbrMetallicRoughness":{
				"baseColorFactor":[
					0.3441290855407715,
					0.4479784369468689,
					0.7974610328674316,
					1
				],
				"roughnessFactor":0
			}
		},
		{
			"alphaMode":"BLEND",
			"doubleSided":true,
			"name":"Material.003",
			"pbrMetallicRoughness":{
				"baseColorFactor":[
					0.08825471997261047,
					0.6751410365104675,
					0.8005601167678833,
					0.32283467054367065
				],
				"metallicFactor":0.4566929042339325,
				"roughnessFactor":0.5
			}
		}
	],
	"meshes":[
		{
			"name":"box",
			"primitives":[
				{
					"attributes":{
						"POSITION":0,
						"NORMAL":1
					},
					"indices":2,
					"material":0
				}
			]
		},
		{
			"name":"container",
			"primitives":[
				{
					"attributes":{
						"POSITION":3,
						"NORMAL":4
					},
					"indices":5,
					"material":1
				}
			]
		},
		{
			"name":"cylinder",
			"primitives":[
				{
					"attributes":{
						"POSITION":6,
						"NORMAL":7
					},
					"indices":8,
					"material":2
				}
			]
		},
		{
			"name":"doorFrame",
			"primitives":[
				{
					"attributes":{
						"POSITION":9,
						"NORMAL":10
					},
					"indices":11,
					"material":0
				}
			]
		},
		{
			"name":"doorGlass",
			"primitives":[
				{
					"attributes":{
						"POSITION":12,
						"NORMAL":13
					},
					"indices":14,
					"material":3
				}
			]
		},
		{
			"name":"front",
			"primitives":[
				{
					"attributes":{
						"POSITION":15,
						"NORMAL":16
					},
					"indices":17,
					"material":0
				}
			]
		},
		{
			"name":"knob",
			"primitives":[
				{
					"attributes":{
						"POSITION":18,
						"NORMAL":19
					},
					"indices":20,
					"material":0
				}
			]
		},
		{
			"name":"knobGasket",
			"primitives":[
				{
					"attributes":{
						"POSITION":21,
						"NORMAL":22
					},
					"indices":23,
					"material":1
				}
			]
		},
		{
			"name":"knobGasket.001",
			"primitives":[
				{
					"attributes":{
						"POSITION":24,
						"NORMAL":25
					},
					"indices":23,
					"material":1
				}
			]
		},
		{
			"name":"knob.001",
			"primitives":[
				{
					"attributes":{
						"POSITION":26,
						"NORMAL":27
					},
					"indices":20,
					"material":0
				}
			]
		}
	],
	"accessors":[
		{
			"bufferView":0,
			"componentType":5126,
			"count":5030,
			"max":[
				80,
				50,
				0
			],
			"min":[
				0,
				0,
				-100
			],
			"type":"VEC3"
		},
		{
			"bufferView":1,
			"componentType":5126,
			"count":5030,
			"type":"VEC3"
		},
		{
			"bufferView":2,
			"componentType":5123,
			"count":6798,
			"type":"SCALAR"
		},
		{
			"bufferView":3,
			"componentType":5126,
			"count":627,
			"max":[
				24,
				22,
				0
			],
			"min":[
				0,
				0,
				-14
			],
			"type":"VEC3"
		},
		{
			"bufferView":4,
			"componentType":5126,
			"count":627,
			"type":"VEC3"
		},
		{
			"bufferView":5,
			"componentType":5123,
			"count":852,
			"type":"SCALAR"
		},
		{
			"bufferView":6,
			"componentType":5126,
			"count":143051,
			"max":[
				50,
				37,
				0
			],
			"min":[
				0,
				0,
				-49.990509033203125
			],
			"type":"VEC3"
		},
		{
			"bufferView":7,
			"componentType":5126,
			"count":143051,
			"type":"VEC3"
		},
		{
			"bufferView":8,
			"componentType":5125,
			"count":150852,
			"type":"SCALAR"
		},
		{
			"bufferView":9,
			"componentType":5126,
			"count":3478,
			"max":[
				53.01000213623047,
				9.478318214416504,
				-0.003900378942489624
			],
			"min":[
				0,
				0,
				-49.99610137939453
			],
			"type":"VEC3"
		},
		{
			"bufferView":10,
			"componentType":5126,
			"count":3478,
			"type":"VEC3"
		},
		{
			"bufferView":11,
			"componentType":5123,
			"count":5682,
			"type":"SCALAR"
		},
		{
			"bufferView":12,
			"componentType":5126,
			"count":8795,
			"max":[
				36,
				11,
				0
			],
			"min":[
				0,
				0,
				-36
			],
			"type":"VEC3"
		},
		{
			"bufferView":13,
			"componentType":5126,
			"count":8795,
			"type":"VEC3"
		},
		{
			"bufferView":14,
			"componentType":5123,
			"count":12978,
			"type":"SCALAR"
		},
		{
			"bufferView":15,
			"componentType":5126,
			"count":3702,
			"max":[
				78,
				9.500000953674316,
				0
			],
			"min":[
				2,
				0,
				-96
			],
			"type":"VEC3"
		},
		{
			"bufferView":16,
			"componentType":5126,
			"count":3702,
			"type":"VEC3"
		},
		{
			"bufferView":17,
			"componentType":5123,
			"count":7386,
			"type":"SCALAR"
		},
		{
			"bufferView":18,
			"componentType":5126,
			"count":2903,
			"max":[
				9.192940711975098,
				11.600000381469727,
				0
			],
			"min":[
				0.007059425115585327,
				0,
				-4.400000095367432
			],
			"type":"VEC3"
		},
		{
			"bufferView":19,
			"componentType":5126,
			"count":2903,
			"type":"VEC3"
		},
		{
			"bufferView":20,
			"componentType":5123,
			"count":4512,
			"type":"SCALAR"
		},
		{
			"bufferView":21,
			"componentType":5126,
			"count":540,
			"max":[
				9.5,
				2.799999952316284,
				0
			],
			"min":[
				0,
				0,
				-9.5
			],
			"type":"VEC3"
		},
		{
			"bufferView":22,
			"componentType":5126,
			"count":540,
			"type":"VEC3"
		},
		{
			"bufferView":23,
			"componentType":5123,
			"count":1080,
			"type":"SCALAR"
		},
		{
			"bufferView":24,
			"componentType":5126,
			"count":540,
			"max":[
				9.5,
				2.799999952316284,
				0
			],
			"min":[
				0,
				0,
				-9.5
			],
			"type":"VEC3"
		},
		{
			"bufferView":25,
			"componentType":5126,
			"count":540,
			"type":"VEC3"
		},
		{
			"bufferView":26,
			"componentType":5126,
			"count":2903,
			"max":[
				9.192940711975098,
				11.600000381469727,
				0
			],
			"min":[
				0.007059425115585327,
				0,
				-4.400000095367432
			],
			"type":"VEC3"
		},
		{
			"bufferView":27,
			"componentType":5126,
			"count":2903,
			"type":"VEC3"
		}
	],
	"bufferViews":[
		{
			"buffer":0,
			"byteLength":60360,
			"byteOffset":0,
			"target":34962
		},
		{
			"buffer":0,
			"byteLength":60360,
			"byteOffset":60360,
			"target":34962
		},
		{
			"buffer":0,
			"byteLength":13596,
			"byteOffset":120720,
			"target":34963
		},
		{
			"buffer":0,
			"byteLength":7524,
			"byteOffset":134316,
			"target":34962
		},
		{
			"buffer":0,
			"byteLength":7524,
			"byteOffset":141840,
			"target":34962
		},
		{
			"buffer":0,
			"byteLength":1704,
			"byteOffset":149364,
			"target":34963
		},
		{
			"buffer":0,
			"byteLength":1716612,
			"byteOffset":151068,
			"target":34962
		},
		{
			"buffer":0,
			"byteLength":1716612,
			"byteOffset":1867680,
			"target":34962
		},
		{
			"buffer":0,
			"byteLength":603408,
			"byteOffset":3584292,
			"target":34963
		},
		{
			"buffer":0,
			"byteLength":41736,
			"byteOffset":4187700,
			"target":34962
		},
		{
			"buffer":0,
			"byteLength":41736,
			"byteOffset":4229436,
			"target":34962
		},
		{
			"buffer":0,
			"byteLength":11364,
			"byteOffset":4271172,
			"target":34963
		},
		{
			"buffer":0,
			"byteLength":105540,
			"byteOffset":4282536,
			"target":34962
		},
		{
			"buffer":0,
			"byteLength":105540,
			"byteOffset":4388076,
			"target":34962
		},
		{
			"buffer":0,
			"byteLength":25956,
			"byteOffset":4493616,
			"target":34963
		},
		{
			"buffer":0,
			"byteLength":44424,
			"byteOffset":4519572,
			"target":34962
		},
		{
			"buffer":0,
			"byteLength":44424,
			"byteOffset":4563996,
			"target":34962
		},
		{
			"buffer":0,
			"byteLength":14772,
			"byteOffset":4608420,
			"target":34963
		},
		{
			"buffer":0,
			"byteLength":34836,
			"byteOffset":4623192,
			"target":34962
		},
		{
			"buffer":0,
			"byteLength":34836,
			"byteOffset":4658028,
			"target":34962
		},
		{
			"buffer":0,
			"byteLength":9024,
			"byteOffset":4692864,
			"target":34963
		},
		{
			"buffer":0,
			"byteLength":6480,
			"byteOffset":4701888,
			"target":34962
		},
		{
			"buffer":0,
			"byteLength":6480,
			"byteOffset":4708368,
			"target":34962
		},
		{
			"buffer":0,
			"byteLength":2160,
			"byteOffset":4714848,
			"target":34963
		},
		{
			"buffer":0,
			"byteLength":6480,
			"byteOffset":4717008,
			"target":34962
		},
		{
			"buffer":0,
			"byteLength":6480,
			"byteOffset":4723488,
			"target":34962
		},
		{
			"buffer":0,
			"byteLength":34836,
			"byteOffset":4729968,
			"target":34962
		},
		{
			"buffer":0,
			"byteLength":34836,
			"byteOffset":4764804,
			"target":34962
		}
	],
	"buffers":[
		{
			"byteLength":4799640,
			"uri":"washingmachine.bin"
		}
	]
}
