{
	"asset":{
		"generator":"Khronos glTF Blender I/O v4.3.47",
		"version":"2.0"
	},
	"scene":0,
	"scenes":[
		{
			"name":"Scene",
			"nodes":[
				0
			]
		}
	],
	"nodes":[
		{
			"mesh":0,
			"name":"Grid"
		}
	],
	"materials":[
		{
			"doubleSided":true,
			"name":"Material.001",
			"pbrMetallicRoughness":{
				"baseColorTexture":{
					"index":0
				},
				"metallicFactor":0
			}
		},
		{
			"doubleSided":true,
			"name":"Material.016",
			"pbrMetallicRoughness":{
				"baseColorTexture":{
					"index":1
				},
				"metallicFactor":0
			}
		}
	],
	"meshes":[
		{
			"name":"Grid",
			"primitives":[
				{
					"attributes":{
						"POSITION":0,
						"NORMAL":1,
						"TEXCOORD_0":2
					},
					"indices":3,
					"material":0
				},
				{
					"attributes":{
						"POSITION":4,
						"NORMAL":5,
						"TEXCOORD_0":6
					},
					"indices":7,
					"material":1
				}
			]
		}
	],
	"textures":[
		{
			"sampler":0,
			"source":0
		},
		{
			"sampler":0,
			"source":1
		}
	],
	"images":[
		{
			"mimeType":"image/jpeg",
			"name":"Untitled",
			"uri":"Untitled.jpg"
		},
		{
			"mimeType":"image/jpeg",
			"name":"grass",
			"uri":"grass.jpg"
		}
	],
	"accessors":[
		{
			"bufferView":0,
			"componentType":5126,
			"count":10322,
			"max":[
				52.21475601196289,
				10.015297889709473,
				53.00558090209961
			],
			"min":[
				-51.69789123535156,
				0,
				-51.766357421875
			],
			"type":"VEC3"
		},
		{
			"bufferView":1,
			"componentType":5126,
			"count":10322,
			"type":"VEC3"
		},
		{
			"bufferView":2,
			"componentType":5126,
			"count":10322,
			"type":"VEC2"
		},
		{
			"bufferView":3,
			"componentType":5123,
			"count":60285,
			"type":"SCALAR"
		},
		{
			"bufferView":4,
			"componentType":5126,
			"count":2862,
			"max":[
				52.21475601196289,
				9.400250434875488,
				53.00558090209961
			],
			"min":[
				-51.69789123535156,
				-10.897254943847656,
				-51.766357421875
			],
			"type":"VEC3"
		},
		{
			"bufferView":5,
			"componentType":5126,
			"count":2862,
			"type":"VEC3"
		},
		{
			"bufferView":6,
			"componentType":5126,
			"count":2862,
			"type":"VEC2"
		},
		{
			"bufferView":7,
			"componentType":5123,
			"count":13050,
			"type":"SCALAR"
		}
	],
	"bufferViews":[
		{
			"buffer":0,
			"byteLength":123864,
			"byteOffset":0,
			"target":34962
		},
		{
			"buffer":0,
			"byteLength":123864,
			"byteOffset":123864,
			"target":34962
		},
		{
			"buffer":0,
			"byteLength":82576,
			"byteOffset":247728,
			"target":34962
		},
		{
			"buffer":0,
			"byteLength":120570,
			"byteOffset":330304,
			"target":34963
		},
		{
			"buffer":0,
			"byteLength":34344,
			"byteOffset":450876,
			"target":34962
		},
		{
			"buffer":0,
			"byteLength":34344,
			"byteOffset":485220,
			"target":34962
		},
		{
			"buffer":0,
			"byteLength":22896,
			"byteOffset":519564,
			"target":34962
		},
		{
			"buffer":0,
			"byteLength":26100,
			"byteOffset":542460,
			"target":34963
		}
	],
	"samplers":[
		{
			"magFilter":9729,
			"minFilter":9987
		}
	],
	"buffers":[
		{
			"byteLength":568560,
			"uri":"world%20floor.bin"
		}
	]
}
