{
	"asset":{
		"generator":"Khronos glTF Blender I/O v4.3.47",
		"version":"2.0"
	},
	"scene":0,
	"scenes":[
		{
			"name":"Scene",
			"nodes":[
				0,
				1,
				2
			]
		}
	],
	"nodes":[
		{
			"mesh":0,
			"name":"Grid"
		},
		{
			"mesh":1,
			"name":"Cube",
			"rotation":[
				0,
				-0.7312473058700562,
				0,
				0.6821125149726868
			],
			"scale":[
				3.4845480918884277,
				3.4845476150512695,
				3.4845480918884277
			],
			"translation":[
				-4.900237083435059,
				-4.049482345581055,
				-32.951725006103516
			]
		},
		{
			"mesh":2,
			"name":"Cylinder.001",
			"rotation":[
				0,
				-0.7312473654747009,
				0,
				0.6821123957633972
			],
			"scale":[
				3.484548568725586,
				3.4909260272979736,
				3.484548568725586
			],
			"translation":[
				-1.7651360034942627,
				3.11450457572937,
				-41.86606216430664
			]
		}
	],
	"materials":[
		{
			"doubleSided":true,
			"name":"Material.001",
			"pbrMetallicRoughness":{
				"baseColorTexture":{
					"index":0
				},
				"metallicFactor":0
			}
		},
		{
			"doubleSided":true,
			"name":"Material.016",
			"pbrMetallicRoughness":{
				"baseColorTexture":{
					"index":1
				},
				"metallicFactor":0
			}
		},
		{
			"doubleSided":true,
			"name":"Material.024",
			"pbrMetallicRoughness":{
				"baseColorTexture":{
					"index":2
				},
				"metallicFactor":0,
				"roughnessFactor":0.5
			}
		},
		{
			"doubleSided":true,
			"name":"Material.025",
			"pbrMetallicRoughness":{
				"baseColorTexture":{
					"index":3
				},
				"metallicFactor":0
			}
		},
		{
			"doubleSided":true,
			"name":"Material.026",
			"pbrMetallicRoughness":{
				"baseColorTexture":{
					"index":4
				},
				"metallicFactor":0,
				"roughnessFactor":0.5
			}
		},
		{
			"doubleSided":true,
			"name":"Material.027",
			"pbrMetallicRoughness":{
				"baseColorTexture":{
					"index":5
				},
				"metallicFactor":0
			}
		},
		{
			"doubleSided":true,
			"name":"Material.028",
			"pbrMetallicRoughness":{
				"baseColorTexture":{
					"index":6
				},
				"metallicFactor":0,
				"roughnessFactor":0.5
			}
		},
		{
			"doubleSided":true,
			"name":"Material.029",
			"pbrMetallicRoughness":{
				"baseColorTexture":{
					"index":7
				},
				"metallicFactor":0
			}
		},
		{
			"doubleSided":true,
			"name":"Material.030",
			"pbrMetallicRoughness":{
				"baseColorTexture":{
					"index":8
				},
				"metallicFactor":0,
				"roughnessFactor":0.5
			}
		},
		{
			"doubleSided":true,
			"name":"Material.031",
			"pbrMetallicRoughness":{
				"baseColorTexture":{
					"index":9
				},
				"metallicFactor":0
			}
		},
		{
			"doubleSided":true,
			"name":"Material.032",
			"pbrMetallicRoughness":{
				"baseColorTexture":{
					"index":10
				},
				"metallicFactor":0,
				"roughnessFactor":0.5
			}
		}
	],
	"meshes":[
		{
			"name":"Grid",
			"primitives":[
				{
					"attributes":{
						"POSITION":0,
						"NORMAL":1,
						"TEXCOORD_0":2
					},
					"indices":3,
					"material":0
				},
				{
					"attributes":{
						"POSITION":4,
						"NORMAL":5,
						"TEXCOORD_0":6
					},
					"indices":7,
					"material":1
				}
			]
		},
		{
			"name":"Cube.002",
			"primitives":[
				{
					"attributes":{
						"POSITION":8,
						"NORMAL":9,
						"TEXCOORD_0":10
					},
					"indices":11,
					"material":2
				}
			]
		},
		{
			"name":"Cylinder.001",
			"primitives":[
				{
					"attributes":{
						"POSITION":12,
						"NORMAL":13,
						"TEXCOORD_0":14
					},
					"indices":15,
					"material":3
				},
				{
					"attributes":{
						"POSITION":16,
						"NORMAL":17,
						"TEXCOORD_0":18
					},
					"indices":19,
					"material":4
				},
				{
					"attributes":{
						"POSITION":20,
						"NORMAL":21,
						"TEXCOORD_0":22
					},
					"indices":23,
					"material":5
				},
				{
					"attributes":{
						"POSITION":24,
						"NORMAL":25,
						"TEXCOORD_0":26
					},
					"indices":19,
					"material":6
				},
				{
					"attributes":{
						"POSITION":27,
						"NORMAL":28,
						"TEXCOORD_0":29
					},
					"indices":30,
					"material":7
				},
				{
					"attributes":{
						"POSITION":31,
						"NORMAL":32,
						"TEXCOORD_0":33
					},
					"indices":19,
					"material":8
				},
				{
					"attributes":{
						"POSITION":34,
						"NORMAL":35,
						"TEXCOORD_0":36
					},
					"indices":37,
					"material":9
				},
				{
					"attributes":{
						"POSITION":38,
						"NORMAL":39,
						"TEXCOORD_0":40
					},
					"indices":41,
					"material":10
				}
			]
		}
	],
	"textures":[
		{
			"sampler":0,
			"source":0
		},
		{
			"sampler":0,
			"source":1
		},
		{
			"sampler":0,
			"source":2
		},
		{
			"sampler":0,
			"source":2
		},
		{
			"sampler":0,
			"source":3
		},
		{
			"sampler":0,
			"source":2
		},
		{
			"sampler":0,
			"source":3
		},
		{
			"sampler":0,
			"source":2
		},
		{
			"sampler":0,
			"source":3
		},
		{
			"sampler":0,
			"source":2
		},
		{
			"sampler":0,
			"source":3
		}
	],
	"images":[
		{
			"mimeType":"image/jpeg",
			"name":"Untitled",
			"uri":"Untitled.jpg"
		},
		{
			"mimeType":"image/jpeg",
			"name":"grass",
			"uri":"grass.jpg"
		},
		{
			"mimeType":"image/jpeg",
			"name":"concrete floor",
			"uri":"concrete%20floor.jpg"
		},
		{
			"mimeType":"image/jpeg",
			"name":"drywall",
			"uri":"drywall.jpg"
		}
	],
	"accessors":[
		{
			"bufferView":0,
			"componentType":5126,
			"count":10283,
			"max":[
				52.21475601196289,
				10.015297889709473,
				53.00558090209961
			],
			"min":[
				-51.69789123535156,
				0,
				-51.766357421875
			],
			"type":"VEC3"
		},
		{
			"bufferView":1,
			"componentType":5126,
			"count":10283,
			"type":"VEC3"
		},
		{
			"bufferView":2,
			"componentType":5126,
			"count":10283,
			"type":"VEC2"
		},
		{
			"bufferView":3,
			"componentType":5123,
			"count":60183,
			"type":"SCALAR"
		},
		{
			"bufferView":4,
			"componentType":5126,
			"count":2862,
			"max":[
				52.21475601196289,
				9.400250434875488,
				53.00558090209961
			],
			"min":[
				-51.69789123535156,
				-10.897254943847656,
				-51.766357421875
			],
			"type":"VEC3"
		},
		{
			"bufferView":5,
			"componentType":5126,
			"count":2862,
			"type":"VEC3"
		},
		{
			"bufferView":6,
			"componentType":5126,
			"count":2862,
			"type":"VEC2"
		},
		{
			"bufferView":7,
			"componentType":5123,
			"count":13050,
			"type":"SCALAR"
		},
		{
			"bufferView":8,
			"componentType":5126,
			"count":3753,
			"max":[
				2.3318941593170166,
				1.1677803993225098,
				2.4958460330963135
			],
			"min":[
				-3.378345489501953,
				-1.1620477437973022,
				-1.877017855644226
			],
			"type":"VEC3"
		},
		{
			"bufferView":9,
			"componentType":5126,
			"count":3753,
			"type":"VEC3"
		},
		{
			"bufferView":10,
			"componentType":5126,
			"count":3753,
			"type":"VEC2"
		},
		{
			"bufferView":11,
			"componentType":5123,
			"count":15996,
			"type":"SCALAR"
		},
		{
			"bufferView":12,
			"componentType":5126,
			"count":9293,
			"max":[
				0.2650452256202698,
				0.20103535056114197,
				0.26467791199684143
			],
			"min":[
				-0.2639593482017517,
				-0.15478822588920593,
				-0.2609243094921112
			],
			"type":"VEC3"
		},
		{
			"bufferView":13,
			"componentType":5126,
			"count":9293,
			"type":"VEC3"
		},
		{
			"bufferView":14,
			"componentType":5126,
			"count":9293,
			"type":"VEC2"
		},
		{
			"bufferView":15,
			"componentType":5123,
			"count":14646,
			"type":"SCALAR"
		},
		{
			"bufferView":16,
			"componentType":5126,
			"count":2861,
			"max":[
				0.26373419165611267,
				0.19570909440517426,
				0.2600090503692627
			],
			"min":[
				-0.25979065895080566,
				-0.14968085289001465,
				-0.2557903528213501
			],
			"type":"VEC3"
		},
		{
			"bufferView":17,
			"componentType":5126,
			"count":2861,
			"type":"VEC3"
		},
		{
			"bufferView":18,
			"componentType":5126,
			"count":2861,
			"type":"VEC2"
		},
		{
			"bufferView":19,
			"componentType":5123,
			"count":5382,
			"type":"SCALAR"
		},
		{
			"bufferView":20,
			"componentType":5126,
			"count":9335,
			"max":[
				0.26504427194595337,
				-0.09951487183570862,
				0.264678031206131
			],
			"min":[
				-0.2639603018760681,
				-0.4553384482860565,
				-0.26092419028282166
			],
			"type":"VEC3"
		},
		{
			"bufferView":21,
			"componentType":5126,
			"count":9335,
			"type":"VEC3"
		},
		{
			"bufferView":22,
			"componentType":5126,
			"count":9335,
			"type":"VEC2"
		},
		{
			"bufferView":23,
			"componentType":5123,
			"count":14646,
			"type":"SCALAR"
		},
		{
			"bufferView":24,
			"componentType":5126,
			"count":2861,
			"max":[
				0.26373323798179626,
				-0.10484112799167633,
				0.26000916957855225
			],
			"min":[
				-0.25979161262512207,
				-0.45023107528686523,
				-0.25579023361206055
			],
			"type":"VEC3"
		},
		{
			"bufferView":25,
			"componentType":5126,
			"count":2861,
			"type":"VEC3"
		},
		{
			"bufferView":26,
			"componentType":5126,
			"count":2861,
			"type":"VEC2"
		},
		{
			"bufferView":27,
			"componentType":5126,
			"count":9401,
			"max":[
				0.26504427194595337,
				-0.4034331142902374,
				0.264678031206131
			],
			"min":[
				-0.2639603018760681,
				-0.7592567205429077,
				-0.26092419028282166
			],
			"type":"VEC3"
		},
		{
			"bufferView":28,
			"componentType":5126,
			"count":9401,
			"type":"VEC3"
		},
		{
			"bufferView":29,
			"componentType":5126,
			"count":9401,
			"type":"VEC2"
		},
		{
			"bufferView":30,
			"componentType":5123,
			"count":14646,
			"type":"SCALAR"
		},
		{
			"bufferView":31,
			"componentType":5126,
			"count":2861,
			"max":[
				0.26373323798179626,
				-0.40875935554504395,
				0.26000916957855225
			],
			"min":[
				-0.25979161262512207,
				-0.754149317741394,
				-0.25579023361206055
			],
			"type":"VEC3"
		},
		{
			"bufferView":32,
			"componentType":5126,
			"count":2861,
			"type":"VEC3"
		},
		{
			"bufferView":33,
			"componentType":5126,
			"count":2861,
			"type":"VEC2"
		},
		{
			"bufferView":34,
			"componentType":5126,
			"count":9483,
			"max":[
				0.26504427194595337,
				-0.7073750495910645,
				0.264678031206131
			],
			"min":[
				-0.2639603018760681,
				-1.0631985664367676,
				-0.26092419028282166
			],
			"type":"VEC3"
		},
		{
			"bufferView":35,
			"componentType":5126,
			"count":9483,
			"type":"VEC3"
		},
		{
			"bufferView":36,
			"componentType":5126,
			"count":9483,
			"type":"VEC2"
		},
		{
			"bufferView":37,
			"componentType":5123,
			"count":14646,
			"type":"SCALAR"
		},
		{
			"bufferView":38,
			"componentType":5126,
			"count":2862,
			"max":[
				0.26373323798179626,
				-0.7127012610435486,
				0.26000916957855225
			],
			"min":[
				-0.25979161262512207,
				-1.058091163635254,
				-0.25579023361206055
			],
			"type":"VEC3"
		},
		{
			"bufferView":39,
			"componentType":5126,
			"count":2862,
			"type":"VEC3"
		},
		{
			"bufferView":40,
			"componentType":5126,
			"count":2862,
			"type":"VEC2"
		},
		{
			"bufferView":41,
			"componentType":5123,
			"count":5382,
			"type":"SCALAR"
		}
	],
	"bufferViews":[
		{
			"buffer":0,
			"byteLength":123396,
			"byteOffset":0,
			"target":34962
		},
		{
			"buffer":0,
			"byteLength":123396,
			"byteOffset":123396,
			"target":34962
		},
		{
			"buffer":0,
			"byteLength":82264,
			"byteOffset":246792,
			"target":34962
		},
		{
			"buffer":0,
			"byteLength":120366,
			"byteOffset":329056,
			"target":34963
		},
		{
			"buffer":0,
			"byteLength":34344,
			"byteOffset":449424,
			"target":34962
		},
		{
			"buffer":0,
			"byteLength":34344,
			"byteOffset":483768,
			"target":34962
		},
		{
			"buffer":0,
			"byteLength":22896,
			"byteOffset":518112,
			"target":34962
		},
		{
			"buffer":0,
			"byteLength":26100,
			"byteOffset":541008,
			"target":34963
		},
		{
			"buffer":0,
			"byteLength":45036,
			"byteOffset":567108,
			"target":34962
		},
		{
			"buffer":0,
			"byteLength":45036,
			"byteOffset":612144,
			"target":34962
		},
		{
			"buffer":0,
			"byteLength":30024,
			"byteOffset":657180,
			"target":34962
		},
		{
			"buffer":0,
			"byteLength":31992,
			"byteOffset":687204,
			"target":34963
		},
		{
			"buffer":0,
			"byteLength":111516,
			"byteOffset":719196,
			"target":34962
		},
		{
			"buffer":0,
			"byteLength":111516,
			"byteOffset":830712,
			"target":34962
		},
		{
			"buffer":0,
			"byteLength":74344,
			"byteOffset":942228,
			"target":34962
		},
		{
			"buffer":0,
			"byteLength":29292,
			"byteOffset":1016572,
			"target":34963
		},
		{
			"buffer":0,
			"byteLength":34332,
			"byteOffset":1045864,
			"target":34962
		},
		{
			"buffer":0,
			"byteLength":34332,
			"byteOffset":1080196,
			"target":34962
		},
		{
			"buffer":0,
			"byteLength":22888,
			"byteOffset":1114528,
			"target":34962
		},
		{
			"buffer":0,
			"byteLength":10764,
			"byteOffset":1137416,
			"target":34963
		},
		{
			"buffer":0,
			"byteLength":112020,
			"byteOffset":1148180,
			"target":34962
		},
		{
			"buffer":0,
			"byteLength":112020,
			"byteOffset":1260200,
			"target":34962
		},
		{
			"buffer":0,
			"byteLength":74680,
			"byteOffset":1372220,
			"target":34962
		},
		{
			"buffer":0,
			"byteLength":29292,
			"byteOffset":1446900,
			"target":34963
		},
		{
			"buffer":0,
			"byteLength":34332,
			"byteOffset":1476192,
			"target":34962
		},
		{
			"buffer":0,
			"byteLength":34332,
			"byteOffset":1510524,
			"target":34962
		},
		{
			"buffer":0,
			"byteLength":22888,
			"byteOffset":1544856,
			"target":34962
		},
		{
			"buffer":0,
			"byteLength":112812,
			"byteOffset":1567744,
			"target":34962
		},
		{
			"buffer":0,
			"byteLength":112812,
			"byteOffset":1680556,
			"target":34962
		},
		{
			"buffer":0,
			"byteLength":75208,
			"byteOffset":1793368,
			"target":34962
		},
		{
			"buffer":0,
			"byteLength":29292,
			"byteOffset":1868576,
			"target":34963
		},
		{
			"buffer":0,
			"byteLength":34332,
			"byteOffset":1897868,
			"target":34962
		},
		{
			"buffer":0,
			"byteLength":34332,
			"byteOffset":1932200,
			"target":34962
		},
		{
			"buffer":0,
			"byteLength":22888,
			"byteOffset":1966532,
			"target":34962
		},
		{
			"buffer":0,
			"byteLength":113796,
			"byteOffset":1989420,
			"target":34962
		},
		{
			"buffer":0,
			"byteLength":113796,
			"byteOffset":2103216,
			"target":34962
		},
		{
			"buffer":0,
			"byteLength":75864,
			"byteOffset":2217012,
			"target":34962
		},
		{
			"buffer":0,
			"byteLength":29292,
			"byteOffset":2292876,
			"target":34963
		},
		{
			"buffer":0,
			"byteLength":34344,
			"byteOffset":2322168,
			"target":34962
		},
		{
			"buffer":0,
			"byteLength":34344,
			"byteOffset":2356512,
			"target":34962
		},
		{
			"buffer":0,
			"byteLength":22896,
			"byteOffset":2390856,
			"target":34962
		},
		{
			"buffer":0,
			"byteLength":10764,
			"byteOffset":2413752,
			"target":34963
		}
	],
	"samplers":[
		{
			"magFilter":9729,
			"minFilter":9987
		}
	],
	"buffers":[
		{
			"byteLength":2424516,
			"uri":"world%20floor.bin"
		}
	]
}
