{
	"asset":{
		"generator":"Khronos glTF Blender I/O v4.3.47",
		"version":"2.0"
	},
	"scene":0,
	"scenes":[
		{
			"name":"Scene",
			"nodes":[
				0
			]
		}
	],
	"nodes":[
		{
			"mesh":0,
			"name":"Cube",
			"scale":[
				5.560287952423096,
				3.386706829071045,
				4
			],
			"translation":[
				0,
				0.026798486709594727,
				0
			]
		}
	],
	"materials":[
		{
			"doubleSided":true,
			"name":"Material",
			"pbrMetallicRoughness":{
				"baseColorTexture":{
					"index":0
				},
				"metallicFactor":0
			}
		}
	],
	"meshes":[
		{
			"name":"Cube",
			"primitives":[
				{
					"attributes":{
						"POSITION":0,
						"NORMAL":1,
						"TEXCOORD_0":2
					},
					"indices":3,
					"material":0
				}
			]
		}
	],
	"textures":[
		{
			"sampler":0,
			"source":0
		}
	],
	"images":[
		{
			"mimeType":"image/jpeg",
			"name":"concrete floor",
			"uri":"concrete%20floor.jpg"
		}
	],
	"accessors":[
		{
			"bufferView":0,
			"componentType":5126,
			"count":6369,
			"max":[
				0.8551400899887085,
				0.8747519850730896,
				0.8835605382919312
			],
			"min":[
				-0.8884831666946411,
				-0.8370986580848694,
				-0.8273879885673523
			],
			"type":"VEC3"
		},
		{
			"bufferView":1,
			"componentType":5126,
			"count":6369,
			"type":"VEC3"
		},
		{
			"bufferView":2,
			"componentType":5126,
			"count":6369,
			"type":"VEC2"
		},
		{
			"bufferView":3,
			"componentType":5123,
			"count":36864,
			"type":"SCALAR"
		}
	],
	"bufferViews":[
		{
			"buffer":0,
			"byteLength":76428,
			"byteOffset":0,
			"target":34962
		},
		{
			"buffer":0,
			"byteLength":76428,
			"byteOffset":76428,
			"target":34962
		},
		{
			"buffer":0,
			"byteLength":50952,
			"byteOffset":152856,
			"target":34962
		},
		{
			"buffer":0,
			"byteLength":73728,
			"byteOffset":203808,
			"target":34963
		}
	],
	"samplers":[
		{
			"magFilter":9729,
			"minFilter":9987
		}
	],
	"buffers":[
		{
			"byteLength":277536,
			"uri":"boulder.bin"
		}
	]
}
