{
	"asset":{
		"generator":"Khronos glTF Blender I/O v4.3.47",
		"version":"2.0"
	},
	"scene":0,
	"scenes":[
		{
			"name":"Scene",
			"nodes":[
				0,
				1
			]
		}
	],
	"nodes":[
		{
			"mesh":0,
			"name":"Cube"
		},
		{
			"mesh":1,
			"name":"Cube.001"
		}
	],
	"materials":[
		{
			"doubleSided":true,
			"name":"Material",
			"pbrMetallicRoughness":{
				"baseColorTexture":{
					"index":0
				},
				"metallicFactor":0
			}
		},
		{
			"doubleSided":true,
			"name":"Material.002",
			"pbrMetallicRoughness":{
				"baseColorFactor":[
					0.8005756139755249,
					0,
					0.20021384954452515,
					1
				],
				"roughnessFactor":0.25984251499176025
			}
		}
	],
	"meshes":[
		{
			"name":"Cube",
			"primitives":[
				{
					"attributes":{
						"POSITION":0,
						"NORMAL":1,
						"TEXCOORD_0":2
					},
					"indices":3,
					"material":0
				},
				{
					"attributes":{
						"POSITION":4,
						"NORMAL":5,
						"TEXCOORD_0":6
					},
					"indices":7,
					"material":1
				}
			]
		},
		{
			"name":"Cube.001",
			"primitives":[
				{
					"attributes":{
						"POSITION":8,
						"NORMAL":9,
						"TEXCOORD_0":10
					},
					"indices":11,
					"material":1
				}
			]
		}
	],
	"textures":[
		{
			"sampler":0,
			"source":0
		}
	],
	"images":[
		{
			"mimeType":"image/jpeg",
			"name":"concrete wall alt",
			"uri":"concrete%20wall%20alt.jpg"
		}
	],
	"accessors":[
		{
			"bufferView":0,
			"componentType":5126,
			"count":1657,
			"max":[
				0.9125185012817383,
				0.8352965116500854,
				0.8324642777442932
			],
			"min":[
				-0.8898394703865051,
				-0.8552691340446472,
				-0.9111636281013489
			],
			"type":"VEC3"
		},
		{
			"bufferView":1,
			"componentType":5126,
			"count":1657,
			"type":"VEC3"
		},
		{
			"bufferView":2,
			"componentType":5126,
			"count":1657,
			"type":"VEC2"
		},
		{
			"bufferView":3,
			"componentType":5123,
			"count":8130,
			"type":"SCALAR"
		},
		{
			"bufferView":4,
			"componentType":5126,
			"count":47,
			"max":[
				0.26279115676879883,
				0.5809038281440735,
				0.6350003480911255
			],
			"min":[
				-0.28231897950172424,
				0.2216419130563736,
				0.21069994568824768
			],
			"type":"VEC3"
		},
		{
			"bufferView":5,
			"componentType":5126,
			"count":47,
			"type":"VEC3"
		},
		{
			"bufferView":6,
			"componentType":5126,
			"count":47,
			"type":"VEC2"
		},
		{
			"bufferView":7,
			"componentType":5123,
			"count":120,
			"type":"SCALAR"
		},
		{
			"bufferView":8,
			"componentType":5126,
			"count":28,
			"max":[
				0.22292129695415497,
				0.5809038281440735,
				0.6350003480911255
			],
			"min":[
				-0.26333561539649963,
				0.28379109501838684,
				0.31950169801712036
			],
			"type":"VEC3"
		},
		{
			"bufferView":9,
			"componentType":5126,
			"count":28,
			"type":"VEC3"
		},
		{
			"bufferView":10,
			"componentType":5126,
			"count":28,
			"type":"VEC2"
		},
		{
			"bufferView":11,
			"componentType":5123,
			"count":42,
			"type":"SCALAR"
		}
	],
	"bufferViews":[
		{
			"buffer":0,
			"byteLength":19884,
			"byteOffset":0,
			"target":34962
		},
		{
			"buffer":0,
			"byteLength":19884,
			"byteOffset":19884,
			"target":34962
		},
		{
			"buffer":0,
			"byteLength":13256,
			"byteOffset":39768,
			"target":34962
		},
		{
			"buffer":0,
			"byteLength":16260,
			"byteOffset":53024,
			"target":34963
		},
		{
			"buffer":0,
			"byteLength":564,
			"byteOffset":69284,
			"target":34962
		},
		{
			"buffer":0,
			"byteLength":564,
			"byteOffset":69848,
			"target":34962
		},
		{
			"buffer":0,
			"byteLength":376,
			"byteOffset":70412,
			"target":34962
		},
		{
			"buffer":0,
			"byteLength":240,
			"byteOffset":70788,
			"target":34963
		},
		{
			"buffer":0,
			"byteLength":336,
			"byteOffset":71028,
			"target":34962
		},
		{
			"buffer":0,
			"byteLength":336,
			"byteOffset":71364,
			"target":34962
		},
		{
			"buffer":0,
			"byteLength":224,
			"byteOffset":71700,
			"target":34962
		},
		{
			"buffer":0,
			"byteLength":84,
			"byteOffset":71924,
			"target":34963
		}
	],
	"samplers":[
		{
			"magFilter":9729,
			"minFilter":9987
		}
	],
	"buffers":[
		{
			"byteLength":72008,
			"uri":"geode.bin"
		}
	]
}
