{
	"asset":{
		"generator":"Khronos glTF Blender I/O v4.3.47",
		"version":"2.0"
	},
	"extensionsUsed":[
		"EXT_texture_webp"
	],
	"extensionsRequired":[
		"EXT_texture_webp"
	],
	"scene":0,
	"scenes":[
		{
			"name":"Scene",
			"nodes":[
				0,
				1,
				2,
				3,
				4,
				5,
				6,
				7,
				8
			]
		}
	],
	"nodes":[
		{
			"mesh":0,
			"name":"first floor",
			"translation":[
				1,
				1,
				-1
			]
		},
		{
			"mesh":1,
			"name":"door",
			"translation":[
				0.008057177066802979,
				0.9455273151397705,
				-1.4971842765808105
			]
		},
		{
			"mesh":2,
			"name":"window.001",
			"translation":[
				0.0027707815170288086,
				1.3200000524520874,
				-3.5
			]
		},
		{
			"mesh":3,
			"name":"BASEMENT",
			"translation":[
				1,
				1,
				-1
			]
		},
		{
			"mesh":4,
			"name":"basement door.001",
			"translation":[
				1.0800000429153442,
				1,
				-1
			]
		},
		{
			"mesh":5,
			"name":"key window.001",
			"translation":[
				3.7939229011535645,
				2.471297264099121,
				-5.0830302238464355
			]
		},
		{
			"mesh":6,
			"name":"KITCHEN WINDOW.001",
			"translation":[
				1.204529881477356,
				1.4630142450332642,
				0.0679415687918663
			]
		},
		{
			"mesh":7,
			"name":"attic",
			"translation":[
				1,
				1,
				-1
			]
		},
		{
			"mesh":8,
			"name":"hople",
			"translation":[
				2.496201515197754,
				3.7262425422668457,
				-1.769954800605774
			]
		}
	],
	"materials":[
		{
			"doubleSided":true,
			"name":"Material.008",
			"pbrMetallicRoughness":{
				"baseColorTexture":{
					"index":0
				},
				"metallicFactor":0,
				"roughnessFactor":0.5
			}
		},
		{
			"doubleSided":true,
			"name":"Material.005",
			"pbrMetallicRoughness":{
				"baseColorTexture":{
					"index":1
				},
				"metallicFactor":0,
				"roughnessFactor":0.5
			}
		},
		{
			"doubleSided":true,
			"name":"Material.004",
			"pbrMetallicRoughness":{
				"baseColorTexture":{
					"index":2
				},
				"metallicFactor":0,
				"roughnessFactor":0.5
			}
		},
		{
			"doubleSided":true,
			"name":"Material",
			"pbrMetallicRoughness":{
				"baseColorFactor":[
					0.800000011920929,
					0.800000011920929,
					0.800000011920929,
					1
				],
				"metallicFactor":0,
				"roughnessFactor":0.5
			}
		},
		{
			"doubleSided":true,
			"name":"Material.007",
			"pbrMetallicRoughness":{
				"baseColorTexture":{
					"index":3
				},
				"metallicFactor":0,
				"roughnessFactor":0.5
			}
		},
		{
			"doubleSided":true,
			"name":"Material.009",
			"pbrMetallicRoughness":{
				"baseColorTexture":{
					"index":4
				},
				"metallicFactor":0,
				"roughnessFactor":0.5
			}
		},
		{
			"doubleSided":true,
			"name":"Material.010",
			"pbrMetallicRoughness":{
				"baseColorTexture":{
					"index":5
				},
				"metallicFactor":0,
				"roughnessFactor":0.5
			}
		},
		{
			"doubleSided":true,
			"name":"Material.011",
			"pbrMetallicRoughness":{
				"baseColorTexture":{
					"index":6
				},
				"metallicFactor":0,
				"roughnessFactor":0.5
			}
		},
		{
			"doubleSided":true,
			"name":"Material.001",
			"pbrMetallicRoughness":{
				"baseColorTexture":{
					"index":7
				},
				"metallicFactor":0
			}
		},
		{
			"doubleSided":true,
			"name":"Material.002",
			"pbrMetallicRoughness":{
				"baseColorTexture":{
					"index":8
				},
				"metallicFactor":0,
				"roughnessFactor":0.5
			}
		},
		{
			"doubleSided":true,
			"name":"Material.003",
			"pbrMetallicRoughness":{
				"baseColorTexture":{
					"index":9
				},
				"metallicFactor":0,
				"roughnessFactor":0.5
			}
		},
		{
			"doubleSided":true,
			"name":"Material.006",
			"pbrMetallicRoughness":{
				"baseColorTexture":{
					"index":10
				},
				"metallicFactor":0,
				"roughnessFactor":0.5
			}
		}
	],
	"meshes":[
		{
			"name":"Cube",
			"primitives":[
				{
					"attributes":{
						"POSITION":0,
						"NORMAL":1,
						"TEXCOORD_0":2
					},
					"indices":3,
					"material":0
				},
				{
					"attributes":{
						"POSITION":4,
						"NORMAL":5,
						"TEXCOORD_0":6
					},
					"indices":7,
					"material":1
				},
				{
					"attributes":{
						"POSITION":8,
						"NORMAL":9,
						"TEXCOORD_0":10
					},
					"indices":11,
					"material":2
				}
			]
		},
		{
			"name":"Cube.001",
			"primitives":[
				{
					"attributes":{
						"POSITION":12,
						"NORMAL":13,
						"TEXCOORD_0":14
					},
					"indices":15,
					"material":2
				}
			]
		},
		{
			"name":"Cube.003",
			"primitives":[
				{
					"attributes":{
						"POSITION":16,
						"NORMAL":17,
						"TEXCOORD_0":18
					},
					"indices":19,
					"material":2
				}
			]
		},
		{
			"name":"Cube.004",
			"primitives":[
				{
					"attributes":{
						"POSITION":20,
						"NORMAL":21,
						"TEXCOORD_0":22
					},
					"indices":23,
					"material":3
				},
				{
					"attributes":{
						"POSITION":24,
						"NORMAL":25,
						"TEXCOORD_0":26
					},
					"indices":27,
					"material":4
				},
				{
					"attributes":{
						"POSITION":28,
						"NORMAL":29,
						"TEXCOORD_0":30
					},
					"indices":31,
					"material":5
				},
				{
					"attributes":{
						"POSITION":32,
						"NORMAL":33,
						"TEXCOORD_0":34
					},
					"indices":35,
					"material":6
				},
				{
					"attributes":{
						"POSITION":36,
						"NORMAL":37,
						"TEXCOORD_0":38
					},
					"indices":39,
					"material":7
				}
			]
		},
		{
			"name":"Cube.006",
			"primitives":[
				{
					"attributes":{
						"POSITION":40,
						"NORMAL":41,
						"TEXCOORD_0":42
					},
					"indices":43,
					"material":2
				}
			]
		},
		{
			"name":"Cube.008",
			"primitives":[
				{
					"attributes":{
						"POSITION":44,
						"NORMAL":45,
						"TEXCOORD_0":46
					},
					"indices":47,
					"material":2
				}
			]
		},
		{
			"name":"Cube.010",
			"primitives":[
				{
					"attributes":{
						"POSITION":48,
						"NORMAL":49,
						"TEXCOORD_0":50
					},
					"indices":51,
					"material":2
				}
			]
		},
		{
			"name":"Cube.012",
			"primitives":[
				{
					"attributes":{
						"POSITION":52,
						"NORMAL":53,
						"TEXCOORD_0":54
					},
					"indices":55,
					"material":8
				},
				{
					"attributes":{
						"POSITION":56,
						"NORMAL":57,
						"TEXCOORD_0":58
					},
					"indices":59,
					"material":9
				},
				{
					"attributes":{
						"POSITION":60,
						"NORMAL":61,
						"TEXCOORD_0":62
					},
					"indices":63,
					"material":10
				},
				{
					"attributes":{
						"POSITION":64,
						"NORMAL":65,
						"TEXCOORD_0":66
					},
					"indices":67,
					"material":2
				},
				{
					"attributes":{
						"POSITION":68,
						"NORMAL":69,
						"TEXCOORD_0":70
					},
					"indices":71,
					"material":11
				},
				{
					"attributes":{
						"POSITION":72,
						"NORMAL":73,
						"TEXCOORD_0":74
					},
					"indices":75,
					"material":0
				}
			]
		},
		{
			"name":"Cube.014",
			"primitives":[
				{
					"attributes":{
						"POSITION":76,
						"NORMAL":77,
						"TEXCOORD_0":78
					},
					"indices":79,
					"material":2
				}
			]
		}
	],
	"textures":[
		{
			"sampler":0,
			"source":0
		},
		{
			"sampler":0,
			"source":1
		},
		{
			"sampler":0,
			"source":2
		},
		{
			"sampler":0,
			"source":3
		},
		{
			"sampler":0,
			"source":4
		},
		{
			"extensions":{
				"EXT_texture_webp":{
					"source":5
				}
			},
			"sampler":0
		},
		{
			"sampler":0,
			"source":6
		},
		{
			"sampler":0,
			"source":7
		},
		{
			"sampler":0,
			"source":8
		},
		{
			"sampler":0,
			"source":1
		},
		{
			"extensions":{
				"EXT_texture_webp":{
					"source":5
				}
			},
			"sampler":0
		}
	],
	"images":[
		{
			"mimeType":"image/jpeg",
			"name":"carpet",
			"uri":"carpet.jpg"
		},
		{
			"mimeType":"image/jpeg",
			"name":"siding",
			"uri":"siding.jpg"
		},
		{
			"mimeType":"image/jpeg",
			"name":"frame wood",
			"uri":"frame%20wood.jpg"
		},
		{
			"mimeType":"image/jpeg",
			"name":"better wooden floor",
			"uri":"better%20wooden%20floor.jpg"
		},
		{
			"mimeType":"image/jpeg",
			"name":"concrete floor",
			"uri":"concrete%20floor.jpg"
		},
		{
			"mimeType":"image/webp",
			"name":"popcorn_ceiling",
			"uri":"popcorn_ceiling.webp"
		},
		{
			"mimeType":"image/jpeg",
			"name":"concrete wall alt",
			"uri":"concrete%20wall%20alt.jpg"
		},
		{
			"mimeType":"image/jpeg",
			"name":"shingles",
			"uri":"shingles.jpg"
		},
		{
			"mimeType":"image/jpeg",
			"name":"wooden floor",
			"uri":"wooden%20floor.jpg"
		}
	],
	"accessors":[
		{
			"bufferView":0,
			"componentType":5126,
			"count":65,
			"max":[
				4,
				2,
				1
			],
			"min":[
				3.0434365272521973,
				-0.8125,
				-3.066922187805176
			],
			"type":"VEC3"
		},
		{
			"bufferView":1,
			"componentType":5126,
			"count":65,
			"type":"VEC3"
		},
		{
			"bufferView":2,
			"componentType":5126,
			"count":65,
			"type":"VEC2"
		},
		{
			"bufferView":3,
			"componentType":5123,
			"count":99,
			"type":"SCALAR"
		},
		{
			"bufferView":4,
			"componentType":5126,
			"count":109,
			"max":[
				4,
				2,
				1
			],
			"min":[
				-1,
				-1,
				-4
			],
			"type":"VEC3"
		},
		{
			"bufferView":5,
			"componentType":5126,
			"count":109,
			"type":"VEC3"
		},
		{
			"bufferView":6,
			"componentType":5126,
			"count":109,
			"type":"VEC2"
		},
		{
			"bufferView":7,
			"componentType":5123,
			"count":399,
			"type":"SCALAR"
		},
		{
			"bufferView":8,
			"componentType":5126,
			"count":64,
			"max":[
				3.9999990463256836,
				2,
				-0.07166038453578949
			],
			"min":[
				3.0434365272521973,
				-1,
				-3.066922187805176
			],
			"type":"VEC3"
		},
		{
			"bufferView":9,
			"componentType":5126,
			"count":64,
			"type":"VEC3"
		},
		{
			"bufferView":10,
			"componentType":5126,
			"count":64,
			"type":"VEC2"
		},
		{
			"bufferView":11,
			"componentType":5123,
			"count":96,
			"type":"SCALAR"
		},
		{
			"bufferView":12,
			"componentType":5126,
			"count":48,
			"max":[
				0.017558366060256958,
				1,
				0.5657432079315186
			],
			"min":[
				-0.06997531652450562,
				-0.9455273151397705,
				-0.4698578119277954
			],
			"type":"VEC3"
		},
		{
			"bufferView":13,
			"componentType":5126,
			"count":48,
			"type":"VEC3"
		},
		{
			"bufferView":14,
			"componentType":5126,
			"count":48,
			"type":"VEC2"
		},
		{
			"bufferView":15,
			"componentType":5123,
			"count":84,
			"type":"SCALAR"
		},
		{
			"bufferView":16,
			"componentType":5126,
			"count":48,
			"max":[
				0.017384454607963562,
				0.625,
				0.75
			],
			"min":[
				-0.06250005960464478,
				-0.625,
				-0.75
			],
			"type":"VEC3"
		},
		{
			"bufferView":17,
			"componentType":5126,
			"count":48,
			"type":"VEC3"
		},
		{
			"bufferView":18,
			"componentType":5126,
			"count":48,
			"type":"VEC2"
		},
		{
			"bufferView":19,
			"componentType":5123,
			"count":96,
			"type":"SCALAR"
		},
		{
			"bufferView":20,
			"componentType":5126,
			"count":317,
			"max":[
				4,
				-1,
				1
			],
			"min":[
				-1,
				-4,
				-4
			],
			"type":"VEC3"
		},
		{
			"bufferView":21,
			"componentType":5126,
			"count":317,
			"type":"VEC3"
		},
		{
			"bufferView":22,
			"componentType":5126,
			"count":317,
			"type":"VEC2"
		},
		{
			"bufferView":23,
			"componentType":5123,
			"count":999,
			"type":"SCALAR"
		},
		{
			"bufferView":24,
			"componentType":5126,
			"count":12,
			"max":[
				4,
				-1,
				1
			],
			"min":[
				-1,
				-1,
				-4
			],
			"type":"VEC3"
		},
		{
			"bufferView":25,
			"componentType":5126,
			"count":12,
			"type":"VEC3"
		},
		{
			"bufferView":26,
			"componentType":5126,
			"count":12,
			"type":"VEC2"
		},
		{
			"bufferView":27,
			"componentType":5123,
			"count":18,
			"type":"SCALAR"
		},
		{
			"bufferView":28,
			"componentType":5126,
			"count":106,
			"max":[
				4,
				-1.2578125,
				1
			],
			"min":[
				-1,
				-4,
				-4
			],
			"type":"VEC3"
		},
		{
			"bufferView":29,
			"componentType":5126,
			"count":106,
			"type":"VEC3"
		},
		{
			"bufferView":30,
			"componentType":5126,
			"count":106,
			"type":"VEC2"
		},
		{
			"bufferView":31,
			"componentType":5123,
			"count":336,
			"type":"SCALAR"
		},
		{
			"bufferView":32,
			"componentType":5126,
			"count":74,
			"max":[
				4,
				-1.052150845527649,
				1
			],
			"min":[
				-1,
				-1.052150845527649,
				-4
			],
			"type":"VEC3"
		},
		{
			"bufferView":33,
			"componentType":5126,
			"count":74,
			"type":"VEC3"
		},
		{
			"bufferView":34,
			"componentType":5126,
			"count":74,
			"type":"VEC2"
		},
		{
			"bufferView":35,
			"componentType":5123,
			"count":324,
			"type":"SCALAR"
		},
		{
			"bufferView":36,
			"componentType":5126,
			"count":448,
			"max":[
				4,
				-1,
				1
			],
			"min":[
				-1,
				-4,
				-4
			],
			"type":"VEC3"
		},
		{
			"bufferView":37,
			"componentType":5126,
			"count":448,
			"type":"VEC3"
		},
		{
			"bufferView":38,
			"componentType":5126,
			"count":448,
			"type":"VEC2"
		},
		{
			"bufferView":39,
			"componentType":5123,
			"count":1863,
			"type":"SCALAR"
		},
		{
			"bufferView":40,
			"componentType":5126,
			"count":52,
			"max":[
				2.976440906524658,
				0.9996680617332458,
				0.7688124775886536
			],
			"min":[
				2.938081741333008,
				-1.0499439239501953,
				-0.2656659483909607
			],
			"type":"VEC3"
		},
		{
			"bufferView":41,
			"componentType":5126,
			"count":52,
			"type":"VEC3"
		},
		{
			"bufferView":42,
			"componentType":5126,
			"count":52,
			"type":"VEC2"
		},
		{
			"bufferView":43,
			"componentType":5123,
			"count":90,
			"type":"SCALAR"
		},
		{
			"bufferView":44,
			"componentType":5126,
			"count":48,
			"max":[
				0.19750167429447174,
				0.25280478596687317,
				0.11697316914796829
			],
			"min":[
				-0.19750167429447174,
				-0.25280478596687317,
				0.07151252031326294
			],
			"type":"VEC3"
		},
		{
			"bufferView":45,
			"componentType":5126,
			"count":48,
			"type":"VEC3"
		},
		{
			"bufferView":46,
			"componentType":5126,
			"count":48,
			"type":"VEC2"
		},
		{
			"bufferView":47,
			"componentType":5123,
			"count":96,
			"type":"SCALAR"
		},
		{
			"bufferView":48,
			"componentType":5126,
			"count":48,
			"max":[
				0.8367462754249573,
				0.4235842525959015,
				-0.05214417725801468
			],
			"min":[
				-0.8367462754249573,
				-0.4235842525959015,
				-0.08205894380807877
			],
			"type":"VEC3"
		},
		{
			"bufferView":49,
			"componentType":5126,
			"count":48,
			"type":"VEC3"
		},
		{
			"bufferView":50,
			"componentType":5126,
			"count":48,
			"type":"VEC2"
		},
		{
			"bufferView":51,
			"componentType":5123,
			"count":96,
			"type":"SCALAR"
		},
		{
			"bufferView":52,
			"componentType":5126,
			"count":20,
			"max":[
				4.1557207107543945,
				5.093673229217529,
				1.1131975650787354
			],
			"min":[
				-1.2265623807907104,
				1.9420149326324463,
				-4.178572177886963
			],
			"type":"VEC3"
		},
		{
			"bufferView":53,
			"componentType":5126,
			"count":20,
			"type":"VEC3"
		},
		{
			"bufferView":54,
			"componentType":5126,
			"count":20,
			"type":"VEC2"
		},
		{
			"bufferView":55,
			"componentType":5123,
			"count":30,
			"type":"SCALAR"
		},
		{
			"bufferView":56,
			"componentType":5126,
			"count":4,
			"max":[
				4.1557207107543945,
				5.012936592102051,
				1.1131975650787354
			],
			"min":[
				-1.2265623807907104,
				1.9420149326324463,
				-4.131296634674072
			],
			"type":"VEC3"
		},
		{
			"bufferView":57,
			"componentType":5126,
			"count":4,
			"type":"VEC3"
		},
		{
			"bufferView":58,
			"componentType":5126,
			"count":4,
			"type":"VEC2"
		},
		{
			"bufferView":59,
			"componentType":5123,
			"count":6,
			"type":"SCALAR"
		},
		{
			"bufferView":60,
			"componentType":5126,
			"count":34,
			"max":[
				4.001089096069336,
				4.946653366088867,
				1
			],
			"min":[
				-1,
				2,
				-4
			],
			"type":"VEC3"
		},
		{
			"bufferView":61,
			"componentType":5126,
			"count":34,
			"type":"VEC3"
		},
		{
			"bufferView":62,
			"componentType":5126,
			"count":34,
			"type":"VEC2"
		},
		{
			"bufferView":63,
			"componentType":5123,
			"count":87,
			"type":"SCALAR"
		},
		{
			"bufferView":64,
			"componentType":5126,
			"count":4,
			"max":[
				3.0434365272521973,
				2.0188958644866943,
				1
			],
			"min":[
				3.0434365272521973,
				2,
				-4
			],
			"type":"VEC3"
		},
		{
			"bufferView":65,
			"componentType":5126,
			"count":4,
			"type":"VEC3"
		},
		{
			"bufferView":66,
			"componentType":5126,
			"count":4,
			"type":"VEC2"
		},
		{
			"bufferView":67,
			"componentType":5123,
			"count":6,
			"type":"SCALAR"
		},
		{
			"bufferView":68,
			"componentType":5126,
			"count":4,
			"max":[
				3.0434365272521973,
				2,
				1
			],
			"min":[
				-1,
				2,
				-4
			],
			"type":"VEC3"
		},
		{
			"bufferView":69,
			"componentType":5126,
			"count":4,
			"type":"VEC3"
		},
		{
			"bufferView":70,
			"componentType":5126,
			"count":4,
			"type":"VEC2"
		},
		{
			"bufferView":71,
			"componentType":5123,
			"count":6,
			"type":"SCALAR"
		},
		{
			"bufferView":72,
			"componentType":5126,
			"count":4,
			"max":[
				3.0434365272521973,
				2.0188958644866943,
				1
			],
			"min":[
				-1,
				2.0188958644866943,
				-4
			],
			"type":"VEC3"
		},
		{
			"bufferView":73,
			"componentType":5126,
			"count":4,
			"type":"VEC3"
		},
		{
			"bufferView":74,
			"componentType":5126,
			"count":4,
			"type":"VEC2"
		},
		{
			"bufferView":75,
			"componentType":5123,
			"count":6,
			"type":"SCALAR"
		},
		{
			"bufferView":76,
			"componentType":5126,
			"count":96,
			"max":[
				2.5453810691833496,
				0.35594505071640015,
				0.8169202208518982
			],
			"min":[
				-2.5453810691833496,
				-0.35594505071640015,
				-0.8169202208518982
			],
			"type":"VEC3"
		},
		{
			"bufferView":77,
			"componentType":5126,
			"count":96,
			"type":"VEC3"
		},
		{
			"bufferView":78,
			"componentType":5126,
			"count":96,
			"type":"VEC2"
		},
		{
			"bufferView":79,
			"componentType":5123,
			"count":192,
			"type":"SCALAR"
		}
	],
	"bufferViews":[
		{
			"buffer":0,
			"byteLength":780,
			"byteOffset":0,
			"target":34962
		},
		{
			"buffer":0,
			"byteLength":780,
			"byteOffset":780,
			"target":34962
		},
		{
			"buffer":0,
			"byteLength":520,
			"byteOffset":1560,
			"target":34962
		},
		{
			"buffer":0,
			"byteLength":198,
			"byteOffset":2080,
			"target":34963
		},
		{
			"buffer":0,
			"byteLength":1308,
			"byteOffset":2280,
			"target":34962
		},
		{
			"buffer":0,
			"byteLength":1308,
			"byteOffset":3588,
			"target":34962
		},
		{
			"buffer":0,
			"byteLength":872,
			"byteOffset":4896,
			"target":34962
		},
		{
			"buffer":0,
			"byteLength":798,
			"byteOffset":5768,
			"target":34963
		},
		{
			"buffer":0,
			"byteLength":768,
			"byteOffset":6568,
			"target":34962
		},
		{
			"buffer":0,
			"byteLength":768,
			"byteOffset":7336,
			"target":34962
		},
		{
			"buffer":0,
			"byteLength":512,
			"byteOffset":8104,
			"target":34962
		},
		{
			"buffer":0,
			"byteLength":192,
			"byteOffset":8616,
			"target":34963
		},
		{
			"buffer":0,
			"byteLength":576,
			"byteOffset":8808,
			"target":34962
		},
		{
			"buffer":0,
			"byteLength":576,
			"byteOffset":9384,
			"target":34962
		},
		{
			"buffer":0,
			"byteLength":384,
			"byteOffset":9960,
			"target":34962
		},
		{
			"buffer":0,
			"byteLength":168,
			"byteOffset":10344,
			"target":34963
		},
		{
			"buffer":0,
			"byteLength":576,
			"byteOffset":10512,
			"target":34962
		},
		{
			"buffer":0,
			"byteLength":576,
			"byteOffset":11088,
			"target":34962
		},
		{
			"buffer":0,
			"byteLength":384,
			"byteOffset":11664,
			"target":34962
		},
		{
			"buffer":0,
			"byteLength":192,
			"byteOffset":12048,
			"target":34963
		},
		{
			"buffer":0,
			"byteLength":3804,
			"byteOffset":12240,
			"target":34962
		},
		{
			"buffer":0,
			"byteLength":3804,
			"byteOffset":16044,
			"target":34962
		},
		{
			"buffer":0,
			"byteLength":2536,
			"byteOffset":19848,
			"target":34962
		},
		{
			"buffer":0,
			"byteLength":1998,
			"byteOffset":22384,
			"target":34963
		},
		{
			"buffer":0,
			"byteLength":144,
			"byteOffset":24384,
			"target":34962
		},
		{
			"buffer":0,
			"byteLength":144,
			"byteOffset":24528,
			"target":34962
		},
		{
			"buffer":0,
			"byteLength":96,
			"byteOffset":24672,
			"target":34962
		},
		{
			"buffer":0,
			"byteLength":36,
			"byteOffset":24768,
			"target":34963
		},
		{
			"buffer":0,
			"byteLength":1272,
			"byteOffset":24804,
			"target":34962
		},
		{
			"buffer":0,
			"byteLength":1272,
			"byteOffset":26076,
			"target":34962
		},
		{
			"buffer":0,
			"byteLength":848,
			"byteOffset":27348,
			"target":34962
		},
		{
			"buffer":0,
			"byteLength":672,
			"byteOffset":28196,
			"target":34963
		},
		{
			"buffer":0,
			"byteLength":888,
			"byteOffset":28868,
			"target":34962
		},
		{
			"buffer":0,
			"byteLength":888,
			"byteOffset":29756,
			"target":34962
		},
		{
			"buffer":0,
			"byteLength":592,
			"byteOffset":30644,
			"target":34962
		},
		{
			"buffer":0,
			"byteLength":648,
			"byteOffset":31236,
			"target":34963
		},
		{
			"buffer":0,
			"byteLength":5376,
			"byteOffset":31884,
			"target":34962
		},
		{
			"buffer":0,
			"byteLength":5376,
			"byteOffset":37260,
			"target":34962
		},
		{
			"buffer":0,
			"byteLength":3584,
			"byteOffset":42636,
			"target":34962
		},
		{
			"buffer":0,
			"byteLength":3726,
			"byteOffset":46220,
			"target":34963
		},
		{
			"buffer":0,
			"byteLength":624,
			"byteOffset":49948,
			"target":34962
		},
		{
			"buffer":0,
			"byteLength":624,
			"byteOffset":50572,
			"target":34962
		},
		{
			"buffer":0,
			"byteLength":416,
			"byteOffset":51196,
			"target":34962
		},
		{
			"buffer":0,
			"byteLength":180,
			"byteOffset":51612,
			"target":34963
		},
		{
			"buffer":0,
			"byteLength":576,
			"byteOffset":51792,
			"target":34962
		},
		{
			"buffer":0,
			"byteLength":576,
			"byteOffset":52368,
			"target":34962
		},
		{
			"buffer":0,
			"byteLength":384,
			"byteOffset":52944,
			"target":34962
		},
		{
			"buffer":0,
			"byteLength":192,
			"byteOffset":53328,
			"target":34963
		},
		{
			"buffer":0,
			"byteLength":576,
			"byteOffset":53520,
			"target":34962
		},
		{
			"buffer":0,
			"byteLength":576,
			"byteOffset":54096,
			"target":34962
		},
		{
			"buffer":0,
			"byteLength":384,
			"byteOffset":54672,
			"target":34962
		},
		{
			"buffer":0,
			"byteLength":192,
			"byteOffset":55056,
			"target":34963
		},
		{
			"buffer":0,
			"byteLength":240,
			"byteOffset":55248,
			"target":34962
		},
		{
			"buffer":0,
			"byteLength":240,
			"byteOffset":55488,
			"target":34962
		},
		{
			"buffer":0,
			"byteLength":160,
			"byteOffset":55728,
			"target":34962
		},
		{
			"buffer":0,
			"byteLength":60,
			"byteOffset":55888,
			"target":34963
		},
		{
			"buffer":0,
			"byteLength":48,
			"byteOffset":55948,
			"target":34962
		},
		{
			"buffer":0,
			"byteLength":48,
			"byteOffset":55996,
			"target":34962
		},
		{
			"buffer":0,
			"byteLength":32,
			"byteOffset":56044,
			"target":34962
		},
		{
			"buffer":0,
			"byteLength":12,
			"byteOffset":56076,
			"target":34963
		},
		{
			"buffer":0,
			"byteLength":408,
			"byteOffset":56088,
			"target":34962
		},
		{
			"buffer":0,
			"byteLength":408,
			"byteOffset":56496,
			"target":34962
		},
		{
			"buffer":0,
			"byteLength":272,
			"byteOffset":56904,
			"target":34962
		},
		{
			"buffer":0,
			"byteLength":174,
			"byteOffset":57176,
			"target":34963
		},
		{
			"buffer":0,
			"byteLength":48,
			"byteOffset":57352,
			"target":34962
		},
		{
			"buffer":0,
			"byteLength":48,
			"byteOffset":57400,
			"target":34962
		},
		{
			"buffer":0,
			"byteLength":32,
			"byteOffset":57448,
			"target":34962
		},
		{
			"buffer":0,
			"byteLength":12,
			"byteOffset":57480,
			"target":34963
		},
		{
			"buffer":0,
			"byteLength":48,
			"byteOffset":57492,
			"target":34962
		},
		{
			"buffer":0,
			"byteLength":48,
			"byteOffset":57540,
			"target":34962
		},
		{
			"buffer":0,
			"byteLength":32,
			"byteOffset":57588,
			"target":34962
		},
		{
			"buffer":0,
			"byteLength":12,
			"byteOffset":57620,
			"target":34963
		},
		{
			"buffer":0,
			"byteLength":48,
			"byteOffset":57632,
			"target":34962
		},
		{
			"buffer":0,
			"byteLength":48,
			"byteOffset":57680,
			"target":34962
		},
		{
			"buffer":0,
			"byteLength":32,
			"byteOffset":57728,
			"target":34962
		},
		{
			"buffer":0,
			"byteLength":12,
			"byteOffset":57760,
			"target":34963
		},
		{
			"buffer":0,
			"byteLength":1152,
			"byteOffset":57772,
			"target":34962
		},
		{
			"buffer":0,
			"byteLength":1152,
			"byteOffset":58924,
			"target":34962
		},
		{
			"buffer":0,
			"byteLength":768,
			"byteOffset":60076,
			"target":34962
		},
		{
			"buffer":0,
			"byteLength":384,
			"byteOffset":60844,
			"target":34963
		}
	],
	"samplers":[
		{
			"magFilter":9729,
			"minFilter":9987
		}
	],
	"buffers":[
		{
			"byteLength":61228,
			"uri":"naked%20house.bin"
		}
	]
}
